<svg xmlns="http://www.w3.org/2000/svg" xmlns:xlink="http://www.w3.org/1999/xlink" width="500" zoomAndPan="magnify" viewBox="0 0 375 374.999991" height="500" preserveAspectRatio="xMidYMid meet" version="1.0"><defs><clipPath id="fefcb4caa6"><path d="M 230 238 L 232.660156 238 L 232.660156 243 L 230 243 Z M 230 238 " clip-rule="nonzero"/></clipPath><clipPath id="503c48717a"><path d="M 224.410156 238 L 227 238 L 227 243 L 224.410156 243 Z M 224.410156 238 " clip-rule="nonzero"/></clipPath><clipPath id="270e503dce"><path d="M 227 237.644531 L 230 237.644531 L 230 243.644531 L 227 243.644531 Z M 227 237.644531 " clip-rule="nonzero"/></clipPath><clipPath id="c8c33103e4"><path d="M 37.5 0 L 341.25 0 L 341.25 303.75 L 37.5 303.75 Z M 37.5 0 " clip-rule="nonzero"/></clipPath><clipPath id="9caea976f6"><path d="M 257 133.144531 L 306 133.144531 L 306 185 L 257 185 Z M 257 133.144531 " clip-rule="nonzero"/></clipPath></defs><g clip-path="url(#fefcb4caa6)"><path fill="#000000" d="M 230.371094 242.878906 C 230.324219 242.878906 230.273438 242.859375 230.238281 242.824219 C 230.164062 242.75 230.164062 242.632812 230.238281 242.5625 L 232.199219 240.65625 L 230.238281 238.753906 C 230.164062 238.679688 230.164062 238.5625 230.238281 238.492188 C 230.3125 238.417969 230.433594 238.417969 230.507812 238.492188 L 232.601562 240.527344 C 232.640625 240.5625 232.660156 240.609375 232.660156 240.65625 C 232.660156 240.707031 232.640625 240.753906 232.601562 240.789062 L 230.507812 242.824219 C 230.46875 242.859375 230.421875 242.878906 230.371094 242.878906 Z M 230.371094 242.878906 " fill-opacity="1" fill-rule="nonzero"/></g><g clip-path="url(#503c48717a)"><path fill="#000000" d="M 226.699219 242.878906 C 226.648438 242.878906 226.601562 242.859375 226.5625 242.824219 L 224.46875 240.789062 C 224.433594 240.753906 224.410156 240.707031 224.410156 240.65625 C 224.410156 240.609375 224.433594 240.5625 224.46875 240.527344 L 226.5625 238.492188 C 226.636719 238.417969 226.757812 238.417969 226.832031 238.492188 C 226.910156 238.5625 226.910156 238.679688 226.832031 238.753906 L 224.875 240.65625 L 226.832031 242.5625 C 226.910156 242.632812 226.910156 242.75 226.832031 242.824219 C 226.796875 242.859375 226.746094 242.878906 226.699219 242.878906 Z M 226.699219 242.878906 " fill-opacity="1" fill-rule="nonzero"/></g><g clip-path="url(#270e503dce)"><path fill="#000000" d="M 227.398438 243.644531 C 227.375 243.644531 227.351562 243.640625 227.328125 243.632812 C 227.226562 243.59375 227.179688 243.488281 227.21875 243.390625 L 229.496094 237.785156 C 229.535156 237.691406 229.644531 237.644531 229.746094 237.683594 C 229.84375 237.71875 229.890625 237.828125 229.851562 237.921875 L 227.574219 243.527344 C 227.546875 243.601562 227.472656 243.644531 227.398438 243.644531 Z M 227.398438 243.644531 " fill-opacity="1" fill-rule="nonzero"/></g><g clip-path="url(#c8c33103e4)"><path fill="#5170ff" d="M 189.324219 303.644531 C 105.820312 303.644531 37.5 235.324219 37.5 151.824219 C 37.5 68.320312 105.820312 0 189.324219 0 C 272.824219 0 341.144531 68.320312 341.144531 151.824219 C 341.144531 235.324219 272.824219 303.644531 189.324219 303.644531 Z M 189.324219 303.644531 " fill-opacity="1" fill-rule="nonzero"/></g><path fill="#f89c87" d="M 231.6875 235.53125 L 217.6875 238.957031 L 178.382812 238.773438 L 211.953125 250.867188 L 231.761719 244.449219 Z M 231.6875 235.53125 " fill-opacity="1" fill-rule="evenodd"/><path fill="#56739a" d="M 73.78125 288.519531 C 73.78125 288.519531 53.726562 359.09375 143.507812 363.441406 C 143.507812 363.441406 290.15625 374.335938 322.921875 352.707031 C 322.921875 352.707031 371.3125 307.902344 372.648438 214.195312 C 372.648438 214.195312 377.742188 168.839844 352.03125 159.730469 C 352.03125 159.730469 320.320312 153.289062 280.800781 207.820312 L 203.296875 270.230469 C 143.96875 235.734375 95.339844 228.125 73.78125 288.519531 Z M 73.78125 288.519531 " fill-opacity="1" fill-rule="evenodd"/><path fill="#f89c87" d="M 56.597656 299.359375 C 42.023438 327.199219 -2.550781 320.53125 1.546875 333.992188 C 4.453125 343.457031 43.066406 340.761719 47.371094 339.464844 C 58.703125 336 77.136719 315.1875 77.480469 314.457031 C 81.78125 305.992188 65.1875 302.351562 63.789062 302.050781 " fill-opacity="1" fill-rule="evenodd"/><path fill="#f89c87" d="M 72.996094 312.945312 C 58.5 331.578125 18.808594 346.109375 16.34375 350.96875 C 11.214844 361.132812 36.433594 356.519531 58.414062 354.726562 C 70.929688 353.707031 85.105469 364.621094 81.277344 345.648438 C 78.652344 332.605469 80.847656 332.5625 86.113281 323.773438 C 88.382812 319.976562 83.179688 315.777344 82.632812 315.328125 " fill-opacity="1" fill-rule="evenodd"/><path fill="#33537d" d="M 96.835938 310.851562 C 125.765625 320.039062 126.625 289.472656 161.273438 304.335938 C 192.457031 317.742188 209.597656 339.894531 237.859375 308.222656 C 238.484375 307.523438 282.445312 284.375 275.359375 261.054688 C 269.292969 241.027344 239.355469 267.117188 215.761719 268.03125 C 166.648438 269.929688 139.949219 228.222656 95.472656 288.238281 " fill-opacity="1" fill-rule="evenodd"/><path fill="#33537d" d="M 292.875 192.71875 C 320.308594 161.726562 342.269531 159.355469 349.492188 159.535156 C 348.527344 164.28125 344.890625 170.828125 337.117188 178.789062 C 316.222656 200.253906 319.492188 203.078125 311.835938 213.9375 L 301.53125 216.085938 C 288.476562 209.613281 288.132812 201.511719 292.875 192.71875 Z M 292.875 192.71875 " fill-opacity="1" fill-rule="evenodd"/><path fill="#373954" d="M 237.710938 289 L 208.265625 298.734375 L 142.21875 271.753906 L 95.339844 337.222656 L 68.179688 313.179688 L 50.304688 298.90625 L 99.429688 243.324219 C 97.761719 244.320312 123.300781 217.652344 140.59375 230.605469 L 146.710938 232.324219 L 214.460938 251.382812 Z M 237.710938 289 " fill-opacity="1" fill-rule="evenodd"/><path fill="#5f9ded" d="M 271.617188 193.03125 C 271.617188 193.03125 248.613281 246.867188 200.640625 248.304688 C 200.640625 248.304688 207.148438 288.015625 232.902344 299.9375 L 239.214844 295.160156 L 249.214844 292.671875 C 249.214844 292.671875 292.425781 272.410156 312.511719 212.609375 C 312.511719 212.652344 306.222656 185.132812 271.617188 193.03125 Z M 271.617188 193.03125 " fill-opacity="1" fill-rule="evenodd"/><path fill="#5f9ded" d="M 232.699219 243.386719 L 230.128906 234.160156 C 230.128906 234.160156 256.636719 219.582031 273.003906 191.980469 L 270.230469 205.640625 Z M 232.699219 243.386719 " fill-opacity="1" fill-rule="evenodd"/><path fill="#f89c87" d="M 258.679688 261.632812 C 236.988281 250.675781 203.535156 223.832031 194.566406 224.832031 C 184.964844 225.90625 173.5 233 171.984375 236.636719 C 171.863281 236.917969 171.660156 237.808594 175.296875 237.773438 C 174.953125 239.71875 175.757812 239.695312 177.5625 239.148438 C 181.542969 242.636719 185.4375 232.355469 191.964844 236.015625 C 192.769531 236.464844 199.847656 240.4375 202.234375 240.996094 C 211.019531 243.046875 210.332031 244.621094 216.792969 251.289062 C 217.40625 251.929688 243.527344 279.105469 251.65625 284.40625 C 257.5625 288.261719 277.195312 269.929688 277.207031 269.917969 C 275.21875 268.84375 275.5625 266.625 273.21875 265.292969 C 265.789062 261.03125 264.335938 262.289062 258.679688 261.632812 Z M 258.679688 261.632812 " fill-opacity="1" fill-rule="evenodd"/><path fill="#5f9ded" d="M 286.703125 218.144531 L 255.519531 258.726562 L 275.476562 275.628906 C 275.476562 275.628906 309.652344 242.820312 308.8125 214.625 " fill-opacity="1" fill-rule="evenodd"/><path fill="#e2e9fc" d="M 156.335938 225.667969 L 146.992188 154.4375 C 146.992188 154.4375 140.539062 160.542969 139.957031 163.507812 L 150.410156 232.601562 L 209.480469 251.714844 L 210.738281 247.832031 L 207.910156 246.886719 L 157.144531 230.285156 Z M 156.335938 225.667969 " fill-opacity="1" fill-rule="evenodd"/><path fill="#1d083e" d="M 255.851562 259.347656 C 255.75 259.34375 255.660156 259.3125 255.582031 259.25 C 255.484375 259.179688 255.429688 259.082031 255.414062 258.960938 C 255.398438 258.839844 255.429688 258.734375 255.507812 258.640625 L 286.691406 218.058594 C 286.765625 217.964844 286.863281 217.90625 286.984375 217.890625 C 287.105469 217.875 287.214844 217.90625 287.3125 217.980469 C 287.40625 218.054688 287.464844 218.152344 287.480469 218.269531 C 287.496094 218.390625 287.464844 218.5 287.390625 218.597656 L 256.207031 259.175781 C 256.117188 259.289062 255.996094 259.347656 255.851562 259.347656 Z M 255.851562 259.347656 " fill-opacity="1" fill-rule="nonzero"/><path fill="#1d083e" d="M 271.1875 239.492188 L 270.765625 239.363281 L 270.359375 239.179688 C 272.410156 233.542969 274.949219 228.128906 277.972656 222.941406 C 278.03125 222.839844 278.121094 222.769531 278.238281 222.738281 C 278.355469 222.707031 278.46875 222.722656 278.574219 222.78125 C 278.679688 222.84375 278.75 222.9375 278.78125 223.054688 C 278.8125 223.175781 278.796875 223.285156 278.734375 223.394531 C 275.734375 228.535156 273.21875 233.898438 271.1875 239.492188 Z M 270.765625 239.363281 Z M 270.765625 239.363281 " fill-opacity="1" fill-rule="nonzero"/><path fill="#f89c87" d="M 277.359375 141.453125 C 277.359375 141.453125 263.570312 141.582031 259.9375 155.167969 C 259.699219 154.308594 254.085938 187.933594 264.539062 193.910156 C 265.90625 194.898438 267.417969 195.546875 269.078125 195.863281 C 270.734375 196.179688 272.378906 196.128906 274.015625 195.714844 L 276.53125 205.308594 C 278.488281 205.285156 280.414062 205.027344 282.308594 204.539062 C 284.203125 204.054688 286.011719 203.351562 287.738281 202.429688 C 289.464844 201.511719 291.058594 200.402344 292.515625 199.101562 C 293.976562 197.800781 295.261719 196.347656 296.371094 194.738281 C 296.371094 194.738281 294.832031 189.972656 295.671875 188.019531 C 295.671875 188.019531 306.941406 161.1875 298.242188 150.457031 C 298.242188 150.488281 290.800781 139.746094 277.359375 141.453125 Z M 277.359375 141.453125 " fill-opacity="1" fill-rule="evenodd"/><path fill="#1d083e" d="M 268.089844 180.851562 L 268.011719 180.851562 C 267.359375 180.734375 265.152344 180.269531 264.378906 179.035156 C 264.085938 178.578125 264.015625 178.089844 264.175781 177.566406 C 264.472656 176.964844 264.898438 176.472656 265.453125 176.097656 C 266.183594 175.59375 266.785156 174.96875 267.261719 174.226562 C 267.742188 173.480469 268.054688 172.675781 268.207031 171.804688 C 268.203125 171.671875 268.25 171.558594 268.347656 171.46875 C 268.445312 171.378906 268.558594 171.34375 268.691406 171.355469 C 268.824219 171.367188 268.925781 171.429688 269.003906 171.535156 C 269.082031 171.640625 269.105469 171.761719 269.078125 171.890625 C 268.917969 172.871094 268.574219 173.785156 268.046875 174.628906 C 267.519531 175.472656 266.847656 176.183594 266.035156 176.761719 C 265.625 177.050781 265.289062 177.410156 265.023438 177.835938 C 264.941406 178.101562 264.972656 178.351562 265.121094 178.585938 C 265.617188 179.378906 267.273438 179.851562 268.164062 180.003906 C 268.273438 180.027344 268.359375 180.082031 268.425781 180.171875 C 268.488281 180.261719 268.519531 180.359375 268.507812 180.46875 C 268.5 180.582031 268.453125 180.671875 268.375 180.75 C 268.292969 180.828125 268.199219 180.867188 268.089844 180.871094 Z M 268.089844 180.851562 " fill-opacity="1" fill-rule="nonzero"/><path fill="#1d083e" d="M 279.347656 169.9375 C 279.292969 170 279.261719 170.085938 279.207031 170.148438 L 279.015625 170.148438 C 277.863281 170.417969 277.015625 169.484375 276.109375 169.078125 C 275.257812 168.777344 274.40625 168.777344 273.550781 169.078125 C 273.421875 169.078125 273.421875 169.078125 273.292969 169.078125 C 273.164062 169.078125 273.132812 168.875 273.132812 168.875 C 273.117188 168.789062 273.117188 168.703125 273.132812 168.617188 C 273.21875 168.464844 273.238281 168.476562 273.410156 168.421875 C 276.445312 167.53125 277.316406 169.300781 278.390625 169.65625 C 278.621094 169.726562 278.859375 169.753906 279.101562 169.730469 C 279.1875 169.792969 279.269531 169.863281 279.347656 169.9375 Z M 279.347656 169.9375 " fill-opacity="1" fill-rule="evenodd"/><path fill="#1d083e" d="M 275.605469 168.519531 C 275.753906 168.535156 275.894531 168.582031 276.027344 168.65625 C 276.160156 168.726562 276.269531 168.824219 276.363281 168.941406 C 276.457031 169.058594 276.527344 169.191406 276.566406 169.335938 C 276.609375 169.476562 276.621094 169.625 276.605469 169.773438 C 276.589844 169.925781 276.542969 170.066406 276.46875 170.195312 C 276.398438 170.328125 276.300781 170.441406 276.183594 170.535156 C 276.066406 170.628906 275.933594 170.699219 275.789062 170.742188 C 275.644531 170.785156 275.496094 170.796875 275.347656 170.785156 C 275.195312 170.773438 275.054688 170.734375 274.917969 170.664062 C 274.785156 170.59375 274.671875 170.5 274.578125 170.378906 C 274.484375 170.261719 274.417969 170.128906 274.378906 169.980469 C 274.339844 169.835938 274.332031 169.6875 274.359375 169.539062 C 274.375 169.386719 274.417969 169.246094 274.488281 169.113281 C 274.558594 168.980469 274.652344 168.867188 274.769531 168.769531 C 274.886719 168.675781 275.019531 168.605469 275.164062 168.5625 C 275.308594 168.519531 275.457031 168.503906 275.605469 168.519531 Z M 275.605469 168.519531 " fill-opacity="1" fill-rule="evenodd"/><path fill="#1d083e" d="M 275.585938 168.667969 C 275.226562 168.667969 274.960938 168.824219 274.785156 169.132812 C 274.609375 169.441406 274.613281 169.75 274.800781 170.054688 C 274.890625 170.191406 275.015625 170.292969 275.171875 170.351562 C 275.328125 170.414062 275.488281 170.421875 275.648438 170.382812 C 275.8125 170.34375 275.949219 170.261719 276.058594 170.136719 C 276.167969 170.011719 276.230469 169.863281 276.25 169.699219 C 276.28125 169.484375 276.230469 169.289062 276.097656 169.117188 C 275.964844 168.945312 275.789062 168.84375 275.574219 168.820312 Z M 275.585938 168.304688 L 275.585938 168.152344 C 275.914062 168.195312 276.195312 168.332031 276.433594 168.5625 C 276.671875 168.789062 276.816406 169.066406 276.871094 169.394531 C 276.921875 169.71875 276.875 170.027344 276.722656 170.320312 C 276.570312 170.613281 276.34375 170.832031 276.046875 170.976562 C 275.789062 171.101562 275.519531 171.144531 275.234375 171.105469 C 274.953125 171.066406 274.703125 170.957031 274.484375 170.769531 C 274.269531 170.582031 274.121094 170.355469 274.039062 170.078125 C 273.960938 169.804688 273.964844 169.53125 274.046875 169.257812 C 274.136719 168.945312 274.320312 168.695312 274.597656 168.511719 C 274.871094 168.328125 275.171875 168.257812 275.5 168.292969 Z M 275.585938 168.304688 " fill-opacity="1" fill-rule="evenodd"/><path fill="#1d083e" d="M 259.347656 167.132812 L 259.605469 167.132812 C 259.941406 167.328125 260.300781 167.382812 260.679688 167.304688 C 261.753906 167.175781 263.21875 166.234375 265.421875 168.003906 C 265.5625 168.121094 265.582031 168.109375 265.617188 168.28125 L 265.539062 168.53125 C 265.476562 168.589844 265.398438 168.632812 265.3125 168.660156 C 265.140625 168.660156 265.140625 168.660156 265.003906 168.539062 C 262.851562 166.910156 261.777344 168.121094 260.292969 167.84375 C 260.011719 167.785156 259.757812 167.671875 259.527344 167.5 L 259.476562 167.5 C 259.449219 167.371094 259.40625 167.25 259.347656 167.132812 Z M 259.347656 167.132812 " fill-opacity="1" fill-rule="evenodd"/><path fill="#1d083e" d="M 263.398438 167.15625 C 263.253906 167.117188 263.105469 167.109375 262.953125 167.128906 C 262.800781 167.148438 262.660156 167.195312 262.527344 167.269531 C 262.394531 167.34375 262.28125 167.4375 262.183594 167.558594 C 262.085938 167.675781 262.015625 167.804688 261.96875 167.949219 C 261.917969 168.089844 261.898438 168.234375 261.910156 168.386719 C 261.921875 168.535156 261.960938 168.675781 262.03125 168.808594 C 262.101562 168.941406 262.191406 169.050781 262.308594 169.144531 C 262.425781 169.238281 262.558594 169.304688 262.703125 169.34375 C 262.847656 169.382812 263 169.394531 263.148438 169.375 C 263.300781 169.359375 263.445312 169.3125 263.578125 169.238281 C 263.710938 169.167969 263.828125 169.070312 263.925781 168.953125 C 264.023438 168.835938 264.09375 168.707031 264.140625 168.5625 C 264.195312 168.417969 264.214844 168.273438 264.203125 168.121094 C 264.195312 167.972656 264.152344 167.828125 264.082031 167.695312 C 264.011719 167.5625 263.917969 167.449219 263.796875 167.351562 C 263.679688 167.257812 263.546875 167.195312 263.398438 167.15625 Z M 263.398438 167.15625 " fill-opacity="1" fill-rule="evenodd"/><path fill="#1d083e" d="M 263.347656 167.347656 L 263.347656 167.488281 C 263.105469 167.425781 262.882812 167.464844 262.679688 167.605469 C 262.523438 167.695312 262.414062 167.824219 262.351562 167.992188 C 262.285156 168.160156 262.28125 168.332031 262.335938 168.5 C 262.394531 168.671875 262.496094 168.804688 262.648438 168.90625 C 262.796875 169.003906 262.964844 169.042969 263.140625 169.023438 C 263.519531 168.980469 263.765625 168.78125 263.878906 168.421875 C 263.996094 168.0625 263.917969 167.753906 263.636719 167.5 C 263.558594 167.417969 263.460938 167.367188 263.347656 167.347656 Z M 263.441406 166.984375 C 263.835938 167.066406 264.125 167.285156 264.3125 167.640625 C 264.398438 167.804688 264.449219 167.984375 264.464844 168.167969 C 264.480469 168.355469 264.460938 168.539062 264.40625 168.71875 C 264.351562 168.898438 264.265625 169.058594 264.148438 169.207031 C 264.03125 169.351562 263.890625 169.472656 263.726562 169.5625 C 263.566406 169.65625 263.390625 169.714844 263.203125 169.742188 C 263.019531 169.765625 262.835938 169.753906 262.652344 169.710938 C 262.472656 169.664062 262.304688 169.585938 262.152344 169.476562 C 262 169.367188 261.871094 169.234375 261.773438 169.078125 C 261.671875 168.917969 261.605469 168.746094 261.570312 168.5625 C 261.535156 168.378906 261.535156 168.195312 261.574219 168.011719 C 261.609375 167.828125 261.679688 167.65625 261.78125 167.5 C 261.882812 167.34375 262.011719 167.210938 262.164062 167.101562 C 262.347656 166.964844 262.550781 166.867188 262.777344 166.8125 C 263.015625 166.75 263.257812 166.75 263.496094 166.8125 Z M 263.441406 166.984375 " fill-opacity="1" fill-rule="evenodd"/><path fill="#e1e5ff" d="M 264.433594 184.082031 C 267.378906 184.230469 267.582031 184.210938 271.453125 184.1875 C 271.566406 184.582031 271.558594 184.976562 271.433594 185.367188 C 271.304688 185.757812 271.078125 186.082031 270.753906 186.335938 C 268.960938 187.945312 263.226562 187.289062 264.183594 184.339844 " fill-opacity="1" fill-rule="evenodd"/><path fill="#1d083e" d="M 280.359375 165.160156 C 280.261719 165.234375 280.164062 165.332031 280.070312 165.394531 L 279.714844 165.394531 C 278.773438 165.292969 277.871094 165.042969 277.015625 164.644531 C 276.355469 164.265625 275.667969 164.199219 274.949219 164.453125 C 274.75 164.542969 274.5625 164.65625 274.390625 164.792969 C 274.253906 164.875 274.105469 164.921875 273.949219 164.933594 L 273.53125 164.71875 C 273.53125 164.570312 273.378906 164.429688 273.402344 164.28125 C 273.421875 164.128906 273.453125 164 273.671875 163.808594 C 273.925781 163.574219 274.207031 163.390625 274.523438 163.25 C 274.835938 163.109375 275.164062 163.019531 275.507812 162.984375 C 275.851562 162.949219 276.191406 162.96875 276.527344 163.039062 C 276.863281 163.113281 277.179688 163.238281 277.476562 163.410156 C 278.316406 163.96875 279.195312 164.449219 280.121094 164.847656 C 280.316406 164.921875 280.242188 165 280.359375 165.160156 Z M 280.359375 165.160156 " fill-opacity="1" fill-rule="evenodd"/><path fill="#1d083e" d="M 259.648438 162.175781 C 259.828125 162.058594 259.785156 161.960938 259.980469 161.960938 C 260.972656 161.851562 261.949219 161.675781 262.917969 161.4375 C 263.230469 161.375 263.542969 161.363281 263.859375 161.398438 C 264.175781 161.4375 264.480469 161.523438 264.769531 161.65625 C 265.058594 161.789062 265.320312 161.960938 265.554688 162.179688 C 265.789062 162.394531 265.984375 162.640625 266.140625 162.917969 C 266.28125 163.152344 266.324219 163.164062 266.261719 163.433594 L 265.980469 163.808594 C 265.835938 163.867188 265.6875 163.898438 265.53125 163.894531 C 265.183594 163.808594 265.238281 163.730469 265.023438 163.464844 C 264.761719 163.152344 264.433594 162.9375 264.046875 162.808594 C 263.660156 162.683594 263.269531 162.671875 262.875 162.765625 L 262.011719 162.765625 C 261.488281 162.789062 260.96875 162.75 260.453125 162.648438 C 260.253906 162.601562 260.0625 162.542969 259.871094 162.464844 C 259.785156 162.390625 259.734375 162.273438 259.648438 162.175781 Z M 259.648438 162.175781 " fill-opacity="1" fill-rule="evenodd"/><g clip-path="url(#9caea976f6)"><path fill="#1d083e" d="M 297.089844 184.832031 C 293.542969 183.050781 291.832031 184.832031 291.5625 181.484375 C 291.433594 179.765625 289.5625 177.425781 291.5625 172.542969 C 292.296875 170.773438 290.84375 170.835938 289.488281 169.527344 C 288.886719 168.949219 286.101562 169.710938 286.101562 169.410156 C 281.800781 169.65625 283.949219 165.695312 282.800781 161.703125 C 282.691406 161.359375 282.488281 161.628906 278.90625 159.460938 C 274.886719 161.5 274.089844 162.199219 270.636719 159.097656 C 268.488281 157.132812 261.023438 158.085938 259.367188 154.277344 C 258.292969 151.90625 256.5625 153.320312 259.570312 147.332031 C 259.839844 146.816406 259.496094 144.382812 261.519531 142.148438 C 263.539062 139.917969 263.875 140.828125 266.734375 140.003906 C 270.582031 133.382812 272.109375 133.886719 276.101562 135.785156 C 277.261719 136.34375 278.078125 133.46875 280.476562 134.035156 C 284.59375 135.035156 284.175781 136.921875 288.339844 136.355469 C 291.5625 135.902344 293.359375 140.828125 297.953125 143.09375 C 299.867188 144.039062 299.125 145.980469 302.953125 149.363281 C 306.253906 152.269531 304.695312 155.800781 304.964844 156.617188 C 306.039062 159.835938 306.210938 161.15625 303.597656 163.476562 C 303.5 165.996094 303.703125 165.984375 302.910156 168.316406 C 301.554688 172.308594 302.910156 172.609375 301.199219 176.460938 C 300.082031 178.984375 301.027344 180.925781 297.089844 184.832031 Z M 297.089844 184.832031 " fill-opacity="1" fill-rule="evenodd"/></g><path fill="#dd695a" d="M 274.175781 196.347656 L 274.003906 195.746094 C 274.003906 195.746094 283.585938 191.367188 286.292969 188.976562 C 286.292969 188.976562 281.15625 199.449219 275.789062 202.476562 Z M 274.175781 196.347656 " fill-opacity="1" fill-rule="evenodd"/><path fill="#f89c87" d="M 285.769531 171.050781 C 288.175781 163.539062 294.316406 164.054688 294.371094 169.378906 C 294.433594 175.988281 285.261719 180.496094 285.132812 175.335938 " fill-opacity="1" fill-rule="evenodd"/><path fill="#1d083e" d="M 288.433594 174.324219 C 288.3125 174.320312 288.207031 174.273438 288.121094 174.1875 C 288.035156 174.101562 287.992188 173.996094 287.992188 173.875 C 287.992188 173.753906 288.035156 173.648438 288.121094 173.5625 C 288.8125 172.886719 288.8125 172.886719 288.296875 172.050781 L 288.207031 171.921875 C 287.964844 171.492188 287.851562 171.03125 287.863281 170.539062 C 287.875 170.046875 288.011719 169.589844 288.273438 169.171875 C 288.535156 168.699219 288.898438 168.320312 289.359375 168.039062 C 289.820312 167.753906 290.324219 167.605469 290.863281 167.585938 L 290.929688 167.585938 C 291.65625 167.640625 292.234375 167.960938 292.671875 168.539062 C 292.894531 168.890625 293.027344 169.269531 293.0625 169.683594 C 293.101562 170.097656 293.042969 170.496094 292.886719 170.878906 C 292.847656 170.996094 292.777344 171.082031 292.667969 171.140625 C 292.558594 171.195312 292.445312 171.207031 292.328125 171.167969 C 292.210938 171.132812 292.125 171.058594 292.066406 170.949219 C 292.011719 170.839844 292 170.730469 292.039062 170.613281 C 292.273438 170.082031 292.246094 169.5625 291.960938 169.054688 C 291.683594 168.710938 291.328125 168.515625 290.886719 168.464844 C 290.492188 168.472656 290.128906 168.578125 289.792969 168.78125 C 289.457031 168.988281 289.199219 169.265625 289.015625 169.613281 C 288.832031 169.890625 288.730469 170.195312 288.71875 170.527344 C 288.703125 170.859375 288.777344 171.167969 288.941406 171.460938 L 289.015625 171.578125 C 289.628906 172.554688 289.863281 173.070312 288.726562 174.195312 C 288.644531 174.277344 288.546875 174.320312 288.433594 174.324219 Z M 288.433594 174.324219 " fill-opacity="1" fill-rule="nonzero"/><path fill="#1d083e" d="M 290.757812 173.585938 L 290.671875 173.585938 C 290.554688 173.558594 290.464844 173.496094 290.398438 173.394531 C 290.332031 173.296875 290.308594 173.1875 290.328125 173.070312 C 290.617188 171.566406 290.476562 170.828125 288.90625 170.128906 C 288.796875 170.078125 288.71875 170 288.675781 169.886719 C 288.628906 169.773438 288.632812 169.660156 288.683594 169.550781 C 288.734375 169.441406 288.816406 169.363281 288.925781 169.320312 C 289.039062 169.277344 289.152344 169.277344 289.261719 169.324219 C 291.328125 170.234375 291.53125 171.46875 291.1875 173.230469 C 291.171875 173.335938 291.121094 173.421875 291.039062 173.488281 C 290.957031 173.558594 290.863281 173.589844 290.757812 173.585938 Z M 290.757812 173.585938 " fill-opacity="1" fill-rule="nonzero"/><path fill="#1d083e" d="M 71.316406 315.8125 C 71.226562 315.8125 71.144531 315.789062 71.070312 315.734375 C 70.96875 315.667969 70.90625 315.574219 70.882812 315.453125 C 70.859375 315.335938 70.882812 315.222656 70.953125 315.125 L 120.417969 242.691406 C 132.527344 228.597656 139.777344 230.378906 140.066406 230.457031 C 140.183594 230.488281 140.273438 230.554688 140.332031 230.660156 C 140.394531 230.765625 140.410156 230.875 140.378906 230.992188 C 140.34375 231.109375 140.273438 231.199219 140.167969 231.257812 C 140.0625 231.320312 139.949219 231.335938 139.828125 231.304688 C 139.765625 231.304688 132.765625 229.660156 121.117188 243.226562 L 71.683594 315.617188 C 71.597656 315.746094 71.472656 315.8125 71.316406 315.8125 Z M 71.316406 315.8125 " fill-opacity="1" fill-rule="nonzero"/><path fill="#1d083e" d="M 33.765625 341.226562 C 33.574219 341.226562 33.4375 341.140625 33.359375 340.96875 C 33.308594 340.855469 33.304688 340.746094 33.351562 340.632812 C 33.394531 340.519531 33.472656 340.4375 33.582031 340.386719 C 39.917969 337.566406 56.113281 329.503906 69.628906 315.554688 C 69.714844 315.464844 69.816406 315.421875 69.9375 315.417969 C 70.0625 315.417969 70.164062 315.457031 70.253906 315.542969 C 70.339844 315.625 70.386719 315.730469 70.386719 315.851562 C 70.390625 315.972656 70.347656 316.078125 70.265625 316.164062 C 56.640625 330.203125 40.324219 338.328125 33.9375 341.171875 C 33.882812 341.199219 33.828125 341.21875 33.765625 341.226562 Z M 33.765625 341.226562 " fill-opacity="1" fill-rule="nonzero"/><path fill="#1d083e" d="M 17.257812 355.980469 C 17.0625 355.988281 16.925781 355.898438 16.851562 355.714844 C 16.582031 355.214844 16.4375 354.683594 16.410156 354.121094 C 16.386719 353.554688 16.488281 353.011719 16.710938 352.492188 C 17.484375 351.066406 19.496094 350.679688 21.121094 350.347656 C 21.484375 350.285156 21.828125 350.21875 22.128906 350.144531 C 22.25 350.117188 22.359375 350.132812 22.464844 350.199219 C 22.566406 350.261719 22.632812 350.351562 22.660156 350.472656 C 22.691406 350.589844 22.671875 350.699219 22.609375 350.804688 C 22.542969 350.90625 22.453125 350.972656 22.335938 351.003906 L 21.257812 351.21875 C 19.828125 351.484375 18.035156 351.816406 17.464844 352.878906 C 17.136719 353.730469 17.191406 354.554688 17.636719 355.347656 C 17.683594 355.460938 17.683594 355.574219 17.640625 355.6875 C 17.59375 355.800781 17.511719 355.882812 17.398438 355.929688 C 17.355469 355.953125 17.308594 355.972656 17.257812 355.980469 Z M 17.257812 355.980469 " fill-opacity="1" fill-rule="nonzero"/><path fill="#1d083e" d="M 231.742188 239.632812 C 231.605469 239.632812 231.492188 239.578125 231.40625 239.472656 C 231.328125 239.378906 231.296875 239.273438 231.304688 239.152344 C 231.316406 239.035156 231.367188 238.9375 231.460938 238.859375 C 231.675781 238.675781 252.96875 221.203125 258.023438 213.507812 C 258.085938 213.40625 258.179688 213.34375 258.296875 213.316406 C 258.414062 213.292969 258.523438 213.3125 258.625 213.378906 C 258.730469 213.445312 258.792969 213.539062 258.816406 213.660156 C 258.84375 213.777344 258.820312 213.890625 258.753906 213.992188 C 253.667969 221.792969 232.945312 238.816406 232.019531 239.535156 C 231.9375 239.601562 231.847656 239.632812 231.742188 239.632812 Z M 231.742188 239.632812 " fill-opacity="1" fill-rule="nonzero"/><path fill="#1d083e" d="M 233.503906 247.242188 C 233.421875 247.242188 233.347656 247.21875 233.277344 247.175781 C 231.128906 245.855469 229.613281 244.847656 228.214844 243.957031 L 225.785156 242.273438 C 224.472656 241.359375 222.976562 240.320312 220.472656 238.644531 C 220.371094 238.578125 220.308594 238.484375 220.285156 238.363281 C 220.257812 238.246094 220.277344 238.136719 220.34375 238.03125 C 220.410156 237.933594 220.503906 237.871094 220.625 237.847656 C 220.746094 237.824219 220.855469 237.847656 220.957031 237.914062 C 223.484375 239.601562 224.976562 240.640625 226.332031 241.554688 C 227.148438 242.132812 227.890625 242.625 228.75 243.226562 C 230.140625 244.160156 231.699219 245.160156 233.785156 246.445312 C 233.976562 246.5625 234.039062 246.730469 233.980469 246.945312 C 233.917969 247.160156 233.773438 247.265625 233.546875 247.261719 Z M 233.503906 247.242188 " fill-opacity="1" fill-rule="nonzero"/><path fill="#1d083e" d="M 215.050781 249.085938 C 214.929688 249.085938 214.828125 249.042969 214.738281 248.957031 C 211.4375 245.621094 210.976562 245.425781 205.363281 242.980469 L 203.136719 242.003906 C 200.296875 240.75 198.15625 239.621094 196.265625 238.613281 C 194.117188 237.359375 191.859375 236.355469 189.488281 235.605469 C 189.375 235.574219 189.285156 235.503906 189.226562 235.398438 C 189.167969 235.292969 189.152344 235.183594 189.183594 235.066406 C 189.21875 234.949219 189.285156 234.859375 189.394531 234.800781 C 189.5 234.742188 189.609375 234.726562 189.726562 234.757812 C 192.164062 235.523438 194.484375 236.546875 196.683594 237.839844 C 198.554688 238.828125 200.683594 239.984375 203.492188 241.199219 L 205.71875 242.175781 C 211.351562 244.632812 211.945312 244.890625 215.394531 248.335938 C 215.480469 248.421875 215.523438 248.527344 215.523438 248.648438 C 215.523438 248.769531 215.480469 248.871094 215.394531 248.957031 C 215.300781 249.054688 215.1875 249.097656 215.050781 249.085938 Z M 215.050781 249.085938 " fill-opacity="1" fill-rule="nonzero"/><path fill="#1d083e" d="M 180.566406 237.582031 C 180.4375 237.578125 180.332031 237.535156 180.242188 237.441406 C 180.15625 237.355469 180.113281 237.253906 180.113281 237.132812 C 180.113281 237.011719 180.15625 236.90625 180.242188 236.820312 C 182.640625 234.585938 182.984375 234.449219 187.222656 232.699219 L 188.953125 231.980469 C 189.066406 231.933594 189.179688 231.933594 189.289062 231.980469 C 189.402344 232.027344 189.484375 232.105469 189.535156 232.214844 C 189.574219 232.328125 189.574219 232.441406 189.527344 232.550781 C 189.484375 232.664062 189.40625 232.746094 189.296875 232.796875 L 187.566406 233.515625 C 183.382812 235.230469 183.125 235.339844 180.84375 237.464844 C 180.765625 237.535156 180.671875 237.574219 180.566406 237.582031 Z M 180.566406 237.582031 " fill-opacity="1" fill-rule="nonzero"/><path fill="#1d083e" d="M 176.996094 236.59375 C 176.789062 236.601562 176.644531 236.507812 176.570312 236.3125 C 176.496094 236.121094 176.535156 235.957031 176.691406 235.820312 L 176.855469 235.683594 C 179.683594 233.171875 180.359375 232.582031 186.53125 230.132812 C 186.644531 230.101562 186.75 230.109375 186.851562 230.160156 C 186.953125 230.210938 187.027344 230.289062 187.070312 230.394531 C 187.113281 230.5 187.113281 230.605469 187.070312 230.714844 C 187.03125 230.820312 186.957031 230.898438 186.855469 230.949219 C 180.867188 233.34375 180.273438 233.859375 177.46875 236.316406 L 177.316406 236.445312 C 177.230469 236.539062 177.121094 236.589844 176.996094 236.59375 Z M 176.996094 236.59375 " fill-opacity="1" fill-rule="nonzero"/></svg>