<svg xmlns="http://www.w3.org/2000/svg" xmlns:xlink="http://www.w3.org/1999/xlink" width="500" zoomAndPan="magnify" viewBox="0 0 375 374.999991" height="500" preserveAspectRatio="xMidYMid meet" version="1.0"><defs><clipPath id="5b9ad8c634"><path d="M 230 238 L 232.660156 238 L 232.660156 243 L 230 243 Z M 230 238 " clip-rule="nonzero"/></clipPath><clipPath id="fb7012be84"><path d="M 224.410156 238 L 227 238 L 227 243 L 224.410156 243 Z M 224.410156 238 " clip-rule="nonzero"/></clipPath><clipPath id="6cc2d0394b"><path d="M 227 237.644531 L 230 237.644531 L 230 243.644531 L 227 243.644531 Z M 227 237.644531 " clip-rule="nonzero"/></clipPath></defs><g clip-path="url(#5b9ad8c634)"><path fill="#000000" d="M 230.371094 242.878906 C 230.324219 242.878906 230.273438 242.859375 230.238281 242.824219 C 230.164062 242.75 230.164062 242.632812 230.238281 242.5625 L 232.199219 240.65625 L 230.238281 238.753906 C 230.164062 238.679688 230.164062 238.5625 230.238281 238.492188 C 230.3125 238.417969 230.433594 238.417969 230.507812 238.492188 L 232.601562 240.527344 C 232.640625 240.5625 232.660156 240.609375 232.660156 240.65625 C 232.660156 240.707031 232.640625 240.753906 232.601562 240.789062 L 230.507812 242.824219 C 230.46875 242.859375 230.421875 242.878906 230.371094 242.878906 Z M 230.371094 242.878906 " fill-opacity="1" fill-rule="nonzero"/></g><g clip-path="url(#fb7012be84)"><path fill="#000000" d="M 226.699219 242.878906 C 226.648438 242.878906 226.601562 242.859375 226.5625 242.824219 L 224.46875 240.789062 C 224.433594 240.753906 224.410156 240.707031 224.410156 240.65625 C 224.410156 240.609375 224.433594 240.5625 224.46875 240.527344 L 226.5625 238.492188 C 226.636719 238.417969 226.757812 238.417969 226.832031 238.492188 C 226.910156 238.5625 226.910156 238.679688 226.832031 238.753906 L 224.875 240.65625 L 226.832031 242.5625 C 226.910156 242.632812 226.910156 242.75 226.832031 242.824219 C 226.796875 242.859375 226.746094 242.878906 226.699219 242.878906 Z M 226.699219 242.878906 " fill-opacity="1" fill-rule="nonzero"/></g><g clip-path="url(#6cc2d0394b)"><path fill="#000000" d="M 227.398438 243.644531 C 227.375 243.644531 227.351562 243.640625 227.328125 243.632812 C 227.226562 243.59375 227.179688 243.488281 227.21875 243.390625 L 229.496094 237.785156 C 229.535156 237.691406 229.644531 237.644531 229.746094 237.683594 C 229.84375 237.71875 229.890625 237.828125 229.851562 237.921875 L 227.574219 243.527344 C 227.546875 243.601562 227.472656 243.644531 227.398438 243.644531 Z M 227.398438 243.644531 " fill-opacity="1" fill-rule="nonzero"/></g><path fill="#5170ff" d="M 320.148438 167.246094 C 312.988281 122.660156 375 98.589844 369.269531 65.425781 C 362.660156 27.160156 269.851562 0.00390625 191.351562 13.074219 C 167.800781 16.996094 79.117188 31.761719 38.851562 112.023438 C -0.0078125 189.484375 21.179688 298.140625 87.171875 340.910156 C 193.078125 409.550781 362.375 274.769531 354.535156 219.621094 C 351.601562 198.972656 324.675781 195.441406 320.148438 167.246094 " fill-opacity="1" fill-rule="nonzero"/><path fill="#99c5ff" d="M 185.78125 294.542969 L 43.863281 315.492188 L 24.960938 306.183594 L 24.960938 266.625 L 185.78125 257.683594 L 185.78125 294.542969 " fill-opacity="1" fill-rule="nonzero"/><path fill="#99c5ff" d="M 278.074219 162.425781 C 273.683594 209.832031 239.371094 249.402344 194.710938 256.875 L 194.710938 293.734375 C 225.550781 288.988281 253.453125 273.042969 274.46875 248.414062 C 294.027344 225.5 328.15625 171.332031 328.15625 171.332031 L 309.257812 162.023438 L 278.074219 162.425781 " fill-opacity="1" fill-rule="nonzero"/><path fill="#ffffff" d="M 204.679688 303.851562 L 43.863281 315.492188 L 43.863281 275.933594 L 204.679688 266.988281 L 204.679688 303.851562 " fill-opacity="1" fill-rule="nonzero"/><path fill="#ffffff" d="M 296.972656 171.730469 C 292.585938 219.140625 258.269531 258.707031 213.613281 266.183594 L 213.613281 303.042969 C 244.449219 298.296875 272.355469 282.351562 293.371094 257.71875 C 313.976562 233.574219 326.023438 203.332031 328.15625 171.332031 L 296.972656 171.730469 " fill-opacity="1" fill-rule="nonzero"/><path fill="#99c5ff" d="M 82.304688 141.980469 C 87.527344 90.433594 126.828125 50.832031 174.269531 47.464844 L 193.171875 19.566406 L 174.269531 10.261719 C 141.941406 11.039062 111.015625 24.21875 86.59375 48.367188 C 61.644531 73.039062 46.566406 106.097656 43.863281 142.085938 L 62.761719 151.398438 L 82.304688 141.980469 " fill-opacity="1" fill-rule="nonzero"/><path fill="#5ca3ff" d="M 279.160156 53.5 C 258.148438 29.199219 225.550781 15.683594 194.710938 11.417969 L 194.710938 48.277344 L 213.613281 57.585938 L 219.4375 55.714844 C 251.578125 70.550781 274.539062 103.292969 278.078125 141.429688 L 296.976562 150.738281 L 309.257812 141.34375 C 307.125 109.375 299.769531 77.324219 279.160156 53.5 " fill-opacity="1" fill-rule="nonzero"/><path fill="#5ca3ff" d="M 174.269531 258.324219 C 126.828125 255.695312 106.425781 225.699219 101.203125 174.234375 L 84.738281 164.925781 L 43.863281 165.414062 C 46.566406 201.367188 61.644531 234.191406 86.59375 258.472656 C 111.015625 282.242188 141.941406 294.9375 174.269531 295.210938 L 174.269531 258.324219 " fill-opacity="1" fill-rule="nonzero"/><path fill="#5ca3ff" d="M 315.980469 285.117188 L 174.269531 295.375 L 174.269531 258.324219 L 315.980469 250.445312 L 315.980469 285.117188 " fill-opacity="1" fill-rule="nonzero"/><path fill="#5ca3ff" d="M 303.527344 298.320312 L 303.527344 235.09375 L 322.429688 244.402344 L 351.976562 263.652344 L 322.429688 307.628906 L 303.527344 298.320312 " fill-opacity="1" fill-rule="nonzero"/><path fill="#ffffff" d="M 101.203125 151.289062 C 106.425781 99.742188 145.726562 60.140625 193.171875 56.769531 L 193.171875 19.566406 C 160.839844 20.34375 129.914062 33.523438 105.496094 57.671875 C 80.542969 82.34375 65.464844 115.402344 62.761719 151.394531 L 101.203125 151.289062 " fill-opacity="1" fill-rule="nonzero"/><path fill="#99c5ff" d="M 213.613281 57.585938 C 258.269531 64.367188 292.585938 103.398438 296.972656 150.742188 L 328.152344 150.652344 C 326.023438 118.683594 313.976562 88.628906 293.367188 64.804688 C 272.355469 40.503906 244.445312 24.992188 213.613281 20.726562 L 213.613281 57.585938 " fill-opacity="1" fill-rule="nonzero"/><path fill="#99c5ff" d="M 193.171875 267.316406 C 145.726562 264.6875 106.425781 225.699219 101.203125 174.234375 L 62.761719 174.722656 C 65.464844 210.675781 80.542969 243.496094 105.496094 267.78125 C 129.914062 291.550781 160.839844 304.246094 193.171875 304.519531 L 193.171875 267.316406 " fill-opacity="1" fill-rule="nonzero"/><path fill="#99c5ff" d="M 334.878906 294.425781 L 193.171875 304.683594 L 193.171875 267.316406 L 334.878906 259.75 L 334.878906 294.425781 " fill-opacity="1" fill-rule="nonzero"/><path fill="#99c5ff" d="M 322.425781 307.628906 L 322.425781 244.402344 L 370.875 272.960938 L 322.425781 307.628906 " fill-opacity="1" fill-rule="nonzero"/><path fill="#ffffff" d="M 211.257812 20.199219 C 211.164062 20.199219 211.066406 20.179688 210.980469 20.132812 L 194.433594 11.988281 C 194.117188 11.832031 193.992188 11.453125 194.144531 11.140625 C 194.300781 10.824219 194.679688 10.699219 194.992188 10.851562 L 211.539062 19 C 211.851562 19.152344 211.980469 19.535156 211.828125 19.847656 C 211.714844 20.070312 211.492188 20.199219 211.257812 20.199219 " fill-opacity="1" fill-rule="nonzero"/><path fill="#ffffff" d="M 59.003906 173.507812 C 58.910156 173.507812 58.8125 173.484375 58.722656 173.441406 L 43.582031 165.984375 C 43.269531 165.828125 43.140625 165.449219 43.292969 165.136719 C 43.449219 164.824219 43.828125 164.695312 44.140625 164.847656 L 59.285156 172.304688 C 59.597656 172.457031 59.726562 172.839844 59.570312 173.152344 C 59.460938 173.375 59.238281 173.507812 59.003906 173.507812 " fill-opacity="1" fill-rule="nonzero"/><path fill="#ffffff" d="M 293.554688 170.675781 C 293.457031 170.675781 293.363281 170.65625 293.273438 170.613281 L 277.796875 162.988281 C 277.480469 162.835938 277.351562 162.453125 277.507812 162.140625 C 277.664062 161.828125 278.042969 161.699219 278.355469 161.855469 L 293.832031 169.476562 C 294.144531 169.632812 294.273438 170.011719 294.121094 170.324219 C 294.011719 170.546875 293.785156 170.675781 293.554688 170.675781 " fill-opacity="1" fill-rule="nonzero"/><path fill="#ffffff" d="M 263.859375 177.984375 C 263.863281 177.351562 228.492188 171.765625 226.207031 165.296875 C 222.800781 155.652344 218.558594 144.058594 218.558594 144.058594 L 209.726562 149.632812 L 215.414062 177.386719 L 263.859375 177.984375 " fill-opacity="1" fill-rule="nonzero"/><path fill="#000000" d="M 215.929688 176.757812 L 258.257812 177.28125 C 242.246094 173.871094 227.222656 170.082031 225.613281 165.507812 C 222.734375 157.363281 219.222656 147.714844 218.234375 145.011719 L 210.433594 149.9375 Z M 263.859375 178.617188 C 263.855469 178.617188 263.855469 178.617188 263.851562 178.617188 L 215.402344 178.019531 C 215.105469 178.015625 214.851562 177.804688 214.792969 177.515625 L 209.105469 149.761719 C 209.050781 149.503906 209.164062 149.238281 209.386719 149.097656 L 218.21875 143.523438 C 218.382812 143.417969 218.582031 143.394531 218.761719 143.457031 C 218.941406 143.519531 219.085938 143.660156 219.152344 143.839844 C 219.195312 143.957031 223.4375 155.550781 226.804688 165.089844 C 228.410156 169.628906 249.566406 174.136719 258.601562 176.0625 C 264.496094 177.316406 264.496094 177.316406 264.496094 177.988281 C 264.492188 178.15625 264.425781 178.316406 264.304688 178.433594 C 264.183594 178.550781 264.027344 178.617188 263.859375 178.617188 " fill-opacity="1" fill-rule="nonzero"/><path fill="#5ca3ff" d="M 162.972656 114.238281 C 171.410156 111.484375 184.257812 109.511719 199.621094 114.402344 C 205.222656 116.1875 209.242188 121.117188 209.929688 126.957031 L 222.445312 199.007812 C 223.066406 204.246094 216.0625 209.339844 211.132812 211.207031 C 205.976562 213.160156 198.191406 215.007812 187.164062 215.007812 C 175.339844 215.007812 166.746094 215.695312 161.953125 213.59375 C 157.972656 211.851562 151.980469 207.632812 151.78125 203.292969 L 152.648438 129.234375 C 152.335938 122.480469 156.550781 116.332031 162.972656 114.238281 " fill-opacity="1" fill-rule="nonzero"/><path fill="#5ca3ff" d="M 222.066406 145.195312 C 222.066406 145.195312 212.078125 117.527344 200.875 114.867188 L 206.570312 154.074219 L 222.066406 145.195312 " fill-opacity="1" fill-rule="nonzero"/><path fill="#5ca3ff" d="M 139.679688 158.808594 C 139.679688 158.808594 140.773438 140.296875 142.371094 133.140625 C 145.738281 118.09375 161.367188 114.867188 161.367188 114.867188 L 161.832031 156.234375 L 139.679688 158.808594 " fill-opacity="1" fill-rule="nonzero"/><path fill="#000000" d="M 178.675781 119.464844 C 170.523438 119.464844 163.703125 117.292969 163.285156 117.160156 C 162.953125 117.054688 162.773438 116.695312 162.878906 116.363281 C 162.988281 116.03125 163.347656 115.851562 163.679688 115.957031 C 163.824219 116.003906 178.554688 120.679688 190.382812 116.296875 C 190.710938 116.175781 191.074219 116.34375 191.195312 116.671875 C 191.316406 117 191.148438 117.363281 190.820312 117.484375 C 186.839844 118.960938 182.601562 119.464844 178.675781 119.464844 " fill-opacity="1" fill-rule="nonzero"/><path fill="#ffffff" d="M 142.476562 158.039062 C 142.476562 158.039062 141.398438 172.15625 146.992188 181.636719 C 153.671875 192.957031 187.367188 177.710938 187.367188 177.710938 L 191.285156 175.492188 C 193.9375 173.992188 197.097656 173.667969 199.996094 174.605469 L 206.328125 176.644531 C 206.328125 176.644531 201.097656 170.378906 196.652344 167.980469 C 194.566406 166.855469 191.867188 167.921875 189.582031 169.363281 C 185.65625 171.851562 181.035156 173.019531 176.386719 172.882812 L 162.984375 172.480469 C 160.734375 172.417969 158.890625 170.675781 158.695312 168.429688 L 157.675781 156.753906 L 142.476562 158.039062 " fill-opacity="1" fill-rule="nonzero"/><path fill="#000000" d="M 143.078125 158.621094 C 142.957031 161.273438 142.71875 173.148438 147.535156 181.3125 C 149.21875 184.164062 152.78125 185.210938 157.117188 185.210938 C 168.875 185.210938 186.292969 177.496094 187.082031 177.144531 L 190.976562 174.941406 C 193.773438 173.355469 197.132812 173.011719 200.191406 174 L 204.3125 175.328125 C 202.453125 173.324219 199.210938 170.078125 196.351562 168.539062 C 194.441406 167.507812 191.800781 168.710938 189.921875 169.902344 C 185.957031 172.410156 181.273438 173.664062 176.371094 173.515625 L 162.964844 173.117188 C 160.394531 173.039062 158.285156 171.046875 158.0625 168.488281 L 157.097656 157.4375 Z M 157.207031 186.445312 C 152.410156 186.445312 148.390625 185.253906 146.445312 181.957031 C 140.816406 172.417969 141.800781 158.574219 141.84375 157.992188 C 141.867188 157.679688 142.113281 157.433594 142.421875 157.40625 L 157.621094 156.121094 C 157.972656 156.09375 158.273438 156.347656 158.304688 156.695312 L 159.324219 168.375 C 159.492188 170.300781 161.074219 171.792969 163.003906 171.851562 L 176.40625 172.25 C 181.058594 172.378906 185.496094 171.207031 189.246094 168.828125 C 192.394531 166.835938 194.988281 166.363281 196.953125 167.421875 C 201.457031 169.851562 206.597656 175.980469 206.8125 176.242188 C 206.996094 176.457031 207.011719 176.765625 206.851562 177 C 206.695312 177.234375 206.402344 177.335938 206.132812 177.25 L 199.804688 175.203125 C 197.082031 174.328125 194.089844 174.632812 191.597656 176.042969 L 187.679688 178.261719 C 187.664062 178.269531 187.644531 178.277344 187.628906 178.285156 C 186.625 178.742188 169.402344 186.445312 157.207031 186.445312 " fill-opacity="1" fill-rule="nonzero"/><path fill="#ffffff" d="M 194.1875 313.3125 L 186.882812 335.109375 C 186.882812 335.109375 194.839844 334.429688 195.601562 334.578125 C 196.359375 334.726562 205.667969 314.699219 205.667969 314.699219 L 194.1875 313.3125 " fill-opacity="1" fill-rule="nonzero"/><path fill="#000000" d="M 195.707031 333.953125 C 195.710938 333.957031 195.714844 333.957031 195.722656 333.957031 C 195.714844 333.957031 195.710938 333.953125 195.707031 333.953125 Z M 195.722656 333.957031 Z M 194.625 314.003906 L 187.789062 334.398438 C 190.019531 334.214844 194.09375 333.902344 195.394531 333.929688 C 196.511719 332.488281 201.496094 322.148438 204.726562 315.222656 Z M 186.882812 335.742188 C 186.691406 335.742188 186.507812 335.652344 186.386719 335.5 C 186.253906 335.332031 186.214844 335.109375 186.285156 334.90625 L 193.585938 313.109375 C 193.683594 312.828125 193.964844 312.652344 194.261719 312.683594 L 205.746094 314.074219 C 205.945312 314.097656 206.125 314.214844 206.222656 314.394531 C 206.320312 314.570312 206.328125 314.78125 206.242188 314.964844 C 206.21875 315.015625 203.886719 320.035156 201.488281 324.972656 C 196.433594 335.386719 196.113281 335.328125 195.480469 335.199219 C 194.933594 335.121094 190.152344 335.464844 186.933594 335.738281 C 186.917969 335.742188 186.898438 335.742188 186.882812 335.742188 " fill-opacity="1" fill-rule="nonzero"/><path fill="#99c5ff" d="M 188.554688 330.316406 C 188.554688 330.316406 199.542969 325.816406 201.574219 331.46875 C 204.160156 338.65625 208.199219 349.625 208.199219 349.625 C 208.882812 351.535156 207.566406 353.570312 205.546875 353.734375 C 201.53125 354.058594 195.539062 354.316406 192.75 353.339844 C 188.347656 351.796875 181.039062 337.855469 181.039062 337.855469 L 183.292969 325.992188 C 183.292969 325.992188 187.273438 325.429688 188.554688 330.316406 " fill-opacity="1" fill-rule="nonzero"/><path fill="#000000" d="M 181.703125 337.757812 C 183.796875 341.710938 189.597656 351.5625 192.960938 352.742188 C 195.007812 353.460938 199.460938 353.589844 205.496094 353.105469 C 206.261719 353.042969 206.9375 352.636719 207.355469 351.992188 C 207.773438 351.347656 207.863281 350.5625 207.601562 349.839844 C 207.5625 349.734375 203.535156 338.789062 200.976562 331.683594 C 200.652344 330.777344 200.058594 330.144531 199.15625 329.742188 C 195.585938 328.15625 188.863281 330.875 188.796875 330.902344 C 188.625 330.972656 188.4375 330.964844 188.273438 330.882812 C 188.109375 330.804688 187.988281 330.65625 187.941406 330.480469 C 187.050781 327.070312 184.785156 326.628906 183.820312 326.601562 Z M 199.074219 354.660156 C 196.488281 354.660156 194.078125 354.476562 192.542969 353.9375 C 187.953125 352.328125 180.78125 338.726562 180.480469 338.148438 C 180.414062 338.019531 180.390625 337.878906 180.417969 337.738281 L 182.667969 325.875 C 182.722656 325.609375 182.933594 325.40625 183.203125 325.367188 C 183.246094 325.359375 187.375 324.839844 188.964844 329.484375 C 190.839844 328.804688 196.28125 327.078125 199.667969 328.585938 C 200.886719 329.128906 201.730469 330.023438 202.171875 331.253906 C 204.722656 338.355469 208.75 349.296875 208.792969 349.40625 C 209.1875 350.507812 209.050781 351.699219 208.421875 352.675781 C 207.789062 353.65625 206.757812 354.273438 205.59375 354.363281 C 203.582031 354.527344 201.265625 354.660156 199.074219 354.660156 " fill-opacity="1" fill-rule="nonzero"/><path fill="#000000" d="M 205.382812 349.617188 L 194.101562 349.617188 C 193.75 349.617188 193.464844 349.335938 193.464844 348.984375 C 193.464844 348.636719 193.75 348.355469 194.101562 348.355469 L 205.382812 348.355469 C 205.734375 348.355469 206.015625 348.636719 206.015625 348.984375 C 206.015625 349.335938 205.734375 349.617188 205.382812 349.617188 " fill-opacity="1" fill-rule="nonzero"/><path fill="#ffffff" d="M 173.472656 318.667969 L 175.957031 340.59375 L 185.941406 337.855469 L 185.171875 318.097656 L 173.472656 318.667969 " fill-opacity="1" fill-rule="nonzero"/><path fill="#000000" d="M 174.175781 319.265625 L 176.5 339.785156 L 185.289062 337.375 L 184.566406 318.761719 Z M 175.957031 341.226562 C 175.828125 341.226562 175.707031 341.191406 175.601562 341.117188 C 175.449219 341.011719 175.347656 340.847656 175.328125 340.664062 L 172.84375 318.738281 C 172.824219 318.566406 172.878906 318.390625 172.992188 318.257812 C 173.105469 318.125 173.269531 318.042969 173.441406 318.035156 L 185.140625 317.46875 C 185.308594 317.460938 185.476562 317.519531 185.601562 317.632812 C 185.726562 317.746094 185.796875 317.90625 185.804688 318.074219 L 186.574219 337.828125 C 186.585938 338.125 186.394531 338.386719 186.109375 338.464844 L 176.125 341.203125 C 176.066406 341.21875 176.011719 341.226562 175.957031 341.226562 " fill-opacity="1" fill-rule="nonzero"/><path fill="#99c5ff" d="M 175.015625 356.746094 L 190.8125 356.746094 C 192.949219 356.746094 194.59375 354.851562 194.28125 352.738281 C 193.753906 349.167969 192.035156 343.25 186.882812 335.109375 C 186.320312 334.222656 185.335938 333.679688 184.289062 333.679688 L 179.480469 333.679688 C 178.652344 333.679688 177.957031 334.304688 177.871094 335.128906 L 177.507812 338.597656 L 175.417969 335.832031 C 175.417969 335.832031 171.683594 343.699219 171.507812 353.179688 C 171.472656 355.140625 173.054688 356.746094 175.015625 356.746094 " fill-opacity="1" fill-rule="nonzero"/><path fill="#000000" d="M 175.566406 337.082031 C 174.597656 339.453125 172.277344 345.871094 172.140625 353.191406 C 172.128906 353.96875 172.417969 354.699219 172.960938 355.253906 C 173.507812 355.808594 174.238281 356.113281 175.015625 356.113281 L 190.8125 356.113281 C 191.648438 356.113281 192.445312 355.753906 192.988281 355.117188 C 193.535156 354.488281 193.777344 353.65625 193.65625 352.828125 C 193.140625 349.355469 191.457031 343.519531 186.347656 335.449219 C 185.90625 334.746094 185.113281 334.3125 184.285156 334.3125 L 179.480469 334.3125 C 178.976562 334.3125 178.554688 334.691406 178.5 335.195312 L 178.136719 338.664062 C 178.109375 338.921875 177.929688 339.136719 177.679688 339.207031 C 177.429688 339.277344 177.160156 339.1875 177.003906 338.980469 Z M 190.8125 357.378906 L 175.015625 357.378906 C 173.894531 357.378906 172.84375 356.941406 172.0625 356.140625 C 171.277344 355.339844 170.855469 354.285156 170.875 353.167969 C 171.050781 343.660156 174.691406 335.890625 174.84375 335.5625 C 174.9375 335.363281 175.132812 335.226562 175.351562 335.203125 C 175.570312 335.183594 175.789062 335.273438 175.921875 335.453125 L 177.046875 336.9375 L 177.242188 335.0625 C 177.363281 333.914062 178.324219 333.046875 179.480469 333.046875 L 184.285156 333.046875 C 185.5625 333.046875 186.734375 333.691406 187.417969 334.769531 C 192.644531 343.03125 194.375 349.050781 194.90625 352.644531 C 195.082031 353.832031 194.734375 355.035156 193.949219 355.945312 C 193.160156 356.859375 192.015625 357.378906 190.8125 357.378906 " fill-opacity="1" fill-rule="nonzero"/><path fill="#000000" d="M 192.75 353.605469 L 173.835938 353.605469 C 173.488281 353.605469 173.207031 353.320312 173.207031 352.972656 C 173.207031 352.621094 173.488281 352.335938 173.835938 352.335938 L 192.75 352.335938 C 193.101562 352.335938 193.382812 352.621094 193.382812 352.972656 C 193.382812 353.320312 193.101562 353.605469 192.75 353.605469 " fill-opacity="1" fill-rule="nonzero"/><path fill="#000000" d="M 210.976562 186.992188 C 210.558594 185.980469 209.722656 185.203125 208.683594 184.878906 C 202.902344 183.066406 182.761719 178.289062 162.027344 191.585938 C 161.050781 192.214844 160.421875 193.265625 160.339844 194.425781 C 159.589844 204.960938 156.796875 260.042969 174.21875 325.261719 L 185.957031 324.425781 L 188.351562 212.914062 C 188.351562 212.914062 205.738281 253.796875 191.597656 318.855469 L 203.808594 321.109375 C 203.808594 321.109375 221.675781 297.617188 224.871094 261.71875 C 227.703125 229.964844 214.140625 194.703125 210.976562 186.992188 " fill-opacity="1" fill-rule="nonzero"/><path fill="#ffffff" d="M 177.210938 273.605469 C 177.203125 273.605469 177.191406 273.605469 177.183594 273.605469 C 166.1875 273.132812 164.941406 258.191406 164.929688 258.042969 C 164.90625 257.695312 165.167969 257.390625 165.515625 257.367188 C 165.867188 257.335938 166.167969 257.601562 166.195312 257.949219 C 166.203125 258.085938 167.363281 271.917969 177.238281 272.34375 C 177.589844 272.359375 177.859375 272.652344 177.84375 273 C 177.828125 273.34375 177.546875 273.605469 177.210938 273.605469 " fill-opacity="1" fill-rule="nonzero"/><path fill="#ffffff" d="M 189.371094 223.773438 C 189.03125 223.773438 188.75 223.5 188.738281 223.160156 L 188.324219 209.207031 C 188.320312 208.996094 188.421875 208.792969 188.59375 208.671875 L 195.910156 203.527344 C 196.199219 203.328125 196.59375 203.394531 196.792969 203.679688 C 196.992188 203.96875 196.925781 204.363281 196.640625 204.5625 L 189.601562 209.511719 L 190.003906 223.121094 C 190.015625 223.46875 189.738281 223.761719 189.390625 223.769531 C 189.382812 223.773438 189.378906 223.773438 189.371094 223.773438 " fill-opacity="1" fill-rule="nonzero"/><path fill="#000000" d="M 183.144531 87.78125 C 187.609375 83.941406 188.628906 83.417969 189.925781 81.21875 C 190.984375 79.425781 193.351562 75.421875 191.75 71.1875 C 190.367188 67.523438 186.542969 65.3125 183.027344 65.125 C 179.871094 64.953125 177.5625 66.449219 176.347656 67.234375 C 175.8125 67.582031 171.117188 70.714844 170.1875 75.832031 C 169.9375 77.222656 170.125 77.863281 169.492188 78.734375 C 168.0625 80.695312 165.480469 79.691406 163.695312 81.320312 C 161.445312 83.367188 162.488281 87.71875 162.574219 88.054688 C 163.746094 92.699219 168.765625 95.777344 172.851562 95.347656 C 175.214844 95.097656 174.960938 94.820312 183.144531 87.78125 " fill-opacity="1" fill-rule="nonzero"/><path fill="#ffffff" d="M 170.847656 110.746094 C 173 109.316406 174.261719 106.871094 174.203125 104.285156 L 173.957031 93.550781 C 173.882812 93.484375 173.8125 93.417969 173.738281 93.347656 C 173.738281 93.347656 169.4375 93.636719 168.8125 91.445312 C 168.1875 89.253906 171.230469 88.835938 171.230469 88.835938 C 171.230469 88.835938 168.355469 82.792969 175.785156 82.863281 C 177.78125 82.878906 178.492188 79.574219 181.765625 78.832031 C 181.765625 78.832031 183.382812 78.695312 185.023438 82.941406 L 188.621094 88.257812 L 186.824219 89.242188 C 187.265625 91.265625 187.457031 93.496094 187.183594 95.859375 C 187.105469 96.542969 186.636719 97.117188 185.984375 97.324219 C 185.445312 97.5 184.71875 97.683594 183.859375 97.785156 L 184.4375 104.96875 C 184.691406 108.117188 186.339844 110.980469 188.921875 112.792969 C 191.421875 114.542969 191.421875 114.542969 191.421875 114.542969 C 191.421875 114.542969 176.21875 119.351562 165.246094 114.113281 C 165.246094 114.113281 168.191406 112.507812 170.847656 110.746094 " fill-opacity="1" fill-rule="nonzero"/><path fill="#000000" d="M 166.664062 114.042969 C 175.324219 117.539062 186.28125 115.238281 189.960938 114.292969 L 188.558594 113.308594 C 185.8125 111.378906 184.078125 108.355469 183.808594 105.019531 L 183.230469 97.835938 C 183.203125 97.496094 183.449219 97.195312 183.789062 97.15625 C 184.476562 97.074219 185.152344 96.929688 185.792969 96.722656 C 186.203125 96.589844 186.507812 96.222656 186.554688 95.789062 C 186.796875 93.703125 186.679688 91.542969 186.203125 89.378906 C 186.144531 89.105469 186.273438 88.824219 186.519531 88.6875 L 187.707031 88.039062 L 184.5 83.292969 C 184.472656 83.253906 184.453125 83.214844 184.433594 83.167969 C 183.1875 79.929688 182.035156 79.523438 181.816406 79.46875 C 180.324219 79.839844 179.449219 80.800781 178.605469 81.730469 C 177.777344 82.644531 176.984375 83.488281 175.777344 83.496094 C 173.691406 83.476562 172.316406 83.949219 171.699219 84.910156 C 170.785156 86.339844 171.789062 88.539062 171.796875 88.5625 C 171.882812 88.746094 171.878906 88.957031 171.785156 89.136719 C 171.6875 89.3125 171.515625 89.433594 171.3125 89.460938 C 170.941406 89.515625 169.890625 89.785156 169.507812 90.375 C 169.34375 90.625 169.320312 90.910156 169.421875 91.269531 C 169.816406 92.65625 172.710938 92.785156 173.699219 92.714844 C 173.875 92.707031 174.046875 92.765625 174.171875 92.886719 L 174.386719 93.085938 C 174.511719 93.203125 174.585938 93.363281 174.589844 93.535156 L 174.835938 104.273438 C 174.898438 107.105469 173.539062 109.722656 171.195312 111.273438 C 169.542969 112.367188 167.769531 113.410156 166.664062 114.042969 Z M 177.617188 117.207031 C 173.46875 117.207031 168.972656 116.589844 164.976562 114.683594 C 164.761719 114.582031 164.621094 114.367188 164.613281 114.132812 C 164.609375 113.894531 164.734375 113.671875 164.945312 113.558594 C 164.972656 113.542969 167.894531 111.941406 170.496094 110.21875 C 172.476562 108.90625 173.625 106.695312 173.570312 104.300781 L 173.335938 93.996094 C 172.082031 94.015625 168.839844 93.839844 168.203125 91.617188 C 168 90.90625 168.085938 90.238281 168.449219 89.683594 C 168.917969 88.957031 169.761719 88.574219 170.378906 88.382812 C 170.070312 87.414062 169.722656 85.652344 170.632812 84.230469 C 171.496094 82.878906 173.230469 82.214844 175.789062 82.230469 C 176.398438 82.234375 176.90625 81.722656 177.667969 80.882812 C 178.570312 79.886719 179.691406 78.652344 181.628906 78.214844 C 181.65625 78.207031 181.683594 78.203125 181.710938 78.203125 C 182.0625 78.167969 183.875 78.25 185.589844 82.644531 L 189.140625 87.902344 C 189.242188 88.050781 189.277344 88.234375 189.234375 88.410156 C 189.195312 88.582031 189.082031 88.726562 188.921875 88.8125 L 187.539062 89.574219 C 187.957031 91.71875 188.050781 93.855469 187.8125 95.933594 C 187.707031 96.859375 187.066406 97.640625 186.179688 97.925781 C 185.652344 98.101562 185.097656 98.234375 184.539062 98.328125 L 185.070312 104.917969 C 185.308594 107.878906 186.84375 110.558594 189.289062 112.273438 L 191.785156 114.027344 C 191.980469 114.164062 192.082031 114.398438 192.042969 114.636719 C 192.007812 114.878906 191.839844 115.074219 191.613281 115.148438 C 191.207031 115.273438 184.960938 117.207031 177.617188 117.207031 " fill-opacity="1" fill-rule="nonzero"/><path fill="#ffffff" d="M 183.859375 97.785156 C 183.859375 97.785156 179.144531 97.953125 177.273438 95.386719 L 183.859375 97.785156 " fill-opacity="1" fill-rule="nonzero"/><path fill="#000000" d="M 183.664062 98.421875 C 182.667969 98.421875 178.589844 98.265625 176.765625 95.761719 C 176.554688 95.480469 176.617188 95.082031 176.902344 94.878906 C 177.183594 94.671875 177.578125 94.734375 177.785156 95.015625 C 179.433594 97.273438 183.792969 97.152344 183.835938 97.15625 C 184.191406 97.136719 184.480469 97.417969 184.492188 97.765625 C 184.503906 98.113281 184.230469 98.40625 183.882812 98.421875 C 183.859375 98.421875 183.785156 98.421875 183.664062 98.421875 " fill-opacity="1" fill-rule="nonzero"/><path fill="#000000" d="M 271.710938 175.1875 L 226.617188 175.1875 L 260.046875 123.777344 C 261.089844 122.167969 262.910156 121.191406 264.867188 121.191406 L 301.464844 121.191406 C 303.789062 121.191406 305.199219 123.679688 303.960938 125.589844 L 271.710938 175.1875 " fill-opacity="1" fill-rule="nonzero"/><path fill="#5170ff" d="M 281.332031 139.222656 C 279.867188 141.476562 276.714844 143.304688 274.292969 143.304688 C 271.871094 143.304688 271.09375 141.476562 272.558594 139.222656 C 274.027344 136.96875 277.175781 135.144531 279.597656 135.144531 C 282.019531 135.144531 282.796875 136.96875 281.332031 139.222656 " fill-opacity="1" fill-rule="nonzero"/><path fill="#000000" d="M 270.425781 179.480469 L 188.929688 179.480469 C 188.125 179.480469 187.476562 178.832031 187.476562 178.027344 L 187.476562 174.820312 L 271.875 174.820312 L 271.875 178.027344 C 271.875 178.832031 271.226562 179.480469 270.425781 179.480469 " fill-opacity="1" fill-rule="nonzero"/><path fill="#ffffff" d="M 269.367188 175.867188 L 230.640625 175.867188 C 230.289062 175.867188 230.007812 175.585938 230.007812 175.234375 C 230.007812 174.886719 230.289062 174.601562 230.640625 174.601562 L 269.367188 174.601562 C 269.71875 174.601562 270 174.886719 270 175.234375 C 270 175.585938 269.71875 175.867188 269.367188 175.867188 " fill-opacity="1" fill-rule="nonzero"/><path fill="#5ca3ff" d="M 260.402344 106.722656 C 254.140625 108.4375 247.671875 104.75 245.957031 98.488281 C 244.242188 92.222656 247.929688 85.753906 254.195312 84.039062 C 260.457031 82.324219 266.925781 86.011719 268.640625 92.277344 C 270.351562 98.539062 266.664062 105.007812 260.402344 106.722656 Z M 280.691406 91.34375 L 279.484375 86.9375 L 274.5 87.164062 C 274.042969 86.195312 273.507812 85.273438 272.902344 84.414062 L 275.539062 80.1875 L 272.292969 76.976562 L 268.089844 79.664062 C 267.210938 79.0625 266.289062 78.539062 265.328125 78.089844 L 265.496094 73.101562 L 261.082031 71.945312 L 258.785156 76.367188 C 257.738281 76.285156 256.675781 76.292969 255.605469 76.390625 L 253.261719 71.988281 L 248.855469 73.191406 L 249.082031 78.175781 C 248.113281 78.640625 247.195312 79.175781 246.332031 79.78125 L 242.105469 77.140625 L 238.890625 80.386719 L 241.582031 84.589844 C 240.980469 85.464844 240.457031 86.390625 240.007812 87.351562 L 235.019531 87.179688 L 233.863281 91.597656 L 238.285156 93.890625 C 238.203125 94.9375 238.210938 96.003906 238.308594 97.074219 L 233.90625 99.417969 L 235.113281 103.824219 L 240.09375 103.597656 C 240.558594 104.570312 241.09375 105.488281 241.695312 106.347656 L 239.058594 110.574219 L 242.304688 113.785156 L 246.511719 111.097656 C 247.386719 111.699219 248.308594 112.226562 249.269531 112.671875 L 249.097656 117.660156 L 253.519531 118.816406 L 255.808594 114.390625 C 256.859375 114.472656 257.921875 114.464844 258.992188 114.371094 L 261.335938 118.773438 L 265.742188 117.566406 L 265.515625 112.585938 C 266.484375 112.121094 267.402344 111.585938 268.265625 110.984375 L 272.492188 113.621094 L 275.703125 110.375 L 273.015625 106.167969 C 273.617188 105.292969 274.144531 104.371094 274.589844 103.410156 L 279.578125 103.578125 L 280.734375 99.164062 L 276.308594 96.871094 C 276.394531 95.820312 276.386719 94.757812 276.289062 93.6875 L 280.691406 91.34375 " fill-opacity="1" fill-rule="nonzero"/><path fill="#000000" d="M 255.359375 83.140625 C 254.375 83.140625 253.382812 83.273438 252.40625 83.539062 C 246.488281 85.160156 242.996094 91.289062 244.613281 97.207031 C 246.234375 103.125 252.367188 106.621094 258.28125 105 C 261.148438 104.214844 263.539062 102.359375 265.007812 99.78125 C 266.480469 97.199219 266.859375 94.199219 266.074219 91.332031 C 265.292969 88.464844 263.4375 86.074219 260.855469 84.605469 C 259.152344 83.632812 257.269531 83.140625 255.359375 83.140625 Z M 255.347656 106.664062 C 249.90625 106.664062 244.898438 103.039062 243.394531 97.542969 C 241.589844 90.953125 245.484375 84.121094 252.074219 82.320312 C 255.265625 81.445312 258.605469 81.863281 261.480469 83.503906 C 264.359375 85.144531 266.421875 87.804688 267.296875 90.996094 C 268.167969 94.191406 267.75 97.53125 266.109375 100.40625 C 264.472656 103.28125 261.808594 105.347656 258.617188 106.222656 C 257.527344 106.519531 256.429688 106.664062 255.347656 106.664062 Z M 247.792969 116.0625 L 251.234375 116.964844 L 253.292969 112.992188 C 253.410156 112.765625 253.648438 112.632812 253.902344 112.652344 C 254.910156 112.730469 255.949219 112.722656 256.980469 112.628906 C 257.234375 112.605469 257.476562 112.734375 257.597656 112.960938 L 259.703125 116.917969 L 263.132812 115.980469 L 262.929688 111.5 C 262.917969 111.246094 263.058594 111.011719 263.289062 110.902344 C 264.230469 110.453125 265.121094 109.933594 265.949219 109.351562 C 266.15625 109.207031 266.429688 109.199219 266.648438 109.332031 L 270.445312 111.707031 L 272.945312 109.175781 L 270.527344 105.398438 C 270.390625 105.183594 270.394531 104.910156 270.539062 104.699219 C 271.117188 103.855469 271.632812 102.960938 272.0625 102.03125 C 272.167969 101.800781 272.402344 101.65625 272.65625 101.664062 L 277.136719 101.820312 L 278.039062 98.378906 L 274.066406 96.320312 C 273.839844 96.203125 273.707031 95.964844 273.726562 95.707031 C 273.804688 94.703125 273.796875 93.667969 273.703125 92.632812 C 273.683594 92.378906 273.8125 92.136719 274.039062 92.015625 L 277.992188 89.910156 L 277.054688 86.480469 L 272.578125 86.683594 C 272.320312 86.695312 272.085938 86.554688 271.976562 86.324219 C 271.53125 85.386719 271.007812 84.492188 270.429688 83.667969 C 270.28125 83.460938 270.277344 83.183594 270.410156 82.96875 L 272.777344 79.171875 L 270.25 76.667969 L 266.476562 79.085938 C 266.261719 79.222656 265.988281 79.21875 265.777344 79.074219 C 264.929688 78.496094 264.03125 77.984375 263.105469 77.550781 C 262.875 77.445312 262.730469 77.210938 262.742188 76.957031 L 262.894531 72.476562 L 259.453125 71.574219 L 257.394531 75.546875 C 257.277344 75.773438 257.035156 75.90625 256.785156 75.886719 C 255.777344 75.808594 254.742188 75.816406 253.707031 75.910156 C 253.453125 75.933594 253.210938 75.804688 253.09375 75.578125 L 250.984375 71.621094 L 247.554688 72.558594 L 247.757812 77.039062 C 247.773438 77.292969 247.628906 77.527344 247.402344 77.636719 C 246.464844 78.082031 245.566406 78.605469 244.742188 79.1875 C 244.53125 79.332031 244.257812 79.339844 244.042969 79.207031 L 240.246094 76.832031 L 237.746094 79.363281 L 240.160156 83.140625 C 240.296875 83.351562 240.292969 83.628906 240.152344 83.839844 C 239.570312 84.679688 239.058594 85.578125 238.628906 86.507812 C 238.519531 86.738281 238.28125 86.878906 238.035156 86.871094 L 233.550781 86.71875 L 232.648438 90.15625 L 236.625 92.21875 C 236.851562 92.335938 236.984375 92.574219 236.964844 92.832031 C 236.886719 93.835938 236.890625 94.871094 236.984375 95.90625 C 237.007812 96.160156 236.878906 96.402344 236.652344 96.523438 L 232.695312 98.625 L 233.636719 102.058594 L 238.109375 101.851562 C 238.367188 101.84375 238.605469 101.984375 238.710938 102.214844 C 239.160156 103.152344 239.683594 104.050781 240.257812 104.871094 C 240.40625 105.078125 240.414062 105.355469 240.277344 105.570312 L 237.910156 109.367188 L 240.4375 111.867188 L 244.214844 109.453125 C 244.429688 109.316406 244.707031 109.320312 244.914062 109.464844 C 245.757812 110.042969 246.65625 110.554688 247.582031 110.988281 C 247.8125 111.09375 247.957031 111.328125 247.949219 111.582031 Z M 251.566406 118.339844 C 251.511719 118.339844 251.457031 118.332031 251.402344 118.316406 L 246.984375 117.160156 C 246.699219 117.082031 246.503906 116.824219 246.511719 116.527344 L 246.671875 111.953125 C 245.9375 111.59375 245.226562 111.1875 244.546875 110.742188 L 240.691406 113.207031 C 240.445312 113.367188 240.117188 113.332031 239.90625 113.125 L 236.660156 109.914062 C 236.449219 109.703125 236.414062 109.378906 236.566406 109.128906 L 238.988281 105.253906 C 238.539062 104.582031 238.128906 103.875 237.757812 103.136719 L 233.1875 103.34375 C 232.886719 103.355469 232.625 103.164062 232.546875 102.878906 L 231.339844 98.472656 C 231.261719 98.1875 231.394531 97.886719 231.65625 97.75 L 235.695312 95.597656 C 235.632812 94.777344 235.628906 93.957031 235.675781 93.152344 L 231.617188 91.050781 C 231.355469 90.914062 231.222656 90.613281 231.296875 90.328125 L 232.453125 85.910156 C 232.53125 85.621094 232.789062 85.425781 233.089844 85.4375 L 237.660156 85.59375 C 238.019531 84.863281 238.425781 84.152344 238.871094 83.472656 L 236.40625 79.617188 C 236.246094 79.367188 236.28125 79.042969 236.492188 78.832031 L 239.703125 75.585938 C 239.910156 75.375 240.234375 75.335938 240.484375 75.492188 L 244.359375 77.910156 C 245.035156 77.464844 245.742188 77.050781 246.476562 76.679688 L 246.269531 72.109375 C 246.253906 71.816406 246.449219 71.550781 246.734375 71.472656 L 251.140625 70.265625 C 251.425781 70.1875 251.726562 70.316406 251.867188 70.578125 L 254.015625 74.617188 C 254.835938 74.558594 255.65625 74.550781 256.460938 74.597656 L 258.566406 70.542969 C 258.699219 70.277344 259 70.144531 259.285156 70.222656 L 263.707031 71.378906 C 263.992188 71.457031 264.1875 71.71875 264.179688 72.011719 L 264.019531 76.585938 C 264.75 76.945312 265.460938 77.351562 266.140625 77.796875 L 269.996094 75.332031 C 270.246094 75.171875 270.574219 75.207031 270.78125 75.414062 L 274.027344 78.625 C 274.242188 78.835938 274.28125 79.160156 274.121094 79.410156 L 271.703125 83.289062 C 272.152344 83.957031 272.566406 84.667969 272.933594 85.402344 L 277.503906 85.195312 C 277.804688 85.1875 278.0625 85.375 278.140625 85.660156 L 279.347656 90.0625 C 279.425781 90.351562 279.296875 90.652344 279.035156 90.792969 L 275 92.941406 C 275.054688 93.761719 275.0625 94.582031 275.015625 95.386719 L 279.070312 97.488281 C 279.335938 97.625 279.46875 97.925781 279.390625 98.210938 L 278.234375 102.628906 C 278.160156 102.917969 277.90625 103.121094 277.601562 103.101562 L 273.027344 102.945312 C 272.667969 103.675781 272.261719 104.386719 271.820312 105.066406 L 274.28125 108.921875 C 274.441406 109.171875 274.40625 109.496094 274.199219 109.707031 L 270.988281 112.953125 C 270.78125 113.164062 270.453125 113.203125 270.203125 113.046875 L 266.328125 110.628906 C 265.65625 111.074219 264.949219 111.488281 264.214844 111.859375 L 264.421875 116.429688 C 264.433594 116.722656 264.238281 116.988281 263.953125 117.066406 L 259.550781 118.273438 C 259.265625 118.351562 258.960938 118.21875 258.824219 117.960938 L 256.675781 113.921875 C 255.855469 113.980469 255.035156 113.984375 254.226562 113.941406 L 252.125 117.996094 C 252.015625 118.210938 251.796875 118.339844 251.566406 118.339844 " fill-opacity="1" fill-rule="nonzero"/><path fill="#5ca3ff" d="M 320.402344 72.816406 C 309.6875 75.75 298.617188 69.441406 295.683594 58.722656 C 292.75 48.003906 299.058594 36.9375 309.777344 34.003906 C 320.496094 31.070312 331.5625 37.378906 334.496094 48.09375 C 337.433594 58.816406 331.121094 69.878906 320.402344 72.816406 Z M 355.121094 46.5 L 353.054688 38.964844 L 344.527344 39.351562 C 343.738281 37.691406 342.824219 36.113281 341.789062 34.644531 L 346.304688 27.414062 L 340.746094 21.914062 L 333.554688 26.515625 C 332.054688 25.488281 330.476562 24.585938 328.828125 23.820312 L 329.121094 15.289062 L 321.5625 13.308594 L 317.636719 20.878906 C 315.84375 20.734375 314.023438 20.75 312.195312 20.914062 L 308.183594 13.378906 L 300.644531 15.445312 L 301.03125 23.972656 C 299.371094 24.761719 297.796875 25.679688 296.324219 26.710938 L 289.09375 22.195312 L 283.59375 27.753906 L 288.199219 34.949219 C 287.167969 36.445312 286.265625 38.023438 285.5 39.671875 L 276.96875 39.378906 L 274.988281 46.9375 L 282.558594 50.863281 C 282.414062 52.65625 282.429688 54.476562 282.59375 56.308594 L 275.058594 60.320312 L 277.125 67.855469 L 285.652344 67.46875 C 286.441406 69.128906 287.359375 70.703125 288.390625 72.175781 L 283.878906 79.40625 L 289.433594 84.902344 L 296.628906 80.304688 C 298.125 81.332031 299.707031 82.234375 301.351562 83 L 301.058594 91.53125 L 308.621094 93.511719 L 312.542969 85.941406 C 314.335938 86.085938 316.160156 86.070312 317.988281 85.902344 L 322 93.441406 L 329.539062 91.375 L 329.148438 82.847656 C 330.808594 82.058594 332.382812 81.140625 333.859375 80.109375 L 341.085938 84.621094 L 346.582031 79.066406 L 341.984375 71.871094 C 343.011719 70.375 343.914062 68.792969 344.679688 67.148438 L 353.210938 67.441406 L 355.191406 59.882812 L 347.625 55.957031 C 347.765625 54.164062 347.75 52.34375 347.585938 50.511719 L 355.121094 46.5 " fill-opacity="1" fill-rule="nonzero"/><path fill="#000000" d="M 311.742188 32.019531 C 310.042969 32.019531 308.316406 32.242188 306.601562 32.710938 C 301.582031 34.089844 297.398438 37.335938 294.816406 41.855469 C 292.238281 46.378906 291.578125 51.632812 292.953125 56.652344 C 295.789062 67.019531 306.53125 73.140625 316.894531 70.304688 L 317.0625 70.914062 L 316.894531 70.304688 C 327.257812 67.464844 333.382812 56.726562 330.542969 46.363281 C 328.175781 37.714844 320.304688 32.019531 311.742188 32.019531 Z M 311.753906 72.265625 C 302.632812 72.265625 294.253906 66.199219 291.730469 56.988281 C 290.265625 51.640625 290.972656 46.042969 293.71875 41.230469 C 296.464844 36.414062 300.917969 32.953125 306.265625 31.492188 C 317.304688 28.464844 328.742188 34.992188 331.765625 46.027344 C 334.789062 57.066406 328.265625 68.503906 317.230469 71.523438 C 315.402344 72.027344 313.5625 72.265625 311.753906 72.265625 Z M 298.367188 89.144531 L 304.949219 90.871094 L 308.640625 83.75 C 308.757812 83.523438 308.996094 83.390625 309.253906 83.410156 C 310.992188 83.546875 312.789062 83.535156 314.589844 83.371094 C 314.84375 83.351562 315.085938 83.480469 315.203125 83.703125 L 318.976562 90.792969 L 325.542969 88.996094 L 325.175781 80.972656 C 325.164062 80.71875 325.308594 80.484375 325.535156 80.375 C 327.164062 79.597656 328.71875 78.695312 330.148438 77.6875 C 330.359375 77.539062 330.632812 77.535156 330.847656 77.667969 L 337.652344 81.914062 L 342.4375 77.078125 L 338.109375 70.3125 C 337.972656 70.097656 337.976562 69.824219 338.121094 69.613281 C 339.125 68.148438 340.011719 66.589844 340.761719 64.980469 C 340.871094 64.746094 341.105469 64.601562 341.355469 64.613281 L 349.386719 64.890625 L 351.109375 58.308594 L 343.988281 54.617188 C 343.765625 54.5 343.632812 54.261719 343.648438 54.007812 C 343.785156 52.257812 343.773438 50.464844 343.613281 48.667969 C 343.589844 48.414062 343.71875 48.171875 343.945312 48.050781 L 351.03125 44.277344 L 349.234375 37.714844 L 341.214844 38.078125 C 340.960938 38.089844 340.722656 37.949219 340.613281 37.71875 C 339.835938 36.09375 338.933594 34.539062 337.925781 33.105469 C 337.78125 32.898438 337.773438 32.625 337.90625 32.40625 L 342.152344 25.601562 L 337.316406 20.820312 L 330.550781 25.148438 C 330.335938 25.285156 330.0625 25.28125 329.851562 25.136719 C 328.390625 24.132812 326.828125 23.242188 325.21875 22.496094 C 324.988281 22.386719 324.84375 22.152344 324.851562 21.898438 L 325.128906 13.871094 L 318.546875 12.144531 L 314.855469 19.265625 C 314.738281 19.492188 314.496094 19.625 314.246094 19.605469 C 312.496094 19.46875 310.703125 19.480469 308.910156 19.644531 C 308.652344 19.667969 308.410156 19.535156 308.289062 19.3125 L 304.519531 12.222656 L 297.953125 14.019531 L 298.320312 22.042969 C 298.332031 22.296875 298.191406 22.535156 297.960938 22.640625 C 296.332031 23.417969 294.777344 24.320312 293.347656 25.328125 C 293.136719 25.472656 292.863281 25.484375 292.648438 25.347656 L 285.84375 21.097656 L 281.058594 25.9375 L 285.386719 32.703125 C 285.523438 32.917969 285.519531 33.195312 285.375 33.402344 C 284.371094 34.867188 283.484375 36.429688 282.734375 38.039062 C 282.628906 38.269531 282.386719 38.414062 282.136719 38.402344 L 274.109375 38.125 L 272.386719 44.707031 L 279.503906 48.398438 C 279.730469 48.515625 279.867188 48.753906 279.847656 49.007812 C 279.707031 50.753906 279.722656 52.550781 279.882812 54.351562 C 279.90625 54.601562 279.773438 54.84375 279.550781 54.964844 L 272.460938 58.738281 L 274.257812 65.300781 L 282.28125 64.9375 C 282.527344 64.921875 282.773438 65.066406 282.882812 65.296875 C 283.65625 66.925781 284.558594 68.476562 285.570312 69.910156 C 285.714844 70.117188 285.722656 70.394531 285.585938 70.609375 L 281.339844 77.410156 L 286.175781 82.195312 L 292.945312 77.867188 C 293.15625 77.730469 293.433594 77.738281 293.644531 77.878906 C 295.109375 78.886719 296.667969 79.773438 298.277344 80.519531 C 298.507812 80.628906 298.652344 80.863281 298.644531 81.117188 Z M 305.277344 92.242188 C 305.222656 92.242188 305.167969 92.234375 305.117188 92.222656 L 297.554688 90.242188 C 297.269531 90.164062 297.074219 89.90625 297.085938 89.605469 L 297.363281 81.488281 C 295.953125 80.8125 294.578125 80.03125 293.277344 79.160156 L 286.433594 83.535156 C 286.183594 83.695312 285.859375 83.660156 285.648438 83.453125 L 280.089844 77.957031 C 279.882812 77.746094 279.84375 77.421875 280 77.171875 L 284.292969 70.289062 C 283.417969 69.011719 282.621094 67.644531 281.921875 66.21875 L 273.808594 66.589844 C 273.511719 66.605469 273.25 66.410156 273.171875 66.125 L 271.109375 58.582031 C 271.03125 58.296875 271.160156 57.996094 271.421875 57.859375 L 278.585938 54.042969 C 278.464844 52.460938 278.453125 50.878906 278.550781 49.332031 L 271.351562 45.601562 C 271.089844 45.460938 270.957031 45.164062 271.03125 44.878906 L 273.011719 37.316406 C 273.089844 37.03125 273.347656 36.820312 273.648438 36.84375 L 281.765625 37.125 C 282.445312 35.710938 283.226562 34.339844 284.097656 33.035156 L 279.71875 26.191406 C 279.5625 25.941406 279.59375 25.617188 279.804688 25.40625 L 285.300781 19.851562 C 285.507812 19.640625 285.835938 19.601562 286.085938 19.757812 L 292.960938 24.054688 C 294.246094 23.179688 295.613281 22.382812 297.035156 21.679688 L 296.667969 13.570312 C 296.652344 13.273438 296.847656 13.011719 297.132812 12.929688 L 304.671875 10.867188 C 304.957031 10.789062 305.257812 10.917969 305.398438 11.179688 L 309.214844 18.347656 C 310.792969 18.226562 312.375 18.214844 313.925781 18.3125 L 317.65625 11.113281 C 317.792969 10.851562 318.09375 10.714844 318.378906 10.792969 L 325.941406 12.773438 C 326.226562 12.851562 326.421875 13.113281 326.410156 13.410156 L 326.132812 21.527344 C 327.546875 22.207031 328.914062 22.984375 330.21875 23.855469 L 337.0625 19.480469 C 337.3125 19.320312 337.636719 19.355469 337.847656 19.5625 L 343.40625 25.0625 C 343.613281 25.265625 343.652344 25.59375 343.496094 25.84375 L 339.203125 32.726562 C 340.078125 34.003906 340.871094 35.371094 341.570312 36.796875 L 349.6875 36.429688 C 349.996094 36.417969 350.246094 36.609375 350.324219 36.894531 L 352.386719 44.433594 C 352.464844 44.71875 352.335938 45.019531 352.074219 45.15625 L 344.90625 48.972656 C 345.03125 50.554688 345.042969 52.136719 344.941406 53.6875 L 352.144531 57.417969 C 352.40625 57.554688 352.535156 57.855469 352.460938 58.140625 L 350.480469 65.699219 C 350.40625 65.984375 350.132812 66.183594 349.847656 66.171875 L 341.730469 65.890625 C 341.050781 67.304688 340.265625 68.679688 339.398438 69.980469 L 343.777344 76.824219 C 343.9375 77.074219 343.902344 77.398438 343.691406 77.609375 L 338.195312 83.164062 C 337.988281 83.378906 337.660156 83.414062 337.410156 83.257812 L 330.53125 78.960938 C 329.25 79.835938 327.886719 80.632812 326.457031 81.335938 L 326.824219 89.445312 C 326.839844 89.742188 326.648438 90.007812 326.363281 90.085938 L 318.824219 92.148438 C 318.539062 92.226562 318.234375 92.097656 318.097656 91.832031 L 314.285156 84.667969 C 312.699219 84.789062 311.117188 84.804688 309.574219 84.703125 L 305.839844 91.902344 C 305.726562 92.117188 305.507812 92.242188 305.277344 92.242188 " fill-opacity="1" fill-rule="nonzero"/><path fill="#000000" d="M 41.113281 89.511719 C 41.015625 89.511719 40.921875 89.488281 40.828125 89.441406 C 40.515625 89.285156 40.390625 88.90625 40.546875 88.589844 C 47.785156 74.21875 57.132812 61.042969 68.335938 49.429688 C 79.554688 37.792969 92.40625 27.96875 106.53125 20.222656 C 106.835938 20.054688 107.222656 20.167969 107.390625 20.472656 C 107.558594 20.777344 107.445312 21.164062 107.140625 21.332031 C 78.839844 36.855469 56.203125 60.308594 41.679688 89.160156 C 41.566406 89.382812 41.34375 89.511719 41.113281 89.511719 " fill-opacity="1" fill-rule="nonzero"/><path fill="#000000" d="M 89.097656 289.011719 C 88.96875 289.011719 88.835938 288.96875 88.722656 288.886719 C 49.402344 259.972656 25.710938 215.453125 23.726562 166.742188 C 23.710938 166.390625 23.984375 166.097656 24.332031 166.082031 C 24.675781 166.0625 24.976562 166.339844 24.988281 166.691406 C 26.957031 215.015625 50.460938 259.183594 89.472656 287.867188 C 89.753906 288.074219 89.816406 288.472656 89.609375 288.753906 C 89.484375 288.921875 89.292969 289.011719 89.097656 289.011719 " fill-opacity="1" fill-rule="nonzero"/><path fill="#000000" d="M 334.878906 219.238281 C 334.804688 219.238281 334.730469 219.222656 334.65625 219.195312 C 334.328125 219.070312 334.164062 218.707031 334.289062 218.378906 C 343.394531 194.460938 342.90625 164.789062 340.894531 144.105469 C 338.707031 121.675781 334.3125 104.707031 334.265625 104.539062 C 334.179688 104.203125 334.382812 103.855469 334.71875 103.769531 C 335.058594 103.679688 335.402344 103.882812 335.492188 104.21875 C 335.539062 104.390625 339.957031 121.453125 342.152344 143.984375 C 344.175781 164.800781 344.664062 194.679688 335.472656 218.828125 C 335.375 219.082031 335.132812 219.238281 334.878906 219.238281 " fill-opacity="1" fill-rule="nonzero"/><path fill="#000000" d="M 100.800781 291.4375 C 98.628906 291.4375 96.863281 293.207031 96.863281 295.375 C 96.863281 297.546875 98.628906 299.3125 100.800781 299.3125 C 102.972656 299.3125 104.738281 297.546875 104.738281 295.375 C 104.738281 293.207031 102.972656 291.4375 100.800781 291.4375 Z M 100.800781 300.578125 C 97.933594 300.578125 95.597656 298.246094 95.597656 295.375 C 95.597656 292.507812 97.933594 290.171875 100.800781 290.171875 C 103.671875 290.171875 106.003906 292.507812 106.003906 295.375 C 106.003906 298.246094 103.671875 300.578125 100.800781 300.578125 " fill-opacity="1" fill-rule="nonzero"/><path fill="#000000" d="M 334.125 226.015625 L 334.128906 226.015625 Z M 332.148438 224.335938 C 331.488281 224.335938 330.90625 224.8125 330.796875 225.480469 C 330.738281 225.839844 330.824219 226.199219 331.035156 226.492188 C 331.25 226.789062 331.566406 226.984375 331.929688 227.042969 C 332.675781 227.164062 333.378906 226.65625 333.5 225.914062 C 333.554688 225.558594 333.472656 225.199219 333.261719 224.90625 C 333.046875 224.605469 332.730469 224.410156 332.367188 224.355469 C 332.292969 224.34375 332.21875 224.335938 332.148438 224.335938 Z M 332.148438 228.324219 C 332.011719 228.324219 331.871094 228.316406 331.726562 228.292969 C 331.03125 228.179688 330.421875 227.804688 330.007812 227.230469 C 329.597656 226.664062 329.433594 225.96875 329.546875 225.277344 C 329.777344 223.847656 331.132812 222.871094 332.570312 223.105469 C 333.265625 223.214844 333.875 223.59375 334.285156 224.164062 C 334.699219 224.730469 334.863281 225.425781 334.75 226.117188 C 334.539062 227.40625 333.417969 228.324219 332.148438 228.324219 " fill-opacity="1" fill-rule="nonzero"/><path fill="#000000" d="M 30.066406 166.464844 L 30.472656 169.933594 L 33.082031 167.683594 C 32.351562 167.367188 31.253906 166.910156 30.066406 166.464844 Z M 29.984375 171.828125 C 29.910156 171.828125 29.832031 171.8125 29.757812 171.785156 C 29.539062 171.699219 29.382812 171.5 29.355469 171.269531 L 28.6875 165.59375 C 28.664062 165.375 28.75 165.160156 28.921875 165.023438 C 29.09375 164.886719 29.324219 164.847656 29.527344 164.921875 C 32.042969 165.808594 34.492188 166.917969 34.515625 166.929688 C 34.714844 167.015625 34.851562 167.199219 34.882812 167.414062 C 34.914062 167.628906 34.832031 167.839844 34.671875 167.984375 L 30.398438 171.675781 C 30.28125 171.773438 30.136719 171.828125 29.984375 171.828125 " fill-opacity="1" fill-rule="nonzero"/><path fill="#000000" d="M 47.855469 62.679688 C 47.789062 62.679688 47.71875 62.679688 47.652344 62.675781 C 47.300781 62.671875 47.023438 62.386719 47.027344 62.035156 C 47.03125 61.6875 47.316406 61.410156 47.660156 61.410156 C 47.664062 61.410156 47.667969 61.410156 47.667969 61.410156 C 49.578125 61.441406 50.839844 61.054688 51.316406 60.300781 C 51.796875 59.542969 51.453125 58.4375 51.125 57.371094 C 50.742188 56.136719 50.347656 54.863281 51.148438 53.894531 C 51.960938 52.914062 53.332031 53.09375 54.542969 53.253906 C 55.582031 53.390625 56.566406 53.519531 57.042969 53.011719 C 57.601562 52.410156 57.316406 51.136719 57.039062 49.90625 C 56.714844 48.480469 56.382812 47.007812 57.375 46.195312 C 58.140625 45.570312 59.074219 45.851562 59.894531 46.101562 C 60.621094 46.320312 61.308594 46.527344 61.851562 46.199219 C 62.367188 45.886719 62.472656 45.277344 62.617188 44.21875 C 62.738281 43.324219 62.890625 42.210938 63.511719 41.125 C 64.609375 39.203125 66.871094 37.917969 70.234375 37.3125 C 70.578125 37.253906 70.90625 37.480469 70.96875 37.820312 C 71.03125 38.167969 70.800781 38.496094 70.457031 38.558594 C 67.484375 39.09375 65.515625 40.171875 64.609375 41.753906 C 64.109375 42.625 63.988281 43.523438 63.871094 44.390625 C 63.71875 45.496094 63.5625 46.644531 62.507812 47.28125 C 61.480469 47.902344 60.398438 47.574219 59.53125 47.3125 C 58.839844 47.105469 58.402344 46.988281 58.175781 47.175781 C 57.789062 47.492188 58.046875 48.625 58.273438 49.628906 C 58.605469 51.109375 58.984375 52.789062 57.96875 53.875 C 57.046875 54.859375 55.628906 54.675781 54.378906 54.511719 C 53.40625 54.382812 52.488281 54.261719 52.125 54.703125 C 51.757812 55.140625 52.039062 56.042969 52.332031 56.992188 C 52.730469 58.273438 53.179688 59.726562 52.386719 60.976562 C 51.660156 62.121094 50.179688 62.679688 47.855469 62.679688 " fill-opacity="1" fill-rule="nonzero"/><path fill="#000000" d="M 92.433594 284.867188 C 92.320312 284.867188 92.203125 284.835938 92.097656 284.769531 C 71.660156 271.960938 59.929688 250.960938 59.8125 250.75 C 59.644531 250.445312 59.757812 250.058594 60.0625 249.890625 C 60.367188 249.71875 60.753906 249.832031 60.921875 250.136719 C 61.035156 250.347656 72.621094 271.066406 92.769531 283.699219 C 93.066406 283.882812 93.15625 284.273438 92.972656 284.570312 C 92.851562 284.761719 92.644531 284.867188 92.433594 284.867188 " fill-opacity="1" fill-rule="nonzero"/><path fill="#000000" d="M 348.050781 188.980469 C 348.011719 188.980469 347.972656 188.976562 347.933594 188.96875 C 347.589844 188.902344 347.363281 188.574219 347.429688 188.230469 C 352.515625 161.128906 344.71875 126.449219 344.640625 126.101562 C 344.5625 125.761719 344.773438 125.425781 345.117188 125.34375 C 345.457031 125.265625 345.796875 125.480469 345.875 125.820312 C 345.953125 126.171875 353.808594 161.105469 348.671875 188.464844 C 348.613281 188.765625 348.347656 188.980469 348.050781 188.980469 " fill-opacity="1" fill-rule="nonzero"/></svg>