<svg xmlns="http://www.w3.org/2000/svg" xmlns:xlink="http://www.w3.org/1999/xlink" width="500" zoomAndPan="magnify" viewBox="0 0 375 374.999991" height="500" preserveAspectRatio="xMidYMid meet" version="1.0"><defs><clipPath id="a64b4964a7"><path d="M 230 238 L 232.660156 238 L 232.660156 243 L 230 243 Z M 230 238 " clip-rule="nonzero"/></clipPath><clipPath id="1c02b15ecc"><path d="M 224.410156 238 L 227 238 L 227 243 L 224.410156 243 Z M 224.410156 238 " clip-rule="nonzero"/></clipPath><clipPath id="d7a3ac575e"><path d="M 227 237.644531 L 230 237.644531 L 230 243.644531 L 227 243.644531 Z M 227 237.644531 " clip-rule="nonzero"/></clipPath><clipPath id="90dfcc6265"><path d="M 37.5 0 L 341.25 0 L 341.25 303.75 L 37.5 303.75 Z M 37.5 0 " clip-rule="nonzero"/></clipPath></defs><g clip-path="url(#a64b4964a7)"><path fill="#000000" d="M 230.371094 242.878906 C 230.324219 242.878906 230.273438 242.859375 230.238281 242.824219 C 230.164062 242.75 230.164062 242.632812 230.238281 242.5625 L 232.199219 240.65625 L 230.238281 238.753906 C 230.164062 238.679688 230.164062 238.5625 230.238281 238.492188 C 230.3125 238.417969 230.433594 238.417969 230.507812 238.492188 L 232.601562 240.527344 C 232.640625 240.5625 232.660156 240.609375 232.660156 240.65625 C 232.660156 240.707031 232.640625 240.753906 232.601562 240.789062 L 230.507812 242.824219 C 230.46875 242.859375 230.421875 242.878906 230.371094 242.878906 Z M 230.371094 242.878906 " fill-opacity="1" fill-rule="nonzero"/></g><g clip-path="url(#1c02b15ecc)"><path fill="#000000" d="M 226.699219 242.878906 C 226.648438 242.878906 226.601562 242.859375 226.5625 242.824219 L 224.46875 240.789062 C 224.433594 240.753906 224.410156 240.707031 224.410156 240.65625 C 224.410156 240.609375 224.433594 240.5625 224.46875 240.527344 L 226.5625 238.492188 C 226.636719 238.417969 226.757812 238.417969 226.832031 238.492188 C 226.910156 238.5625 226.910156 238.679688 226.832031 238.753906 L 224.875 240.65625 L 226.832031 242.5625 C 226.910156 242.632812 226.910156 242.75 226.832031 242.824219 C 226.796875 242.859375 226.746094 242.878906 226.699219 242.878906 Z M 226.699219 242.878906 " fill-opacity="1" fill-rule="nonzero"/></g><g clip-path="url(#d7a3ac575e)"><path fill="#000000" d="M 227.398438 243.644531 C 227.375 243.644531 227.351562 243.640625 227.328125 243.632812 C 227.226562 243.59375 227.179688 243.488281 227.21875 243.390625 L 229.496094 237.785156 C 229.535156 237.691406 229.644531 237.644531 229.746094 237.683594 C 229.84375 237.71875 229.890625 237.828125 229.851562 237.921875 L 227.574219 243.527344 C 227.546875 243.601562 227.472656 243.644531 227.398438 243.644531 Z M 227.398438 243.644531 " fill-opacity="1" fill-rule="nonzero"/></g><g clip-path="url(#90dfcc6265)"><path fill="#5170ff" d="M 189.324219 303.644531 C 105.820312 303.644531 37.5 235.324219 37.5 151.824219 C 37.5 68.320312 105.820312 0 189.324219 0 C 272.824219 0 341.144531 68.320312 341.144531 151.824219 C 341.144531 235.324219 272.824219 303.644531 189.324219 303.644531 Z M 189.324219 303.644531 " fill-opacity="1" fill-rule="nonzero"/></g><path fill="#dd695a" d="M 153.480469 115.390625 L 147.101562 149.03125 L 161.292969 151.839844 L 166.910156 115.769531 Z M 153.480469 115.390625 " fill-opacity="1" fill-rule="evenodd"/><path fill="#5f9ded" d="M 168.066406 80.707031 L 161.242188 84.386719 L 146.695312 122.929688 L 162.246094 140.957031 Z M 168.066406 80.707031 " fill-opacity="1" fill-rule="evenodd"/><path fill="#1d083e" d="M 182.121094 347.609375 C 182.121094 347.609375 182.238281 364.59375 182.28125 371.09375 C 182.289062 371.777344 182.050781 372.363281 181.566406 372.847656 C 181.085938 373.335938 180.507812 373.578125 179.824219 373.582031 L 140.40625 373.582031 C 140.210938 373.589844 140.023438 373.558594 139.839844 373.496094 C 139.65625 373.433594 139.492188 373.339844 139.339844 373.21875 C 139.191406 373.09375 139.066406 372.949219 138.96875 372.78125 C 138.871094 372.613281 138.804688 372.433594 138.773438 372.242188 C 138.386719 369 138.851562 360.914062 152.390625 357.648438 C 152.390625 357.648438 161.621094 355.398438 162.046875 342.152344 L 182.210938 342.390625 Z M 182.121094 347.609375 " fill-opacity="1" fill-rule="evenodd"/><path fill="#e2e9fc" d="M 140.050781 369.863281 C 139.34375 369.871094 138.746094 370.128906 138.257812 370.636719 C 137.769531 371.148438 137.527344 371.753906 137.535156 372.460938 C 137.542969 372.800781 137.613281 373.125 137.75 373.433594 C 137.882812 373.742188 138.074219 374.015625 138.316406 374.25 C 138.558594 374.484375 138.839844 374.664062 139.152344 374.789062 C 139.464844 374.914062 139.792969 374.976562 140.128906 374.972656 L 180.894531 374.238281 C 181.246094 374.253906 181.585938 374.195312 181.914062 374.070312 C 182.242188 373.945312 182.535156 373.757812 182.785156 373.511719 C 183.039062 373.265625 183.230469 372.980469 183.363281 372.652344 C 183.5 372.328125 183.5625 371.988281 183.554688 371.636719 C 183.550781 371.28125 183.472656 370.945312 183.328125 370.625 C 183.183594 370.304688 182.980469 370.023438 182.71875 369.785156 C 182.460938 369.550781 182.164062 369.375 181.832031 369.257812 C 181.496094 369.144531 181.15625 369.101562 180.804688 369.128906 Z M 140.050781 369.863281 " fill-opacity="1" fill-rule="evenodd"/><path fill="#e2e9fc" d="M 162.046875 357.261719 C 161.878906 357.261719 161.730469 357.214844 161.589844 357.125 L 160.90625 356.65625 C 159.816406 355.855469 158.628906 355.242188 157.34375 354.824219 C 157.132812 354.738281 156.984375 354.597656 156.894531 354.390625 C 156.804688 354.183594 156.800781 353.976562 156.882812 353.765625 C 156.964844 353.554688 157.109375 353.40625 157.3125 353.316406 C 157.519531 353.226562 157.726562 353.222656 157.9375 353.304688 C 159.339844 353.753906 160.632812 354.414062 161.816406 355.289062 L 162.5 355.746094 C 162.648438 355.84375 162.753906 355.980469 162.8125 356.148438 C 162.875 356.316406 162.875 356.488281 162.824219 356.660156 C 162.773438 356.828125 162.671875 356.96875 162.53125 357.074219 C 162.386719 357.179688 162.226562 357.234375 162.046875 357.234375 Z M 162.046875 357.261719 " fill-opacity="1" fill-rule="nonzero"/><path fill="#e2e9fc" d="M 159.835938 359.046875 C 159.65625 359.046875 159.496094 358.988281 159.351562 358.878906 C 159.046875 358.640625 158.796875 358.433594 158.570312 358.246094 C 157.582031 357.371094 156.449219 356.765625 155.171875 356.429688 C 154.949219 356.363281 154.785156 356.230469 154.679688 356.023438 C 154.570312 355.816406 154.554688 355.605469 154.628906 355.386719 C 154.703125 355.164062 154.847656 355.007812 155.058594 354.910156 C 155.269531 354.8125 155.480469 354.804688 155.699219 354.890625 C 157.179688 355.285156 158.5 355.988281 159.660156 356.996094 C 159.867188 357.171875 160.09375 357.371094 160.371094 357.582031 C 160.550781 357.71875 160.652344 357.898438 160.683594 358.117188 C 160.714844 358.339844 160.664062 358.542969 160.53125 358.722656 C 160.355469 358.949219 160.125 359.058594 159.835938 359.046875 Z M 159.835938 359.046875 " fill-opacity="1" fill-rule="nonzero"/><path fill="#e2e9fc" d="M 157.09375 360.597656 C 156.894531 360.597656 156.71875 360.53125 156.570312 360.398438 L 155.816406 359.734375 C 154.867188 358.824219 153.757812 358.195312 152.488281 357.847656 C 152.292969 357.757812 152.15625 357.617188 152.074219 357.417969 C 151.996094 357.21875 151.992188 357.019531 152.066406 356.820312 C 152.144531 356.621094 152.277344 356.472656 152.46875 356.378906 C 152.660156 356.285156 152.859375 356.269531 153.0625 356.332031 C 154.523438 356.753906 155.808594 357.484375 156.914062 358.523438 C 157.113281 358.710938 157.34375 358.917969 157.617188 359.15625 C 157.792969 359.300781 157.886719 359.488281 157.90625 359.710938 C 157.925781 359.9375 157.863281 360.136719 157.71875 360.308594 C 157.554688 360.496094 157.34375 360.59375 157.09375 360.597656 Z M 157.09375 360.597656 " fill-opacity="1" fill-rule="nonzero"/><path fill="#e2e9fc" d="M 154.351562 362.183594 C 154.15625 362.1875 153.984375 362.125 153.835938 361.996094 C 153.6875 361.875 153.519531 361.726562 153.320312 361.539062 C 152.285156 360.5 151.089844 359.695312 149.734375 359.128906 C 149.527344 359.042969 149.378906 358.898438 149.289062 358.691406 C 149.199219 358.484375 149.195312 358.277344 149.28125 358.066406 C 149.363281 357.855469 149.507812 357.707031 149.714844 357.617188 C 149.921875 357.53125 150.128906 357.527344 150.339844 357.609375 C 151.878906 358.261719 153.242188 359.171875 154.429688 360.347656 C 154.597656 360.496094 154.738281 360.636719 154.867188 360.734375 C 155.039062 360.878906 155.136719 361.0625 155.160156 361.289062 C 155.179688 361.511719 155.121094 361.710938 154.976562 361.886719 C 154.8125 362.085938 154.605469 362.183594 154.351562 362.183594 Z M 154.351562 362.183594 " fill-opacity="1" fill-rule="nonzero"/><path fill="#e2e9fc" d="M 163.957031 355.320312 C 163.792969 355.316406 163.640625 355.269531 163.503906 355.179688 C 160.730469 353.292969 160.730469 353.292969 158.5 352.90625 C 158.28125 352.867188 158.105469 352.757812 157.976562 352.574219 C 157.847656 352.390625 157.800781 352.1875 157.839844 351.964844 C 157.878906 351.746094 157.988281 351.570312 158.171875 351.4375 C 158.355469 351.308594 158.558594 351.261719 158.777344 351.300781 C 161.351562 351.746094 161.589844 351.90625 164.414062 353.839844 C 164.601562 353.964844 164.71875 354.136719 164.761719 354.359375 C 164.804688 354.582031 164.761719 354.785156 164.632812 354.972656 C 164.464844 355.203125 164.242188 355.316406 163.957031 355.320312 Z M 163.957031 355.320312 " fill-opacity="1" fill-rule="nonzero"/><path fill="#e2e9fc" d="M 166.175781 353.503906 C 164.601562 353.503906 162.402344 352.429688 160.472656 349.832031 C 160.339844 349.652344 160.289062 349.449219 160.324219 349.226562 C 160.355469 349.003906 160.460938 348.828125 160.640625 348.691406 C 160.867188 348.527344 161.113281 348.488281 161.382812 348.574219 L 161.324219 348.007812 C 162.691406 347.867188 166.007812 347.71875 167.53125 349.355469 C 167.867188 349.730469 168.097656 350.160156 168.222656 350.648438 C 168.351562 351.136719 168.355469 351.625 168.246094 352.113281 C 168.167969 352.457031 168.003906 352.746094 167.75 352.988281 C 167.496094 353.230469 167.195312 353.378906 166.847656 353.433594 C 166.628906 353.484375 166.402344 353.503906 166.175781 353.503906 Z M 162.34375 349.535156 C 162.792969 350.136719 163.335938 350.640625 163.972656 351.039062 C 164.609375 351.4375 165.296875 351.707031 166.039062 351.847656 C 166.257812 351.882812 166.464844 351.851562 166.660156 351.746094 C 166.785156 351.253906 166.679688 350.816406 166.34375 350.4375 C 165.632812 349.703125 163.898438 349.503906 162.34375 349.5625 Z M 162.34375 349.535156 " fill-opacity="1" fill-rule="nonzero"/><path fill="#e2e9fc" d="M 155.609375 351.835938 C 155.152344 351.84375 154.730469 351.730469 154.339844 351.5 C 153.996094 351.273438 153.734375 350.972656 153.554688 350.601562 C 153.378906 350.230469 153.308594 349.835938 153.351562 349.425781 C 153.582031 348.484375 154.117188 347.769531 154.953125 347.28125 C 156.339844 346.460938 158.183594 346.566406 160.453125 347.609375 C 160.65625 347.703125 160.796875 347.851562 160.871094 348.0625 C 160.949219 348.273438 160.941406 348.480469 160.847656 348.679688 C 160.789062 348.828125 160.691406 348.941406 160.5625 349.027344 C 160.605469 349.195312 160.597656 349.363281 160.535156 349.523438 C 160.472656 349.6875 160.371094 349.816406 160.222656 349.910156 C 158.351562 351.203125 156.808594 351.835938 155.609375 351.835938 Z M 155.003906 349.652344 C 154.996094 349.84375 155.066406 350 155.210938 350.121094 C 155.359375 350.210938 156.203125 350.546875 159.035156 348.769531 C 158.050781 348.304688 157.039062 348.242188 156.003906 348.59375 C 155.546875 348.820312 155.226562 349.175781 155.042969 349.652344 Z M 155.003906 349.652344 " fill-opacity="1" fill-rule="nonzero"/><path fill="#e2e9fc" d="M 173.160156 370.128906 C 172.949219 370.132812 172.769531 370.0625 172.613281 369.925781 C 172.457031 369.785156 172.367188 369.613281 172.347656 369.40625 C 172.125 367.394531 172.457031 365.480469 173.335938 363.660156 C 173.726562 362.929688 174.207031 362.265625 174.78125 361.671875 C 175.355469 361.074219 176 360.570312 176.71875 360.15625 C 177.433594 359.738281 178.191406 359.429688 178.996094 359.230469 C 179.796875 359.027344 180.609375 358.941406 181.4375 358.96875 C 181.664062 358.953125 181.867188 359.015625 182.042969 359.164062 C 182.214844 359.308594 182.316406 359.496094 182.339844 359.722656 C 182.363281 359.941406 182.308594 360.136719 182.167969 360.308594 C 182.027344 360.476562 181.847656 360.570312 181.625 360.585938 L 181.457031 360.585938 C 180.777344 360.558594 180.109375 360.628906 179.449219 360.789062 C 178.792969 360.949219 178.167969 361.199219 177.578125 361.535156 C 176.988281 361.871094 176.453125 362.285156 175.980469 362.769531 C 175.503906 363.257812 175.105469 363.796875 174.78125 364.394531 C 174.039062 365.917969 173.761719 367.523438 173.949219 369.207031 C 173.976562 369.429688 173.921875 369.632812 173.78125 369.808594 C 173.640625 369.984375 173.460938 370.085938 173.238281 370.109375 Z M 173.160156 370.128906 " fill-opacity="1" fill-rule="nonzero"/><path fill="#1d083e" d="M 218.132812 342.90625 C 221.945312 341.042969 227.472656 342.054688 228.472656 342.34375 C 231.304688 343.175781 232.097656 346.082031 234.414062 352.402344 C 239.195312 365.605469 240.871094 373.523438 225.402344 374.128906 C 217.03125 374.457031 210.792969 374.1875 210.207031 368.039062 C 209.59375 361.667969 215.089844 347.34375 217.140625 343.523438 " fill-opacity="1" fill-rule="evenodd"/><path fill="#e2e9fc" d="M 237.535156 367.808594 C 233.078125 368.980469 228.550781 369.636719 223.949219 369.78125 C 219.347656 369.925781 214.785156 369.554688 210.269531 368.664062 C 211.207031 374.207031 217.308594 374.445312 225.382812 374.128906 C 233.234375 373.820312 236.671875 371.628906 237.535156 367.808594 Z M 237.535156 367.808594 " fill-opacity="1" fill-rule="evenodd"/><path fill="#e2e9fc" d="M 224.796875 362.371094 C 223.074219 362.320312 221.359375 362.15625 219.65625 361.886719 C 219.542969 361.878906 219.4375 361.851562 219.335938 361.800781 C 219.234375 361.75 219.148438 361.679688 219.074219 361.589844 C 219.003906 361.503906 218.953125 361.40625 218.921875 361.296875 C 218.890625 361.1875 218.882812 361.078125 218.898438 360.964844 C 218.914062 360.851562 218.949219 360.746094 219.007812 360.652344 C 219.066406 360.554688 219.144531 360.472656 219.238281 360.40625 C 219.328125 360.34375 219.429688 360.296875 219.542969 360.277344 C 219.652344 360.253906 219.765625 360.253906 219.875 360.277344 C 224.132812 360.855469 225.042969 360.765625 226.003906 360.675781 C 226.292969 360.675781 226.589844 360.617188 226.996094 360.605469 C 227.21875 360.597656 227.414062 360.671875 227.578125 360.824219 C 227.742188 360.976562 227.828125 361.164062 227.835938 361.390625 C 227.84375 361.613281 227.773438 361.808594 227.621094 361.972656 C 227.46875 362.140625 227.277344 362.226562 227.054688 362.234375 C 226.71875 362.234375 226.460938 362.234375 226.203125 362.292969 C 225.734375 362.347656 225.265625 362.371094 224.796875 362.371094 Z M 224.796875 362.371094 " fill-opacity="1" fill-rule="nonzero"/><path fill="#e2e9fc" d="M 226.917969 359.804688 L 225.320312 359.742188 C 223.996094 359.742188 223.261719 359.671875 220.289062 359.40625 C 220.179688 359.402344 220.070312 359.378906 219.96875 359.332031 C 219.867188 359.285156 219.777344 359.222656 219.699219 359.136719 C 219.625 359.054688 219.570312 358.957031 219.535156 358.851562 C 219.496094 358.746094 219.484375 358.636719 219.496094 358.523438 C 219.503906 358.410156 219.535156 358.304688 219.589844 358.207031 C 219.644531 358.105469 219.714844 358.023438 219.800781 357.953125 C 219.890625 357.882812 219.988281 357.832031 220.097656 357.804688 C 220.207031 357.777344 220.316406 357.769531 220.429688 357.789062 C 223.402344 358.046875 224.035156 358.066406 225.382812 358.117188 L 226.996094 358.175781 C 227.21875 358.175781 227.410156 358.253906 227.570312 358.414062 C 227.726562 358.574219 227.808594 358.765625 227.808594 358.988281 C 227.808594 359.214844 227.726562 359.40625 227.570312 359.566406 C 227.410156 359.722656 227.21875 359.804688 226.996094 359.804688 Z M 226.917969 359.804688 " fill-opacity="1" fill-rule="nonzero"/><path fill="#e2e9fc" d="M 226.71875 357.28125 L 226.660156 357.28125 L 225.597656 357.234375 L 224.707031 357.183594 L 220.460938 356.855469 C 220.234375 356.839844 220.050781 356.742188 219.902344 356.570312 C 219.757812 356.402344 219.695312 356.203125 219.710938 355.976562 C 219.730469 355.753906 219.824219 355.570312 219.996094 355.421875 C 220.167969 355.277344 220.363281 355.210938 220.585938 355.230469 L 224.816406 355.566406 L 225.660156 355.566406 C 226.035156 355.566406 226.402344 355.566406 226.777344 355.625 C 226.984375 355.65625 227.152344 355.75 227.285156 355.910156 C 227.421875 356.070312 227.484375 356.253906 227.476562 356.460938 C 227.46875 356.667969 227.390625 356.847656 227.246094 356.996094 C 227.101562 357.148438 226.925781 357.230469 226.71875 357.242188 Z M 226.71875 357.28125 " fill-opacity="1" fill-rule="nonzero"/><path fill="#e2e9fc" d="M 226.3125 354.652344 C 223.550781 354.484375 223.449219 354.476562 220.914062 354.246094 L 220.546875 354.246094 C 220.324219 354.230469 220.136719 354.132812 219.992188 353.960938 C 219.847656 353.789062 219.785156 353.589844 219.804688 353.363281 C 219.828125 353.140625 219.921875 352.957031 220.09375 352.8125 C 220.265625 352.667969 220.464844 352.601562 220.6875 352.621094 L 221.054688 352.621094 C 223.578125 352.839844 223.679688 352.847656 226.410156 353.027344 C 226.636719 353.039062 226.824219 353.128906 226.976562 353.296875 C 227.125 353.464844 227.191406 353.664062 227.175781 353.890625 C 227.15625 354.113281 227.066406 354.300781 226.898438 354.449219 C 226.730469 354.597656 226.535156 354.664062 226.3125 354.652344 Z M 226.3125 354.652344 " fill-opacity="1" fill-rule="nonzero"/><path fill="#e2e9fc" d="M 226.242188 352.105469 L 225.679688 352.105469 C 223.550781 351.925781 223.429688 351.914062 220.992188 351.765625 C 220.769531 351.75 220.585938 351.660156 220.4375 351.492188 C 220.289062 351.324219 220.21875 351.128906 220.230469 350.902344 C 220.242188 350.675781 220.332031 350.488281 220.5 350.339844 C 220.671875 350.1875 220.867188 350.121094 221.09375 350.140625 C 223.550781 350.289062 223.667969 350.296875 225.816406 350.476562 L 226.300781 350.527344 C 226.507812 350.554688 226.679688 350.652344 226.8125 350.808594 C 226.945312 350.96875 227.007812 351.152344 227 351.363281 C 226.992188 351.570312 226.914062 351.75 226.769531 351.898438 C 226.625 352.046875 226.449219 352.128906 226.242188 352.144531 Z M 226.242188 352.105469 " fill-opacity="1" fill-rule="nonzero"/><path fill="#e2e9fc" d="M 229.976562 354.8125 C 229.109375 354.757812 228.363281 354.425781 227.738281 353.820312 C 226.171875 352.246094 224.820312 350.507812 223.679688 348.601562 C 220.597656 352.570312 217.835938 353.898438 216.378906 353.355469 C 216 353.207031 215.710938 352.953125 215.511719 352.597656 C 215.316406 352.238281 215.253906 351.859375 215.328125 351.460938 C 215.664062 348.304688 220.28125 346.699219 222.507812 345.921875 L 222.925781 345.773438 C 223.136719 345.699219 223.34375 345.710938 223.546875 345.804688 C 223.75 345.902344 223.890625 346.058594 223.964844 346.269531 C 223.96875 346.308594 223.96875 346.34375 223.964844 346.378906 L 224.082031 346.4375 C 224.296875 346.339844 224.511719 346.339844 224.726562 346.4375 C 229.5 348.851562 231.808594 350.785156 231.976562 352.539062 C 232.015625 352.902344 231.957031 353.246094 231.808594 353.574219 C 231.65625 353.902344 231.433594 354.167969 231.136719 354.375 C 230.796875 354.652344 230.414062 354.796875 229.976562 354.8125 Z M 225.789062 348.859375 C 226.632812 350.214844 227.625 351.449219 228.757812 352.570312 C 229.253906 353.007812 229.898438 353.324219 230.136719 353.125 C 230.371094 352.925781 230.363281 352.839844 230.351562 352.738281 C 230.351562 352.371094 229.886719 351.113281 225.789062 348.851562 Z M 222.292969 347.730469 C 220.390625 348.414062 217.140625 349.78125 216.941406 351.628906 C 216.929688 351.699219 216.929688 351.765625 216.941406 351.835938 C 217.28125 352.023438 219.398438 351.4375 222.292969 347.71875 Z M 222.292969 347.730469 " fill-opacity="1" fill-rule="nonzero"/><path fill="#343651" d="M 197.769531 219.066406 C 201.5625 253.492188 211.167969 346.976562 211.167969 346.976562 L 237.304688 347.125 L 236.53125 182.4375 L 197.363281 183.964844 L 164.078125 183.023438 L 156.511719 347.628906 L 184.726562 348.097656 C 184.726562 348.097656 193.835938 252.796875 197.769531 219.066406 Z M 197.769531 219.066406 " fill-opacity="1" fill-rule="evenodd"/><path fill="#200a3e" d="M 197.710938 218.71875 C 197.542969 218.71875 197.402344 218.660156 197.28125 218.539062 C 197.164062 218.421875 197.105469 218.28125 197.105469 218.113281 C 197.105469 212.25 196.976562 208.964844 196.898438 206.078125 C 196.796875 202.398438 196.710938 199.222656 196.757812 192.019531 C 196.734375 191.835938 196.785156 191.675781 196.90625 191.535156 C 197.03125 191.398438 197.183594 191.328125 197.367188 191.328125 C 197.554688 191.328125 197.707031 191.398438 197.828125 191.535156 C 197.953125 191.675781 198 191.835938 197.976562 192.019531 C 197.929688 199.214844 197.976562 202.378906 198.117188 206.039062 C 198.195312 208.945312 198.292969 212.230469 198.324219 218.101562 C 198.324219 218.273438 198.265625 218.417969 198.144531 218.539062 C 198.023438 218.65625 197.878906 218.71875 197.710938 218.71875 Z M 197.710938 218.71875 " fill-opacity="1" fill-rule="nonzero"/><path fill="#200a3e" d="M 197.203125 205.164062 C 196.324219 205.152344 195.449219 205.085938 194.582031 204.96875 L 194.332031 204.96875 C 194.164062 204.957031 194.027344 204.886719 193.917969 204.761719 C 193.808594 204.636719 193.757812 204.488281 193.769531 204.320312 C 193.777344 204.15625 193.847656 204.015625 193.972656 203.90625 C 194.097656 203.796875 194.246094 203.746094 194.410156 203.757812 L 194.730469 203.757812 C 199.214844 204.3125 200.207031 203.4375 200.394531 202.863281 C 200.78125 201.714844 201.097656 198.460938 200.453125 189.519531 C 200.421875 189.339844 200.460938 189.179688 200.574219 189.035156 C 200.683594 188.890625 200.832031 188.8125 201.011719 188.796875 C 201.195312 188.785156 201.351562 188.839844 201.484375 188.96875 C 201.613281 189.09375 201.675781 189.25 201.671875 189.429688 C 202.207031 196.871094 202.167969 201.394531 201.550781 203.242188 C 201.046875 204.808594 199.027344 205.164062 197.203125 205.164062 Z M 197.203125 205.164062 " fill-opacity="1" fill-rule="nonzero"/><path fill="#200a3e" d="M 163.738281 203.289062 C 163.457031 203.292969 163.269531 203.160156 163.175781 202.894531 C 163.113281 202.734375 163.121094 202.582031 163.191406 202.425781 C 163.257812 202.273438 163.375 202.167969 163.53125 202.109375 C 175.128906 197.84375 177.871094 189.210938 178.515625 185.710938 C 178.546875 185.542969 178.628906 185.414062 178.769531 185.316406 C 178.90625 185.222656 179.058594 185.1875 179.222656 185.21875 C 179.390625 185.25 179.519531 185.335938 179.617188 185.472656 C 179.710938 185.609375 179.746094 185.761719 179.714844 185.929688 C 179.03125 189.648438 176.140625 198.777344 163.957031 203.261719 C 163.886719 203.28125 163.8125 203.289062 163.738281 203.289062 Z M 163.738281 203.289062 " fill-opacity="1" fill-rule="nonzero"/><path fill="#200a3e" d="M 233.710938 203.695312 L 233.601562 203.695312 C 218.914062 201.136719 214.257812 190.144531 212.933594 185.542969 C 212.886719 185.378906 212.90625 185.222656 212.988281 185.074219 C 213.070312 184.925781 213.195312 184.824219 213.359375 184.777344 C 213.519531 184.730469 213.671875 184.746094 213.816406 184.828125 C 213.964844 184.910156 214.058594 185.03125 214.101562 185.195312 C 215.367188 189.589844 219.796875 200.074219 233.808594 202.496094 C 233.976562 202.523438 234.109375 202.605469 234.207031 202.746094 C 234.304688 202.882812 234.339844 203.035156 234.316406 203.203125 C 234.285156 203.34375 234.210938 203.460938 234.097656 203.554688 C 233.988281 203.648438 233.855469 203.695312 233.710938 203.695312 Z M 233.710938 203.695312 " fill-opacity="1" fill-rule="nonzero"/><path fill="#ec5564" d="M 156.351562 179.015625 L 156.351562 179.351562 C 156.210938 179.183594 156.222656 179.0625 156.351562 179.015625 Z M 211.992188 75.707031 C 212.058594 75.699219 212.128906 75.699219 212.199219 75.707031 C 213.851562 75.957031 215.429688 76.261719 216.921875 76.589844 C 221.640625 77.585938 226.214844 79.03125 230.648438 80.925781 C 230.9375 81.085938 231.054688 81.203125 230.96875 81.253906 L 230.96875 81.433594 C 232.050781 81.898438 233.089844 82.449219 234.085938 83.078125 L 237.058594 172.367188 L 237.394531 180.761719 C 236.195312 181.066406 234.996094 181.355469 233.808594 181.625 C 225.027344 183.601562 216.136719 184.714844 207.136719 184.957031 C 204.980469 185.027344 202.878906 185.035156 200.808594 185.015625 C 197.253906 185.015625 193.878906 184.796875 190.589844 184.539062 C 181.890625 183.828125 173.289062 182.507812 164.78125 180.570312 C 159.886719 179.492188 156.855469 178.714844 156.332031 179.015625 C 156.796875 172.644531 157.410156 165.660156 158.09375 158.457031 C 158.09375 158.328125 158.09375 158.199219 158.09375 158.070312 L 158.09375 157.714844 C 158.171875 156.851562 158.253906 155.996094 158.34375 155.132812 C 158.449219 154.003906 158.570312 152.871094 158.679688 151.730469 C 158.679688 151.492188 158.726562 151.253906 158.757812 151.015625 C 159.214844 146.34375 160.976562 141.640625 161.472656 136.980469 L 163.175781 135.421875 C 163.523438 132.195312 163.285156 129.578125 163.640625 126.492188 C 163.640625 126.492188 161.265625 127.355469 161.273438 127.324219 C 161.730469 123.207031 162.183594 119.191406 162.628906 115.363281 C 164.609375 97.871094 166.382812 84.199219 166.730469 81.453125 C 166.871094 81.402344 167.007812 81.332031 167.136719 81.273438 L 167.363281 81.175781 C 169.789062 80.183594 173.128906 78.902344 176.386719 77.820312 C 177.863281 77.433594 179.359375 77.078125 180.753906 76.769531 C 182.371094 76.425781 183.957031 76.128906 185.507812 75.875 L 185.707031 75.875 C 186.746094 75.707031 187.777344 75.570312 188.796875 75.441406 C 189.816406 75.3125 190.558594 75.242188 191.429688 75.160156 C 191.9375 75.160156 192.421875 75.074219 192.9375 75.042969 C 194.75 74.914062 196.519531 74.84375 198.253906 74.824219 C 200.378906 74.824219 202.4375 74.878906 204.425781 74.984375 L 206.335938 75.121094 C 207.058594 75.191406 207.523438 74.804688 208.21875 74.882812 C 209.484375 74.921875 210.882812 75.527344 211.992188 75.707031 Z M 211.992188 75.707031 " fill-opacity="1" fill-rule="evenodd"/><path fill="#5f9ded" d="M 185.605469 75.847656 L 191.105469 203.828125 L 155.925781 200.234375 C 154.292969 173.765625 159.558594 129.796875 161.105469 132.535156 L 163.929688 83.316406 C 162.976562 82.046875 179.972656 75.796875 185.605469 75.847656 Z M 185.605469 75.847656 " fill-opacity="1" fill-rule="evenodd"/><path fill="#5f9ded" d="M 211.070312 75.539062 L 206.574219 204.28125 L 243.039062 201.246094 C 242.296875 178.953125 238.574219 154.261719 233.820312 133.785156 L 233.769531 132.792969 L 232.71875 82.195312 C 234.316406 81.570312 217.179688 75.71875 211.070312 75.539062 Z M 211.070312 75.539062 " fill-opacity="1" fill-rule="evenodd"/><path fill="#e2e9fc" d="M 198.988281 83.246094 L 193.046875 87.214844 C 193.046875 87.214844 187.398438 80.410156 189.082031 75.011719 C 189.082031 75.011719 191.402344 73.792969 192.789062 75.011719 C 194.175781 76.234375 198.988281 83.246094 198.988281 83.246094 Z M 198.988281 83.246094 " fill-opacity="1" fill-rule="evenodd"/><path fill="#e2e9fc" d="M 198.511719 83.246094 L 204.453125 87.214844 C 204.453125 87.214844 210.070312 80.140625 208.414062 74.746094 C 208.414062 74.625 206.058594 73.574219 204.742188 75.054688 C 203.425781 76.53125 198.511719 83.246094 198.511719 83.246094 Z M 198.511719 83.246094 " fill-opacity="1" fill-rule="evenodd"/><path fill="#f89c87" d="M 206.445312 60.171875 L 206.445312 75.527344 C 206.425781 76.007812 206.363281 76.480469 206.257812 76.945312 C 206.148438 77.414062 205.996094 77.867188 205.800781 78.304688 C 205.605469 78.742188 205.371094 79.15625 205.097656 79.546875 C 204.824219 79.941406 204.511719 80.300781 204.167969 80.632812 C 203.824219 80.96875 203.453125 81.265625 203.050781 81.523438 C 202.648438 81.785156 202.226562 82.003906 201.785156 82.183594 C 201.339844 82.363281 200.882812 82.5 200.414062 82.589844 C 199.945312 82.679688 199.46875 82.726562 198.992188 82.726562 C 198.515625 82.726562 198.039062 82.679688 197.570312 82.589844 C 197.101562 82.5 196.644531 82.363281 196.203125 82.183594 C 195.757812 82.003906 195.335938 81.785156 194.933594 81.523438 C 194.53125 81.265625 194.160156 80.96875 193.816406 80.632812 C 193.472656 80.300781 193.164062 79.941406 192.886719 79.546875 C 192.613281 79.15625 192.378906 78.742188 192.183594 78.304688 C 191.988281 77.867188 191.835938 77.414062 191.726562 76.945312 C 191.621094 76.480469 191.558594 76.007812 191.539062 75.527344 L 191.539062 63.722656 C 192.75 62.265625 194.1875 61.082031 195.847656 60.171875 Z M 206.445312 60.171875 " fill-opacity="1" fill-rule="evenodd"/><path fill="#dd695a" d="M 191.539062 75.3125 L 191.539062 63.722656 C 192.75 62.265625 194.1875 61.082031 195.847656 60.171875 L 206.246094 60.171875 L 205.484375 65.390625 C 204.652344 67.054688 203.265625 70.351562 201.523438 72.214844 C 198.863281 74.984375 195.773438 77.132812 192.253906 78.664062 C 191.761719 77.601562 191.523438 76.484375 191.539062 75.3125 Z M 191.539062 75.3125 " fill-opacity="1" fill-rule="evenodd"/><path fill="#f89c87" d="M 195.222656 72.582031 C 194.472656 72.84375 193.699219 72.988281 192.90625 73.011719 C 192.109375 73.039062 191.328125 72.945312 190.5625 72.730469 C 189.796875 72.515625 189.078125 72.191406 188.410156 71.761719 C 187.742188 71.328125 187.15625 70.804688 186.648438 70.191406 C 183.882812 66.898438 183.011719 61.839844 183.320312 55.925781 C 183.875 45.527344 185.300781 37.074219 195.203125 37.375 C 202.253906 37.609375 207.988281 45.628906 207.988281 55.785156 C 208.007812 58.964844 207.433594 62.035156 206.265625 64.992188 C 205.867188 65.996094 205.246094 66.835938 204.40625 67.511719 C 201.636719 69.734375 198.578125 71.421875 195.222656 72.582031 Z M 195.222656 72.582031 " fill-opacity="1" fill-rule="evenodd"/><path fill="#200a3e" d="M 186.894531 58.148438 C 186.378906 58.109375 185.890625 57.972656 185.429688 57.742188 C 184.96875 57.507812 184.566406 57.199219 184.226562 56.8125 C 183.886719 56.421875 183.628906 55.984375 183.460938 55.496094 C 183.292969 55.007812 183.21875 54.507812 183.246094 53.988281 C 183.273438 53.472656 183.394531 52.980469 183.613281 52.511719 C 183.832031 52.042969 184.128906 51.632812 184.507812 51.28125 C 184.886719 50.929688 185.316406 50.664062 185.796875 50.480469 C 186.28125 50.296875 186.78125 50.210938 187.296875 50.222656 C 187.8125 50.234375 188.308594 50.34375 188.78125 50.550781 C 189.253906 50.757812 189.671875 51.046875 190.03125 51.414062 C 190.394531 51.785156 190.671875 52.207031 190.867188 52.6875 C 191.0625 53.164062 191.160156 53.664062 191.164062 54.179688 C 191.152344 54.449219 191.117188 54.71875 191.054688 54.980469 C 190.992188 55.242188 190.902344 55.5 190.789062 55.746094 C 190.679688 55.992188 190.542969 56.222656 190.382812 56.441406 C 190.226562 56.664062 190.046875 56.863281 189.847656 57.046875 C 189.652344 57.234375 189.4375 57.394531 189.207031 57.539062 C 188.976562 57.679688 188.734375 57.796875 188.480469 57.890625 C 188.226562 57.988281 187.96875 58.054688 187.699219 58.097656 C 187.433594 58.140625 187.164062 58.15625 186.894531 58.148438 Z M 186.894531 51.042969 C 186.488281 51.082031 186.101562 51.195312 185.738281 51.386719 C 185.378906 51.574219 185.0625 51.824219 184.796875 52.136719 C 184.53125 52.449219 184.335938 52.796875 184.203125 53.1875 C 184.074219 53.574219 184.023438 53.972656 184.046875 54.382812 C 184.074219 54.789062 184.175781 55.179688 184.351562 55.550781 C 184.527344 55.917969 184.769531 56.242188 185.070312 56.515625 C 185.375 56.792969 185.714844 57.003906 186.101562 57.144531 C 186.484375 57.285156 186.878906 57.351562 187.289062 57.339844 C 187.695312 57.324219 188.089844 57.238281 188.460938 57.070312 C 188.835938 56.90625 189.167969 56.675781 189.453125 56.382812 C 189.734375 56.089844 189.957031 55.753906 190.109375 55.371094 C 190.261719 54.992188 190.339844 54.597656 190.339844 54.1875 C 190.320312 53.753906 190.214844 53.335938 190.027344 52.941406 C 189.84375 52.542969 189.589844 52.199219 189.265625 51.90625 C 188.941406 51.609375 188.574219 51.386719 188.164062 51.238281 C 187.753906 51.089844 187.332031 51.023438 186.894531 51.042969 Z M 186.894531 51.042969 " fill-opacity="1" fill-rule="nonzero"/><path fill="#200a3e" d="M 196.878906 57.761719 C 196.363281 57.722656 195.875 57.585938 195.410156 57.355469 C 194.949219 57.125 194.546875 56.816406 194.207031 56.429688 C 193.863281 56.042969 193.605469 55.605469 193.4375 55.117188 C 193.265625 54.628906 193.191406 54.125 193.21875 53.609375 C 193.242188 53.09375 193.367188 52.597656 193.582031 52.128906 C 193.800781 51.660156 194.097656 51.25 194.476562 50.898438 C 194.855469 50.546875 195.285156 50.277344 195.769531 50.09375 C 196.25 49.910156 196.75 49.824219 197.265625 49.835938 C 197.78125 49.847656 198.277344 49.957031 198.75 50.164062 C 199.226562 50.367188 199.644531 50.65625 200.003906 51.027344 C 200.367188 51.394531 200.644531 51.820312 200.839844 52.296875 C 201.035156 52.777344 201.136719 53.273438 201.136719 53.792969 C 201.125 54.0625 201.089844 54.328125 201.027344 54.59375 C 200.964844 54.855469 200.878906 55.109375 200.765625 55.355469 C 200.652344 55.601562 200.515625 55.832031 200.359375 56.054688 C 200.203125 56.273438 200.023438 56.472656 199.824219 56.65625 C 199.628906 56.84375 199.414062 57.003906 199.183594 57.148438 C 198.957031 57.289062 198.714844 57.40625 198.460938 57.503906 C 198.207031 57.597656 197.949219 57.664062 197.683594 57.710938 C 197.414062 57.753906 197.148438 57.769531 196.878906 57.761719 Z M 196.878906 50.648438 C 196.46875 50.683594 196.082031 50.796875 195.71875 50.984375 C 195.351562 51.175781 195.035156 51.425781 194.769531 51.738281 C 194.5 52.046875 194.300781 52.398438 194.171875 52.789062 C 194.039062 53.179688 193.988281 53.578125 194.011719 53.988281 C 194.035156 54.402344 194.136719 54.792969 194.3125 55.164062 C 194.492188 55.535156 194.730469 55.859375 195.035156 56.136719 C 195.335938 56.414062 195.679688 56.621094 196.066406 56.765625 C 196.449219 56.910156 196.847656 56.972656 197.257812 56.960938 C 197.667969 56.949219 198.0625 56.859375 198.4375 56.695312 C 198.8125 56.53125 199.144531 56.300781 199.429688 56.003906 C 199.71875 55.710938 199.9375 55.371094 200.09375 54.992188 C 200.246094 54.609375 200.324219 54.214844 200.324219 53.800781 C 200.300781 53.363281 200.199219 52.949219 200.011719 52.550781 C 199.824219 52.15625 199.570312 51.808594 199.25 51.515625 C 198.925781 51.21875 198.558594 50.996094 198.148438 50.847656 C 197.738281 50.695312 197.316406 50.628906 196.878906 50.648438 Z M 196.878906 50.648438 " fill-opacity="1" fill-rule="nonzero"/><path fill="#200a3e" d="M 191.125 53.820312 C 190.902344 53.820312 190.769531 53.710938 190.726562 53.496094 C 190.710938 53.382812 190.730469 53.28125 190.796875 53.191406 C 190.859375 53.097656 190.945312 53.039062 191.054688 53.019531 L 191.300781 52.96875 C 191.785156 52.855469 192.265625 52.855469 192.75 52.96875 C 192.859375 52.984375 192.953125 53.039062 193.019531 53.128906 C 193.085938 53.21875 193.113281 53.324219 193.09375 53.433594 C 193.078125 53.546875 193.027344 53.632812 192.9375 53.699219 C 192.847656 53.765625 192.75 53.789062 192.640625 53.773438 C 192.242188 53.675781 191.847656 53.675781 191.449219 53.773438 L 191.203125 53.820312 Z M 191.125 53.820312 " fill-opacity="1" fill-rule="nonzero"/><path fill="#200a3e" d="M 200.957031 53.722656 C 200.851562 53.734375 200.753906 53.703125 200.667969 53.636719 C 200.585938 53.570312 200.535156 53.484375 200.519531 53.378906 C 200.503906 53.269531 200.527344 53.171875 200.585938 53.085938 C 200.648438 52.996094 200.734375 52.941406 200.839844 52.917969 L 201.066406 52.851562 C 203.703125 52.066406 204.175781 51.925781 206.523438 52.203125 C 206.644531 52.207031 206.742188 52.253906 206.820312 52.347656 C 206.898438 52.4375 206.929688 52.542969 206.917969 52.660156 C 206.902344 52.78125 206.847656 52.875 206.746094 52.945312 C 206.648438 53.011719 206.542969 53.035156 206.425781 53.007812 C 204.246094 52.761719 203.859375 52.878906 201.304688 53.632812 L 201.066406 53.703125 Z M 200.957031 53.722656 " fill-opacity="1" fill-rule="nonzero"/><path fill="#1d083e" d="M 185.320312 44.148438 C 191.828125 45.378906 194.371094 44.554688 199.929688 40.359375 C 199.691406 45.023438 199.394531 46.429688 203.324219 50.339844 C 205.039062 52.046875 205.117188 55.804688 205.167969 56.292969 C 206.078125 64.4375 211.882812 60.261719 214.597656 53.496094 C 216.328125 49.167969 217.210938 36.042969 208.484375 31.847656 C 206.058594 30.6875 207.355469 29.019531 203.535156 27.074219 C 196.757812 23.652344 193.066406 27.074219 188.210938 29.476562 C 186.230469 30.46875 180.289062 32.769531 179.980469 39.179688 C 179.785156 43.722656 182.199219 44.316406 183.945312 49.101562 C 184.210938 47.449219 184.628906 45.835938 185.191406 44.257812 " fill-opacity="1" fill-rule="evenodd"/><path fill="#f89c87" d="M 205.128906 55.824219 C 207.554688 49.644531 212.445312 50.539062 212.140625 55.023438 C 211.753906 60.589844 204.097656 63.734375 204.335938 59.386719 " fill-opacity="1" fill-rule="evenodd"/><path fill="#1d083e" d="M 207.050781 58.8125 C 206.925781 58.808594 206.824219 58.765625 206.742188 58.671875 C 206.664062 58.59375 206.625 58.496094 206.625 58.386719 C 206.625 58.273438 206.664062 58.175781 206.742188 58.097656 C 207.328125 57.582031 207.328125 57.582031 206.96875 56.847656 L 206.910156 56.738281 C 206.734375 56.34375 206.671875 55.929688 206.722656 55.5 C 206.777344 55.066406 206.933594 54.679688 207.199219 54.339844 C 207.445312 53.964844 207.765625 53.679688 208.167969 53.484375 C 208.566406 53.285156 208.992188 53.203125 209.4375 53.238281 C 210.027344 53.339844 210.480469 53.644531 210.792969 54.160156 C 211.128906 54.820312 211.128906 55.480469 210.792969 56.144531 C 210.757812 56.257812 210.6875 56.339844 210.582031 56.394531 C 210.472656 56.445312 210.367188 56.449219 210.253906 56.40625 C 210.144531 56.359375 210.066406 56.285156 210.023438 56.171875 C 209.980469 56.0625 209.988281 55.953125 210.039062 55.847656 C 210.253906 55.414062 210.253906 54.980469 210.039062 54.546875 C 209.863281 54.261719 209.613281 54.078125 209.289062 54 C 208.988281 53.992188 208.707031 54.054688 208.441406 54.195312 C 208.171875 54.332031 207.957031 54.523438 207.792969 54.773438 C 207.617188 55 207.511719 55.253906 207.472656 55.535156 C 207.4375 55.816406 207.472656 56.089844 207.585938 56.351562 L 207.585938 56.449219 C 208.011719 57.324219 208.179688 57.789062 207.167969 58.671875 C 207.136719 58.726562 207.097656 58.773438 207.050781 58.8125 Z M 207.050781 58.8125 " fill-opacity="1" fill-rule="nonzero"/><path fill="#1d083e" d="M 208.960938 58.347656 L 208.851562 58.347656 C 208.742188 58.316406 208.660156 58.25 208.605469 58.152344 C 208.550781 58.054688 208.535156 57.949219 208.566406 57.839844 C 208.890625 56.621094 208.84375 56.003906 207.644531 55.308594 C 207.546875 55.253906 207.484375 55.171875 207.453125 55.0625 C 207.425781 54.953125 207.4375 54.851562 207.496094 54.753906 C 207.550781 54.660156 207.636719 54.597656 207.742188 54.570312 C 207.851562 54.539062 207.953125 54.550781 208.050781 54.605469 C 209.664062 55.539062 209.753906 56.589844 209.347656 58.058594 C 209.292969 58.253906 209.164062 58.347656 208.960938 58.347656 Z M 208.960938 58.347656 " fill-opacity="1" fill-rule="nonzero"/><path fill="#1d083e" d="M 192.945312 62.660156 C 191.914062 62.640625 191.019531 62.277344 190.261719 61.570312 C 189.996094 61.214844 189.894531 60.820312 189.964844 60.378906 C 190.121094 59.890625 190.382812 59.46875 190.746094 59.109375 C 191.71875 58.160156 192.21875 57.003906 192.253906 55.648438 C 192.253906 55.535156 192.296875 55.4375 192.375 55.359375 C 192.453125 55.277344 192.546875 55.234375 192.660156 55.230469 C 192.769531 55.234375 192.863281 55.277344 192.941406 55.355469 C 193.019531 55.433594 193.058594 55.527344 193.066406 55.636719 C 193.035156 56.386719 192.867188 57.101562 192.566406 57.785156 C 192.265625 58.472656 191.851562 59.078125 191.320312 59.605469 C 191.066406 59.859375 190.871094 60.148438 190.726562 60.480469 C 190.679688 60.6875 190.722656 60.875 190.855469 61.042969 C 191.460938 61.558594 192.160156 61.816406 192.957031 61.816406 Z M 192.945312 62.660156 " fill-opacity="1" fill-rule="nonzero"/><path fill="#1d083e" d="M 199.988281 53.304688 C 199.988281 53.375 199.917969 53.453125 199.878906 53.523438 C 199.410156 53.769531 198.945312 53.753906 198.492188 53.484375 C 198.125 53.210938 197.71875 53.054688 197.261719 53.011719 C 196.808594 52.96875 196.375 53.046875 195.96875 53.246094 C 195.828125 53.304688 195.828125 53.324219 195.691406 53.246094 L 195.511719 53.085938 C 195.511719 53.007812 195.511719 52.917969 195.511719 52.851562 C 195.511719 52.78125 195.589844 52.710938 195.730469 52.640625 C 197.789062 51.648438 198.609375 53.007812 199.285156 53.1875 C 199.441406 53.222656 199.601562 53.222656 199.761719 53.1875 C 199.878906 53.246094 199.867188 53.265625 199.988281 53.304688 Z M 199.988281 53.304688 " fill-opacity="1" fill-rule="evenodd"/><path fill="#1d083e" d="M 197.203125 52.492188 C 197.453125 52.464844 197.675781 52.53125 197.867188 52.691406 C 198.058594 52.851562 198.164062 53.054688 198.183594 53.304688 C 198.203125 53.554688 198.125 53.773438 197.960938 53.960938 C 197.792969 54.144531 197.585938 54.242188 197.335938 54.253906 C 197.085938 54.261719 196.871094 54.179688 196.691406 54.003906 C 196.511719 53.828125 196.421875 53.617188 196.421875 53.367188 C 196.414062 53.136719 196.484375 52.941406 196.636719 52.769531 C 196.789062 52.601562 196.976562 52.507812 197.203125 52.492188 Z M 197.203125 52.492188 " fill-opacity="1" fill-rule="evenodd"/><path fill="#1d083e" d="M 185.894531 52.75 C 185.96875 52.726562 186.046875 52.703125 186.121094 52.691406 C 186.355469 52.78125 186.589844 52.78125 186.824219 52.691406 C 187.519531 52.472656 188.527344 51.699219 190.203125 52.851562 C 190.332031 52.9375 190.351562 52.9375 190.382812 53.097656 C 190.367188 53.175781 190.347656 53.25 190.320312 53.324219 C 190.265625 53.382812 190.199219 53.425781 190.125 53.453125 C 189.945312 53.453125 189.957031 53.453125 189.804688 53.347656 C 188.261719 52.355469 187.667969 53.347656 186.628906 53.21875 C 186.386719 53.199219 186.167969 53.117188 185.972656 52.96875 C 185.9375 52.898438 185.910156 52.828125 185.894531 52.75 Z M 185.894531 52.75 " fill-opacity="1" fill-rule="evenodd"/><path fill="#1d083e" d="M 188.71875 52.492188 C 188.492188 52.464844 188.289062 52.519531 188.109375 52.65625 C 187.929688 52.796875 187.824219 52.980469 187.796875 53.207031 C 187.761719 53.316406 187.75 53.425781 187.761719 53.539062 C 187.777344 53.652344 187.8125 53.757812 187.871094 53.855469 C 187.925781 53.953125 188.003906 54.03125 188.09375 54.097656 C 188.1875 54.164062 188.289062 54.207031 188.402344 54.226562 C 188.511719 54.25 188.625 54.246094 188.734375 54.222656 C 188.84375 54.195312 188.945312 54.148438 189.035156 54.078125 C 189.125 54.007812 189.195312 53.925781 189.25 53.824219 C 189.300781 53.722656 189.332031 53.617188 189.339844 53.503906 C 189.390625 53.277344 189.355469 53.066406 189.234375 52.871094 C 189.113281 52.675781 188.941406 52.550781 188.71875 52.492188 Z M 188.71875 52.492188 " fill-opacity="1" fill-rule="evenodd"/><path fill="#1d083e" d="M 200.335938 49.585938 C 200.246094 49.65625 200.175781 49.753906 200.085938 49.832031 C 199.949219 49.847656 199.808594 49.847656 199.671875 49.832031 C 199.164062 49.839844 198.667969 49.761719 198.183594 49.605469 C 197.550781 49.445312 197.324219 49.277344 196.898438 49.378906 C 196.644531 49.460938 196.425781 49.597656 196.242188 49.792969 C 196.128906 49.882812 196 49.945312 195.859375 49.984375 L 195.453125 49.84375 C 195.382812 49.714844 195.273438 49.605469 195.261719 49.464844 C 195.253906 49.328125 195.261719 49.238281 195.472656 48.96875 C 195.628906 48.769531 195.816406 48.601562 196.035156 48.464844 C 196.25 48.328125 196.484375 48.230469 196.734375 48.171875 C 196.984375 48.117188 197.234375 48.101562 197.488281 48.132812 C 197.742188 48.160156 197.984375 48.234375 198.214844 48.34375 C 198.8125 48.726562 199.4375 49.058594 200.085938 49.335938 C 200.265625 49.378906 200.175781 49.457031 200.335938 49.585938 Z M 200.335938 49.585938 " fill-opacity="1" fill-rule="evenodd"/><path fill="#1d083e" d="M 185.675781 48.941406 C 185.925781 48.742188 185.914062 48.734375 185.992188 48.710938 C 186.675781 48.613281 187.320312 48.148438 187.894531 48.019531 C 188.128906 47.945312 188.363281 47.910156 188.609375 47.917969 C 188.851562 47.921875 189.085938 47.96875 189.316406 48.054688 C 189.542969 48.140625 189.75 48.261719 189.9375 48.414062 C 190.125 48.570312 190.285156 48.753906 190.410156 48.960938 C 190.667969 49.347656 190.558594 49.386719 190.3125 49.785156 L 189.894531 49.882812 C 189.578125 49.882812 189.617188 49.734375 189.390625 49.507812 C 188.867188 48.980469 188.398438 49.179688 187.914062 49.257812 C 187.253906 49.398438 186.59375 49.398438 185.933594 49.257812 C 185.777344 49.089844 185.796875 49.070312 185.675781 48.941406 Z M 185.675781 48.941406 " fill-opacity="1" fill-rule="evenodd"/><path fill="#f89c87" d="M 242.1875 121.046875 C 259.550781 182.199219 205.960938 153 176.824219 153.289062 C 174.476562 153.414062 172.132812 153.332031 169.800781 153.042969 C 166.621094 152.226562 165.839844 153.101562 164.53125 149.996094 C 162.859375 146.027344 161.136719 144.90625 164.867188 142.902344 C 165.71875 142.445312 174.605469 137.683594 176.039062 138.339844 C 185.152344 142.523438 184.882812 145.28125 197.085938 143.199219 C 211.089844 140.769531 216.558594 141.433594 227.945312 141.542969 C 227.769531 140.332031 228.28125 127.5625 228.9375 126.015625 C 229.324219 125.144531 235.976562 123.039062 236.613281 122.882812 C 239.34375 122.039062 239.414062 121.570312 242.1875 121.046875 Z M 242.1875 121.046875 " fill-opacity="1" fill-rule="evenodd"/><path fill="#200a3e" d="M 164.382812 147.632812 C 164.183594 147.632812 164.023438 147.554688 163.898438 147.394531 C 163.796875 147.261719 163.761719 147.109375 163.785156 146.945312 C 163.808594 146.777344 163.882812 146.644531 164.015625 146.542969 C 166.304688 144.714844 168.679688 143.011719 171.136719 141.421875 L 171.453125 141.214844 C 171.59375 141.117188 171.746094 141.085938 171.910156 141.121094 C 172.078125 141.152344 172.207031 141.242188 172.296875 141.382812 C 172.390625 141.523438 172.421875 141.675781 172.386719 141.839844 C 172.355469 142.003906 172.269531 142.132812 172.128906 142.226562 L 171.8125 142.4375 C 169.375 144.007812 167.023438 145.703125 164.761719 147.515625 C 164.648438 147.59375 164.519531 147.632812 164.382812 147.632812 Z M 164.382812 147.632812 " fill-opacity="1" fill-rule="nonzero"/><path fill="#200a3e" d="M 165.808594 150.996094 C 165.636719 150.992188 165.488281 150.929688 165.363281 150.808594 C 165.246094 150.6875 165.1875 150.546875 165.1875 150.378906 C 165.1875 150.210938 165.246094 150.066406 165.363281 149.945312 C 166.847656 148.390625 168.472656 147.003906 170.238281 145.777344 C 170.851562 145.34375 171.644531 144.785156 172.8125 143.902344 C 172.949219 143.804688 173.097656 143.769531 173.265625 143.792969 C 173.429688 143.820312 173.5625 143.898438 173.664062 144.03125 C 173.769531 144.167969 173.808594 144.320312 173.78125 144.488281 C 173.757812 144.65625 173.675781 144.789062 173.535156 144.886719 C 172.355469 145.757812 171.554688 146.335938 170.941406 146.769531 C 169.226562 147.960938 167.648438 149.308594 166.207031 150.820312 C 166.097656 150.933594 165.964844 150.992188 165.808594 150.996094 Z M 165.808594 150.996094 " fill-opacity="1" fill-rule="nonzero"/><path fill="#200a3e" d="M 168.105469 152.933594 C 167.839844 152.929688 167.652344 152.804688 167.546875 152.554688 C 167.445312 152.304688 167.484375 152.085938 167.671875 151.890625 C 168.242188 151.257812 168.859375 150.675781 169.523438 150.144531 L 170.722656 149.152344 C 170.847656 149.042969 170.996094 148.996094 171.164062 149.007812 C 171.332031 149.019531 171.46875 149.089844 171.578125 149.21875 C 171.6875 149.34375 171.734375 149.492188 171.722656 149.660156 C 171.710938 149.828125 171.640625 149.964844 171.515625 150.074219 C 170.898438 150.609375 170.523438 150.898438 170.285156 151.066406 C 169.664062 151.570312 169.082031 152.121094 168.542969 152.714844 C 168.429688 152.851562 168.285156 152.925781 168.105469 152.933594 Z M 168.105469 152.933594 " fill-opacity="1" fill-rule="nonzero"/><path fill="#dd695a" d="M 228.964844 126.015625 C 229.351562 125.144531 236.007812 123.039062 236.640625 122.882812 C 239.34375 122.039062 239.414062 121.570312 242.1875 121.046875 C 244.007812 127.011719 245.117188 133.105469 245.527344 139.332031 L 227.996094 137.40625 C 228.144531 133.140625 228.519531 127.046875 228.964844 126.015625 Z M 228.964844 126.015625 " fill-opacity="1" fill-rule="evenodd"/><path fill="#5f9ded" d="M 227.964844 131.59375 L 245.921875 125.640625 C 246.476562 125.816406 240.722656 88.523438 234.375 82.851562 C 232.589844 81.195312 230.542969 81.273438 229.324219 81.113281 Z M 227.964844 131.59375 " fill-opacity="1" fill-rule="evenodd"/><path fill="#e2e9fc" d="M 141.84375 150.582031 L 141.308594 156.910156 L 194.28125 161.621094 C 195.109375 161.691406 195.820312 161.4375 196.421875 160.867188 C 197.015625 160.292969 197.292969 159.59375 197.253906 158.765625 C 197.253906 158.457031 197.253906 158.148438 197.253906 157.851562 C 197.238281 157.519531 197.164062 157.203125 197.03125 156.898438 C 196.902344 156.59375 196.722656 156.320312 196.492188 156.082031 C 196.261719 155.84375 196 155.648438 195.699219 155.503906 C 195.402344 155.363281 195.089844 155.273438 194.757812 155.242188 Z M 141.84375 150.582031 " fill-opacity="1" fill-rule="evenodd"/><path fill="#e2e9fc" d="M 107.824219 117.109375 C 107.371094 117.109375 106.941406 117.21875 106.542969 117.433594 C 106.144531 117.648438 105.824219 117.949219 105.574219 118.328125 C 105.328125 118.710938 105.1875 119.128906 105.152344 119.582031 C 105.121094 120.039062 105.199219 120.472656 105.386719 120.886719 C 109.851562 130.808594 121.597656 156.859375 121.597656 156.859375 L 168.910156 158.410156 C 168.910156 158.410156 155.945312 126.550781 152.804688 118.855469 C 152.597656 118.351562 152.269531 117.949219 151.820312 117.644531 C 151.367188 117.34375 150.871094 117.191406 150.328125 117.1875 Z M 107.824219 117.109375 " fill-opacity="1" fill-rule="evenodd"/><path fill="#d3d9f2" d="M 122.035156 156.878906 L 169.394531 159.398438 L 152.90625 119.089844 C 152.589844 118.3125 152.042969 117.753906 151.269531 117.425781 Z M 122.035156 156.878906 " fill-opacity="1" fill-rule="evenodd"/><path fill="#200a3e" d="M 129.929688 133.058594 C 137.535156 131.074219 139.289062 136.375 136.644531 139.351562 C 134.425781 141.851562 130.699219 141.175781 130.613281 141.175781 C 137.703125 136.105469 130.820312 133.488281 130.183594 133.238281 " fill-opacity="1" fill-rule="evenodd"/><path fill="#f89c87" d="M 133.492188 163.4375 C 127.382812 156.5625 129.699219 152.335938 129.867188 152.238281 C 131.949219 151.046875 134.75 157.585938 134.761719 157.605469 C 134.632812 156.96875 133.167969 150.003906 135.492188 149.5 C 138.304688 148.902344 139.347656 155.222656 139.457031 155.5 C 139.585938 155.035156 141.128906 149.648438 142.695312 150.261719 C 143.832031 150.699219 143.546875 155.3125 143.515625 155.75 C 145.328125 150.402344 146.089844 150.679688 146.488281 150.929688 C 147.992188 151.921875 147.289062 157.714844 147.269531 158.050781 L 152.867188 158.449219 C 152.351562 159.441406 147.636719 168.160156 141.207031 165.34375 C 137.851562 163.882812 137.730469 164.402344 134.175781 163.617188 " fill-opacity="1" fill-rule="evenodd"/><path fill="#200a3e" d="M 135.601562 160.53125 C 135.324219 160.527344 135.132812 160.394531 135.027344 160.132812 L 134.234375 157.992188 C 134.175781 157.835938 134.183594 157.679688 134.253906 157.527344 C 134.324219 157.375 134.4375 157.265625 134.59375 157.207031 C 134.75 157.148438 134.90625 157.15625 135.058594 157.226562 C 135.210938 157.292969 135.316406 157.40625 135.375 157.566406 L 136.175781 159.707031 C 136.234375 159.867188 136.226562 160.019531 136.160156 160.171875 C 136.089844 160.324219 135.976562 160.429688 135.820312 160.492188 C 135.75 160.515625 135.675781 160.527344 135.601562 160.53125 Z M 135.601562 160.53125 " fill-opacity="1" fill-rule="nonzero"/><path fill="#200a3e" d="M 139.832031 160.164062 C 139.675781 160.164062 139.542969 160.109375 139.425781 160.007812 C 139.3125 159.902344 139.246094 159.773438 139.226562 159.617188 L 138.832031 155.886719 C 138.800781 155.710938 138.839844 155.554688 138.945312 155.410156 C 139.050781 155.269531 139.195312 155.1875 139.371094 155.167969 C 139.546875 155.148438 139.703125 155.199219 139.839844 155.316406 C 139.972656 155.433594 140.042969 155.582031 140.050781 155.757812 L 140.4375 159.488281 C 140.457031 159.65625 140.414062 159.808594 140.304688 159.9375 C 140.199219 160.070312 140.058594 160.140625 139.890625 160.15625 Z M 139.832031 160.164062 " fill-opacity="1" fill-rule="nonzero"/><path fill="#200a3e" d="M 143.496094 159.191406 C 143.328125 159.179688 143.1875 159.113281 143.078125 158.988281 C 142.964844 158.863281 142.914062 158.714844 142.921875 158.546875 L 143.03125 156.226562 C 143.019531 156.042969 143.078125 155.886719 143.210938 155.753906 C 143.339844 155.625 143.496094 155.566406 143.679688 155.578125 C 143.863281 155.585938 144.011719 155.664062 144.125 155.808594 C 144.238281 155.953125 144.28125 156.113281 144.25 156.296875 L 144.140625 158.617188 C 144.128906 158.785156 144.0625 158.925781 143.9375 159.035156 C 143.8125 159.148438 143.664062 159.199219 143.496094 159.191406 Z M 143.496094 159.191406 " fill-opacity="1" fill-rule="nonzero"/><path fill="#5f9ded" d="M 189.617188 141.871094 L 189.074219 157.019531 L 235.464844 161.40625 L 244.464844 155.679688 L 247.554688 149.160156 C 248.019531 141.082031 247.4375 133.078125 245.804688 125.152344 L 227.976562 130.261719 L 227.578125 140.601562 Z M 189.617188 141.871094 " fill-opacity="1" fill-rule="evenodd"/><path fill="#1d083e" d="M 190.023438 142.277344 C 189.917969 142.28125 189.824219 142.246094 189.746094 142.171875 C 189.664062 142.097656 189.625 142.007812 189.617188 141.898438 C 189.609375 141.789062 189.640625 141.6875 189.714844 141.601562 C 189.789062 141.519531 189.882812 141.472656 189.996094 141.464844 C 197.292969 141.054688 211.972656 140.472656 228.324219 140.878906 C 228.433594 140.878906 228.53125 140.917969 228.609375 140.996094 C 228.6875 141.078125 228.730469 141.171875 228.730469 141.285156 C 228.730469 141.398438 228.6875 141.492188 228.609375 141.574219 C 228.53125 141.652344 228.433594 141.691406 228.324219 141.691406 C 212 141.253906 197.34375 141.871094 190.0625 142.277344 Z M 190.023438 142.277344 " fill-opacity="1" fill-rule="nonzero"/><path fill="#1d083e" d="M 228.472656 141.851562 C 228.25 141.847656 228.117188 141.738281 228.074219 141.523438 C 228.003906 141.175781 227.816406 140.53125 227.578125 139.785156 C 226.292969 135.570312 223.28125 125.699219 224.964844 114.210938 C 224.980469 114.097656 225.035156 114.007812 225.125 113.941406 C 225.21875 113.871094 225.320312 113.847656 225.429688 113.863281 C 225.542969 113.878906 225.632812 113.933594 225.699219 114.023438 C 225.769531 114.117188 225.792969 114.21875 225.777344 114.328125 C 224.113281 125.640625 227.085938 135.382812 228.351562 139.546875 C 228.609375 140.371094 228.789062 140.976562 228.878906 141.363281 C 228.898438 141.472656 228.878906 141.574219 228.816406 141.667969 C 228.753906 141.761719 228.667969 141.816406 228.558594 141.839844 Z M 228.472656 141.851562 " fill-opacity="1" fill-rule="nonzero"/><path fill="#1d083e" d="M 234.015625 160.75 C 230.828125 160.75 224.796875 160.304688 208.671875 159.121094 L 189.28125 157.703125 C 189.167969 157.695312 189.078125 157.648438 189.003906 157.5625 C 188.929688 157.476562 188.898438 157.378906 188.90625 157.265625 C 188.914062 157.15625 188.960938 157.0625 189.046875 156.988281 C 189.128906 156.914062 189.230469 156.882812 189.339844 156.890625 L 208.761719 158.308594 C 231.136719 159.957031 234.015625 160.164062 236.808594 159.757812 C 236.917969 159.746094 237.015625 159.777344 237.097656 159.84375 C 237.183594 159.910156 237.234375 159.996094 237.25 160.101562 C 237.265625 160.210938 237.242188 160.308594 237.179688 160.394531 C 237.117188 160.484375 237.035156 160.539062 236.929688 160.5625 C 235.964844 160.699219 234.992188 160.761719 234.015625 160.75 Z M 234.015625 160.75 " fill-opacity="1" fill-rule="nonzero"/><path fill="#1d083e" d="M 161.433594 136.621094 C 161.320312 136.613281 161.230469 136.5625 161.160156 136.480469 C 161.089844 136.394531 161.058594 136.296875 161.066406 136.183594 C 161.550781 130.371094 161.777344 126.890625 161.988281 123.8125 C 162.3125 119.042969 162.542969 115.597656 163.492188 106.632812 C 163.503906 106.519531 163.554688 106.425781 163.640625 106.355469 C 163.730469 106.285156 163.832031 106.257812 163.941406 106.269531 C 164.054688 106.28125 164.144531 106.332031 164.21875 106.417969 C 164.289062 106.507812 164.316406 106.609375 164.304688 106.71875 C 163.3125 115.648438 163.125 119.113281 162.800781 123.863281 C 162.589844 126.949219 162.351562 130.429688 161.867188 136.246094 C 161.863281 136.359375 161.816406 136.453125 161.730469 136.527344 C 161.644531 136.601562 161.546875 136.632812 161.433594 136.621094 Z M 161.433594 136.621094 " fill-opacity="1" fill-rule="nonzero"/><path fill="#1d083e" d="M 224.875 123.367188 C 224.648438 123.367188 224.511719 123.253906 224.46875 123.03125 C 224.210938 121.441406 223.996094 120.113281 223.796875 118.972656 C 222.804688 113.019531 222.648438 112.128906 222.804688 106.511719 C 222.808594 106.402344 222.851562 106.308594 222.929688 106.230469 C 223.007812 106.152344 223.101562 106.113281 223.210938 106.113281 C 223.324219 106.117188 223.417969 106.160156 223.496094 106.242188 C 223.574219 106.324219 223.609375 106.417969 223.609375 106.53125 C 223.421875 112.066406 223.609375 112.96875 224.597656 118.832031 C 224.796875 119.976562 225.015625 121.304688 225.273438 122.890625 C 225.292969 123.003906 225.269531 123.105469 225.203125 123.195312 C 225.136719 123.289062 225.046875 123.34375 224.9375 123.359375 Z M 224.875 123.367188 " fill-opacity="1" fill-rule="nonzero"/><path fill="#1d083e" d="M 227.648438 91.988281 C 227.59375 92 227.535156 92 227.480469 91.988281 C 227.378906 91.941406 227.3125 91.863281 227.273438 91.761719 C 227.234375 91.65625 227.238281 91.554688 227.28125 91.453125 L 227.472656 91.035156 C 228.371094 89.050781 228.558594 88.632812 232.996094 82.832031 C 233.066406 82.742188 233.15625 82.691406 233.265625 82.675781 C 233.378906 82.660156 233.476562 82.6875 233.566406 82.757812 C 233.65625 82.824219 233.707031 82.914062 233.722656 83.027344 C 233.738281 83.136719 233.710938 83.238281 233.640625 83.328125 C 229.261719 89.050781 229.085938 89.457031 228.214844 91.371094 L 228.027344 91.789062 C 227.9375 91.929688 227.8125 91.996094 227.648438 91.988281 Z M 227.648438 91.988281 " fill-opacity="1" fill-rule="nonzero"/><path fill="#1d083e" d="M 163.847656 92.96875 C 163.648438 92.972656 163.519531 92.875 163.460938 92.683594 L 163.234375 91.878906 C 162.859375 90.53125 162.105469 87.851562 161.253906 84.933594 C 161.226562 84.828125 161.238281 84.726562 161.292969 84.628906 C 161.34375 84.53125 161.425781 84.46875 161.53125 84.4375 C 161.636719 84.402344 161.742188 84.410156 161.839844 84.464844 C 161.941406 84.515625 162.003906 84.597656 162.035156 84.707031 C 162.898438 87.683594 163.652344 90.359375 164.015625 91.652344 L 164.234375 92.453125 C 164.269531 92.5625 164.261719 92.667969 164.207031 92.765625 C 164.148438 92.867188 164.066406 92.929688 163.957031 92.960938 Z M 163.847656 92.96875 " fill-opacity="1" fill-rule="nonzero"/></svg>