<svg xmlns="http://www.w3.org/2000/svg" xmlns:xlink="http://www.w3.org/1999/xlink" width="500" zoomAndPan="magnify" viewBox="0 0 375 374.999991" height="500" preserveAspectRatio="xMidYMid meet" version="1.0"><defs><clipPath id="e817d2f391"><path d="M 230 238 L 232.660156 238 L 232.660156 243 L 230 243 Z M 230 238 " clip-rule="nonzero"/></clipPath><clipPath id="1186dda76c"><path d="M 224.410156 238 L 227 238 L 227 243 L 224.410156 243 Z M 224.410156 238 " clip-rule="nonzero"/></clipPath><clipPath id="1d68a1294f"><path d="M 227 237.644531 L 230 237.644531 L 230 243.644531 L 227 243.644531 Z M 227 237.644531 " clip-rule="nonzero"/></clipPath><clipPath id="ec14601a4c"><path d="M 37.5 0 L 341.25 0 L 341.25 303.75 L 37.5 303.75 Z M 37.5 0 " clip-rule="nonzero"/></clipPath></defs><g clip-path="url(#e817d2f391)"><path fill="#000000" d="M 230.371094 242.878906 C 230.324219 242.878906 230.273438 242.859375 230.238281 242.824219 C 230.164062 242.75 230.164062 242.632812 230.238281 242.5625 L 232.199219 240.65625 L 230.238281 238.753906 C 230.164062 238.679688 230.164062 238.5625 230.238281 238.492188 C 230.3125 238.417969 230.433594 238.417969 230.507812 238.492188 L 232.601562 240.527344 C 232.640625 240.5625 232.660156 240.609375 232.660156 240.65625 C 232.660156 240.707031 232.640625 240.753906 232.601562 240.789062 L 230.507812 242.824219 C 230.46875 242.859375 230.421875 242.878906 230.371094 242.878906 Z M 230.371094 242.878906 " fill-opacity="1" fill-rule="nonzero"/></g><g clip-path="url(#1186dda76c)"><path fill="#000000" d="M 226.699219 242.878906 C 226.648438 242.878906 226.601562 242.859375 226.5625 242.824219 L 224.46875 240.789062 C 224.433594 240.753906 224.410156 240.707031 224.410156 240.65625 C 224.410156 240.609375 224.433594 240.5625 224.46875 240.527344 L 226.5625 238.492188 C 226.636719 238.417969 226.757812 238.417969 226.832031 238.492188 C 226.910156 238.5625 226.910156 238.679688 226.832031 238.753906 L 224.875 240.65625 L 226.832031 242.5625 C 226.910156 242.632812 226.910156 242.75 226.832031 242.824219 C 226.796875 242.859375 226.746094 242.878906 226.699219 242.878906 Z M 226.699219 242.878906 " fill-opacity="1" fill-rule="nonzero"/></g><g clip-path="url(#1d68a1294f)"><path fill="#000000" d="M 227.398438 243.644531 C 227.375 243.644531 227.351562 243.640625 227.328125 243.632812 C 227.226562 243.59375 227.179688 243.488281 227.21875 243.390625 L 229.496094 237.785156 C 229.535156 237.691406 229.644531 237.644531 229.746094 237.683594 C 229.84375 237.71875 229.890625 237.828125 229.851562 237.921875 L 227.574219 243.527344 C 227.546875 243.601562 227.472656 243.644531 227.398438 243.644531 Z M 227.398438 243.644531 " fill-opacity="1" fill-rule="nonzero"/></g><g clip-path="url(#ec14601a4c)"><path fill="#5170ff" d="M 189.324219 303.644531 C 105.820312 303.644531 37.5 235.324219 37.5 151.824219 C 37.5 68.320312 105.820312 0 189.324219 0 C 272.824219 0 341.144531 68.320312 341.144531 151.824219 C 341.144531 235.324219 272.824219 303.644531 189.324219 303.644531 Z M 189.324219 303.644531 " fill-opacity="1" fill-rule="nonzero"/></g><path fill="#1d083e" d="M 228.566406 248.585938 L 276.335938 368.378906 L 286.710938 369.484375 L 248.40625 249.417969 Z M 228.566406 248.585938 " fill-opacity="1" fill-rule="evenodd"/><path fill="#1d083e" d="M 206.78125 248.585938 L 159.023438 368.378906 L 148.664062 369.484375 L 186.941406 249.417969 Z M 206.78125 248.585938 " fill-opacity="1" fill-rule="evenodd"/><path fill="#33537d" d="M 224.613281 93.992188 C 250.289062 85.847656 289.398438 98.953125 286.882812 176.746094 C 285.074219 232.828125 280.078125 255.429688 250.238281 259.917969 C 222.222656 264.121094 165.679688 263.066406 157.808594 249.105469 C 148.675781 232.878906 170.003906 225.550781 172.144531 224.746094 C 206.324219 212.90625 216.609375 213.414062 221.851562 149.71875 C 224.070312 122.753906 215.457031 100.984375 224.613281 93.992188 Z M 224.613281 93.992188 " fill-opacity="1" fill-rule="evenodd"/><path fill="#3a4143" d="M 185.789062 241.457031 C 229.371094 271.445312 234.863281 223.878906 243.488281 206.933594 C 251.417969 191.335938 253.003906 191.496094 252.804688 173.917969 C 252.804688 172.007812 263.226562 106.972656 238.40625 111.609375 C 219.582031 115.117188 242.730469 155.484375 209.792969 191.71875 C 197.835938 204.875 187.253906 211.941406 185.925781 234.925781 " fill-opacity="0.26" fill-rule="evenodd"/><path fill="#5f9ded" d="M 190.351562 109.550781 C 190.351562 109.550781 222.234375 84.570312 261.394531 106.367188 L 263.625 203.285156 L 187.613281 203.089844 Z M 190.351562 109.550781 " fill-opacity="1" fill-rule="evenodd"/><path fill="#f89c87" d="M 234.8125 85.042969 C 234.8125 85.042969 234.515625 94.960938 234.292969 102.660156 C 234.261719 103.242188 234.175781 103.8125 234.035156 104.378906 C 233.890625 104.941406 233.699219 105.488281 233.449219 106.015625 C 233.203125 106.542969 232.90625 107.039062 232.5625 107.511719 C 232.21875 107.980469 231.832031 108.414062 231.40625 108.808594 C 230.976562 109.203125 230.515625 109.550781 230.019531 109.855469 C 229.523438 110.160156 229.003906 110.414062 228.460938 110.621094 C 227.914062 110.824219 227.355469 110.972656 226.78125 111.070312 C 226.207031 111.164062 225.628906 111.203125 225.046875 111.1875 C 224.464844 111.167969 223.890625 111.097656 223.324219 110.96875 C 222.753906 110.839844 222.207031 110.660156 221.671875 110.421875 C 221.140625 110.1875 220.636719 109.902344 220.160156 109.570312 C 219.683594 109.238281 219.242188 108.863281 218.835938 108.441406 C 218.433594 108.023438 218.070312 107.570312 217.757812 107.082031 C 217.441406 106.59375 217.171875 106.078125 216.957031 105.539062 C 216.742188 104.996094 216.578125 104.441406 216.46875 103.871094 C 216.359375 103.296875 216.308594 102.722656 216.3125 102.136719 C 216.496094 95.941406 216.707031 88.664062 216.707031 88.664062 C 218.222656 86.996094 219.992188 85.667969 222.011719 84.671875 Z M 234.8125 85.042969 " fill-opacity="1" fill-rule="evenodd"/><path fill="#dd695a" d="M 216.3125 102.214844 L 216.707031 88.664062 C 218.222656 86.996094 219.992188 85.667969 222.011719 84.671875 L 234.550781 85.003906 L 233.460938 91.105469 C 232.394531 93.015625 230.613281 96.832031 228.503906 98.925781 C 225.171875 102.0625 221.371094 104.457031 217.105469 106.105469 C 216.542969 104.867188 216.277344 103.570312 216.3125 102.214844 Z M 216.3125 102.214844 " fill-opacity="1" fill-rule="evenodd"/><path fill="#f89c87" d="M 220.984375 99.050781 C 220.027344 99.34375 219.046875 99.488281 218.046875 99.480469 C 217.042969 99.472656 216.066406 99.316406 215.113281 99.007812 C 214.164062 98.703125 213.277344 98.257812 212.460938 97.679688 C 211.644531 97.101562 210.933594 96.414062 210.324219 95.617188 C 207.351562 91.6875 206.523438 85.910156 207.078125 79.253906 C 208.09375 67.140625 210.140625 57.308594 222.046875 58.042969 C 230.550781 58.5625 237.191406 68.109375 236.855469 79.960938 C 236.769531 83.597656 236.003906 87.082031 234.5625 90.421875 C 234.003906 91.710938 233.152344 92.765625 232.011719 93.585938 C 228.632812 96.007812 224.957031 97.832031 220.984375 99.050781 Z M 220.984375 99.050781 " fill-opacity="1" fill-rule="evenodd"/><path fill="#1d083e" d="M 232.667969 78.375 C 230.921875 77.890625 230.894531 74.914062 230.894531 74.578125 C 228.34375 74.082031 228.589844 73.152344 228.132812 72.011719 C 225.34375 71.234375 225.59375 70.773438 224.277344 68.441406 C 224.175781 68.199219 224.011719 68.019531 223.777344 67.894531 C 223.542969 67.773438 223.296875 67.742188 223.039062 67.796875 C 222.429688 68.015625 221.800781 68.097656 221.152344 68.050781 C 220.507812 68.003906 219.894531 67.828125 219.324219 67.527344 C 216.421875 69.136719 215.605469 69.027344 214.515625 66.160156 C 213.125 67.910156 213.273438 66.808594 211.019531 67.03125 C 210.101562 67.117188 206.707031 68.15625 205.617188 63.671875 C 204.898438 60.769531 206.855469 60.039062 206.484375 59.378906 C 203.125 52.972656 207.414062 52.523438 210.4375 51.832031 C 209.890625 48.023438 214.761719 43.660156 218.34375 47.578125 C 218.480469 47.738281 221.6875 46.066406 223.722656 46.339844 C 226.375 46.761719 226.832031 50.058594 226.882812 50.230469 C 227.511719 49.871094 233.164062 46.191406 233.535156 52.179688 C 233.597656 53.304688 240.015625 51.507812 237.550781 58.660156 C 240.402344 58.75 241.269531 59.082031 241.652344 61.796875 C 241.652344 62.132812 243.015625 63.460938 243.015625 64.585938 C 243.015625 66.273438 242.53125 66.074219 241.527344 67.476562 C 242.929688 70.054688 243.3125 70.511719 241.167969 72.570312 C 241.703125 76.847656 241.082031 76.859375 240.117188 77.53125 C 239.496094 78.015625 240.214844 79.515625 238.46875 80.144531 C 236.199219 80.976562 236.558594 83.480469 233.921875 81.855469 " fill-opacity="1" fill-rule="evenodd"/><path fill="#200a3e" d="M 211.503906 81.484375 C 211.210938 81.457031 210.925781 81.402344 210.648438 81.320312 C 210.367188 81.238281 210.097656 81.128906 209.835938 80.996094 C 209.578125 80.863281 209.335938 80.703125 209.105469 80.523438 C 208.878906 80.339844 208.667969 80.140625 208.476562 79.917969 C 208.289062 79.695312 208.121094 79.457031 207.976562 79.203125 C 207.832031 78.949219 207.714844 78.683594 207.621094 78.40625 C 207.53125 78.128906 207.464844 77.84375 207.425781 77.554688 C 207.390625 77.265625 207.378906 76.976562 207.398438 76.683594 C 207.417969 76.394531 207.460938 76.105469 207.535156 75.824219 C 207.609375 75.539062 207.710938 75.265625 207.835938 75.003906 C 207.960938 74.742188 208.113281 74.492188 208.285156 74.257812 C 208.460938 74.023438 208.65625 73.808594 208.871094 73.609375 C 209.085938 73.414062 209.320312 73.242188 209.570312 73.089844 C 209.820312 72.9375 210.082031 72.8125 210.355469 72.710938 C 210.628906 72.609375 210.910156 72.535156 211.199219 72.488281 C 211.488281 72.441406 211.777344 72.421875 212.070312 72.433594 C 212.359375 72.441406 212.648438 72.476562 212.933594 72.542969 C 213.21875 72.609375 213.492188 72.699219 213.761719 72.816406 C 214.027344 72.9375 214.28125 73.078125 214.519531 73.246094 C 214.757812 73.414062 214.980469 73.601562 215.183594 73.8125 C 215.386719 74.023438 215.566406 74.25 215.726562 74.496094 C 215.886719 74.738281 216.019531 74.996094 216.128906 75.269531 C 216.238281 75.539062 216.320312 75.816406 216.378906 76.105469 C 216.433594 76.390625 216.460938 76.679688 216.460938 76.972656 C 216.445312 77.28125 216.398438 77.589844 216.320312 77.890625 C 216.246094 78.191406 216.140625 78.484375 216.007812 78.765625 C 215.875 79.046875 215.71875 79.3125 215.53125 79.5625 C 215.347656 79.8125 215.140625 80.039062 214.910156 80.25 C 214.679688 80.457031 214.433594 80.644531 214.167969 80.804688 C 213.898438 80.964844 213.621094 81.097656 213.328125 81.203125 C 213.035156 81.308594 212.738281 81.386719 212.429688 81.433594 C 212.121094 81.480469 211.8125 81.5 211.503906 81.484375 Z M 211.503906 73.476562 C 211.050781 73.53125 210.628906 73.667969 210.230469 73.886719 C 209.832031 74.105469 209.488281 74.390625 209.199219 74.742188 C 208.914062 75.09375 208.699219 75.488281 208.566406 75.921875 C 208.429688 76.355469 208.378906 76.800781 208.417969 77.253906 C 208.453125 77.707031 208.574219 78.136719 208.773438 78.542969 C 208.976562 78.949219 209.25 79.304688 209.589844 79.605469 C 209.929688 79.90625 210.3125 80.136719 210.742188 80.289062 C 211.167969 80.441406 211.609375 80.507812 212.066406 80.488281 C 212.519531 80.472656 212.953125 80.371094 213.367188 80.183594 C 213.78125 79.996094 214.148438 79.738281 214.460938 79.410156 C 214.777344 79.082031 215.019531 78.707031 215.1875 78.285156 C 215.359375 77.863281 215.445312 77.425781 215.445312 76.972656 C 215.414062 76.480469 215.292969 76.007812 215.078125 75.566406 C 214.863281 75.121094 214.570312 74.734375 214.199219 74.40625 C 213.828125 74.078125 213.410156 73.832031 212.945312 73.671875 C 212.476562 73.511719 211.996094 73.445312 211.503906 73.476562 Z M 211.503906 73.476562 " fill-opacity="1" fill-rule="nonzero"/><path fill="#200a3e" d="M 223.015625 81.039062 C 222.726562 81.011719 222.441406 80.957031 222.164062 80.871094 C 221.882812 80.789062 221.617188 80.679688 221.359375 80.546875 C 221.101562 80.414062 220.859375 80.253906 220.628906 80.074219 C 220.402344 79.890625 220.195312 79.691406 220.007812 79.46875 C 219.816406 79.246094 219.652344 79.011719 219.507812 78.757812 C 219.367188 78.503906 219.25 78.238281 219.15625 77.960938 C 219.066406 77.6875 219 77.40625 218.964844 77.117188 C 218.925781 76.828125 218.917969 76.539062 218.933594 76.246094 C 218.953125 75.957031 219 75.671875 219.074219 75.390625 C 219.144531 75.109375 219.246094 74.835938 219.371094 74.574219 C 219.496094 74.3125 219.648438 74.066406 219.820312 73.832031 C 219.996094 73.597656 220.191406 73.382812 220.40625 73.1875 C 220.621094 72.992188 220.851562 72.820312 221.101562 72.667969 C 221.347656 72.515625 221.609375 72.390625 221.882812 72.289062 C 222.15625 72.1875 222.433594 72.113281 222.722656 72.070312 C 223.007812 72.023438 223.296875 72.003906 223.589844 72.011719 C 223.878906 72.019531 224.164062 72.058594 224.449219 72.121094 C 224.734375 72.1875 225.007812 72.277344 225.273438 72.394531 C 225.539062 72.511719 225.792969 72.652344 226.03125 72.820312 C 226.269531 72.984375 226.492188 73.171875 226.691406 73.382812 C 226.894531 73.589844 227.078125 73.816406 227.234375 74.058594 C 227.394531 74.304688 227.527344 74.558594 227.636719 74.828125 C 227.746094 75.097656 227.832031 75.375 227.886719 75.660156 C 227.941406 75.945312 227.972656 76.234375 227.972656 76.527344 C 227.957031 76.835938 227.910156 77.144531 227.835938 77.445312 C 227.757812 77.746094 227.652344 78.035156 227.519531 78.316406 C 227.386719 78.597656 227.230469 78.863281 227.042969 79.113281 C 226.859375 79.363281 226.652344 79.59375 226.421875 79.804688 C 226.191406 80.011719 225.945312 80.199219 225.679688 80.359375 C 225.414062 80.519531 225.132812 80.652344 224.839844 80.757812 C 224.546875 80.863281 224.25 80.941406 223.941406 80.988281 C 223.632812 81.035156 223.324219 81.050781 223.015625 81.039062 Z M 223.015625 73.042969 C 222.566406 73.101562 222.140625 73.238281 221.746094 73.460938 C 221.347656 73.683594 221.007812 73.96875 220.722656 74.324219 C 220.4375 74.675781 220.230469 75.070312 220.097656 75.503906 C 219.964844 75.941406 219.917969 76.382812 219.953125 76.835938 C 219.992188 77.289062 220.117188 77.71875 220.320312 78.121094 C 220.523438 78.527344 220.796875 78.878906 221.140625 79.179688 C 221.480469 79.480469 221.863281 79.707031 222.292969 79.855469 C 222.722656 80.007812 223.164062 80.070312 223.617188 80.050781 C 224.070312 80.03125 224.503906 79.929688 224.917969 79.742188 C 225.328125 79.550781 225.695312 79.292969 226.007812 78.964844 C 226.320312 78.636719 226.5625 78.261719 226.730469 77.839844 C 226.898438 77.417969 226.980469 76.980469 226.980469 76.527344 C 226.953125 76.027344 226.832031 75.558594 226.613281 75.109375 C 226.398438 74.660156 226.105469 74.273438 225.730469 73.941406 C 225.359375 73.613281 224.9375 73.367188 224.464844 73.207031 C 223.996094 73.046875 223.511719 72.984375 223.015625 73.019531 Z M 223.015625 73.042969 " fill-opacity="1" fill-rule="nonzero"/><path fill="#200a3e" d="M 216.375 76.613281 C 216.246094 76.605469 216.136719 76.558594 216.042969 76.472656 C 215.953125 76.382812 215.902344 76.277344 215.890625 76.148438 C 215.878906 76.023438 215.910156 75.90625 215.988281 75.804688 C 216.0625 75.703125 216.160156 75.636719 216.285156 75.609375 L 216.558594 75.609375 C 217.128906 75.480469 217.699219 75.480469 218.269531 75.609375 C 218.410156 75.628906 218.523438 75.695312 218.609375 75.804688 C 218.695312 75.917969 218.726562 76.042969 218.707031 76.183594 C 218.6875 76.324219 218.625 76.4375 218.511719 76.523438 C 218.398438 76.609375 218.273438 76.644531 218.132812 76.625 C 217.671875 76.515625 217.207031 76.515625 216.746094 76.625 L 216.472656 76.6875 Z M 216.375 76.613281 " fill-opacity="1" fill-rule="nonzero"/><path fill="#200a3e" d="M 227.738281 76.5 C 227.605469 76.507812 227.488281 76.46875 227.382812 76.386719 C 227.28125 76.300781 227.222656 76.195312 227.203125 76.0625 C 227.1875 75.929688 227.214844 75.8125 227.292969 75.703125 C 227.367188 75.59375 227.46875 75.523438 227.601562 75.496094 L 227.8125 75.496094 C 230.882812 74.605469 231.441406 74.429688 234.167969 74.742188 C 234.308594 74.757812 234.425781 74.820312 234.515625 74.933594 C 234.601562 75.042969 234.640625 75.167969 234.625 75.3125 C 234.605469 75.449219 234.539062 75.558594 234.429688 75.644531 C 234.320312 75.730469 234.195312 75.769531 234.054688 75.757812 C 231.578125 75.472656 231.082031 75.609375 228.097656 76.476562 L 227.886719 76.539062 Z M 227.738281 76.5 " fill-opacity="1" fill-rule="nonzero"/><path fill="#1d083e" d="M 207.402344 86.902344 C 209.878906 86.566406 209.570312 87.449219 211.117188 87.25 C 214.128906 86.902344 213.769531 87.671875 216.769531 87.25 C 218.097656 87.238281 219.417969 87.144531 220.734375 86.976562 C 221.796875 86.523438 222.859375 86.523438 223.917969 86.976562 C 226.398438 87.660156 225.40625 86.296875 228.578125 84.496094 C 231.75 82.699219 230.648438 81.832031 234.253906 77.292969 C 233.488281 79.875 234.6875 81.015625 235.492188 83.417969 C 237.574219 89.851562 230.785156 93.410156 230.535156 94.875 C 230.238281 96.90625 229.296875 96.769531 227.289062 97.203125 C 225.28125 97.636719 225.878906 98.964844 223.066406 99.449219 C 221.453125 99.734375 221.417969 101.195312 219.347656 100.503906 C 218.34375 100.167969 216.808594 101.605469 215.429688 100.082031 C 214.304688 98.839844 212.953125 99.734375 212.421875 98.222656 C 212.109375 97.441406 211.777344 97.652344 211.253906 96.980469 C 210.804688 96.398438 210.269531 95.910156 209.644531 95.519531 C 208.46875 94.625 208.828125 94.277344 208.691406 92.765625 C 208.617188 92.085938 207.339844 91.898438 207.449219 90.484375 C 207.449219 89.542969 207.316406 89.59375 206.941406 88.738281 C 206.789062 88.144531 206.84375 87.570312 207.105469 87.015625 " fill-opacity="1" fill-rule="evenodd"/><path fill="#f89c87" d="M 233.289062 79.933594 C 236.421875 72.808594 242.296875 74.023438 241.765625 79.242188 C 241.121094 85.710938 231.777344 89.160156 232.199219 84.050781 " fill-opacity="1" fill-rule="evenodd"/><path fill="#1d083e" d="M 235.59375 83.503906 C 235.429688 83.507812 235.300781 83.445312 235.195312 83.320312 C 235.105469 83.210938 235.070312 83.085938 235.082031 82.945312 C 235.097656 82.804688 235.160156 82.6875 235.269531 82.601562 C 235.964844 82.042969 235.964844 82.042969 235.582031 81.199219 L 235.582031 81.074219 C 235.382812 80.617188 235.316406 80.136719 235.382812 79.640625 C 235.449219 79.144531 235.640625 78.703125 235.953125 78.3125 C 236.277344 77.871094 236.6875 77.539062 237.1875 77.320312 C 237.6875 77.097656 238.210938 77.015625 238.753906 77.070312 C 239.464844 77.222656 240.007812 77.609375 240.375 78.238281 C 240.570312 78.609375 240.667969 79.007812 240.667969 79.425781 C 240.667969 79.847656 240.570312 80.246094 240.375 80.617188 C 240.316406 80.738281 240.222656 80.824219 240.09375 80.871094 C 239.964844 80.917969 239.839844 80.914062 239.714844 80.859375 C 239.589844 80.804688 239.5 80.714844 239.449219 80.589844 C 239.398438 80.460938 239.398438 80.335938 239.445312 80.207031 C 239.722656 79.734375 239.75 79.246094 239.535156 78.746094 C 239.328125 78.410156 239.035156 78.191406 238.652344 78.089844 C 238.289062 78.054688 237.941406 78.121094 237.609375 78.277344 C 237.28125 78.433594 237.011719 78.664062 236.808594 78.96875 C 236.609375 79.210938 236.484375 79.488281 236.433594 79.800781 C 236.386719 80.109375 236.417969 80.410156 236.535156 80.703125 L 236.597656 80.828125 C 237.078125 81.882812 237.265625 82.441406 236.015625 83.445312 C 235.882812 83.527344 235.742188 83.546875 235.59375 83.503906 Z M 235.59375 83.503906 " fill-opacity="1" fill-rule="nonzero"/><path fill="#1d083e" d="M 237.910156 83.035156 L 237.761719 83.035156 C 237.625 82.992188 237.523438 82.910156 237.457031 82.78125 C 237.394531 82.65625 237.382812 82.523438 237.425781 82.390625 C 237.875 80.9375 237.785156 80.269531 236.398438 79.453125 C 236.292969 79.375 236.226562 79.269531 236.203125 79.140625 C 236.175781 79.015625 236.195312 78.894531 236.265625 78.78125 C 236.332031 78.667969 236.429688 78.59375 236.554688 78.554688 C 236.679688 78.519531 236.800781 78.527344 236.917969 78.582031 C 238.851562 79.722656 238.914062 81.0625 238.394531 82.699219 C 238.3125 82.925781 238.152344 83.039062 237.910156 83.035156 Z M 237.910156 83.035156 " fill-opacity="1" fill-rule="nonzero"/><path fill="#1d083e" d="M 216.644531 87.671875 C 215.355469 87.621094 214.242188 87.152344 213.300781 86.269531 C 212.980469 85.847656 212.875 85.375 212.988281 84.855469 C 213.203125 84.277344 213.546875 83.785156 214.019531 83.382812 C 214.613281 82.878906 215.089844 82.285156 215.445312 81.589844 C 215.804688 80.898438 216.011719 80.164062 216.074219 79.390625 C 216.070312 79.246094 216.121094 79.125 216.226562 79.027344 C 216.328125 78.925781 216.453125 78.882812 216.597656 78.894531 C 216.738281 78.894531 216.859375 78.945312 216.957031 79.046875 C 217.054688 79.152344 217.097656 79.273438 217.09375 79.414062 C 217.023438 80.316406 216.789062 81.171875 216.386719 81.980469 C 215.984375 82.789062 215.441406 83.492188 214.761719 84.089844 C 214.449219 84.363281 214.191406 84.6875 213.992188 85.054688 C 213.933594 85.277344 213.976562 85.480469 214.117188 85.664062 C 214.878906 86.300781 215.753906 86.628906 216.746094 86.65625 Z M 216.644531 87.671875 " fill-opacity="1" fill-rule="nonzero"/><path fill="#1d083e" d="M 225.742188 76.898438 C 225.742188 76.984375 225.65625 77.082031 225.605469 77.160156 C 225.300781 77.285156 224.984375 77.328125 224.65625 77.292969 C 224.328125 77.257812 224.03125 77.148438 223.757812 76.960938 C 223.320312 76.652344 222.835938 76.472656 222.304688 76.421875 C 221.769531 76.371094 221.261719 76.457031 220.773438 76.675781 C 220.597656 76.738281 220.585938 76.773438 220.402344 76.675781 L 220.203125 76.453125 C 220.183594 76.351562 220.183594 76.253906 220.203125 76.152344 C 220.277344 75.980469 220.3125 75.992188 220.488281 75.917969 C 223.101562 74.863281 224.019531 76.4375 224.949219 76.699219 C 225.132812 76.742188 225.320312 76.742188 225.507812 76.699219 Z M 225.742188 76.898438 " fill-opacity="1" fill-rule="evenodd"/><path fill="#1d083e" d="M 222.371094 75.882812 C 222.507812 75.878906 222.640625 75.90625 222.769531 75.957031 C 222.894531 76.007812 223.007812 76.082031 223.105469 76.179688 C 223.203125 76.273438 223.277344 76.386719 223.332031 76.515625 C 223.386719 76.640625 223.410156 76.773438 223.410156 76.910156 C 223.410156 77.046875 223.386719 77.179688 223.332031 77.308594 C 223.277344 77.433594 223.203125 77.546875 223.105469 77.640625 C 223.007812 77.738281 222.894531 77.8125 222.769531 77.863281 C 222.640625 77.914062 222.507812 77.941406 222.371094 77.9375 C 222.234375 77.9375 222.101562 77.910156 221.976562 77.855469 C 221.847656 77.800781 221.738281 77.722656 221.640625 77.625 C 221.546875 77.527344 221.472656 77.410156 221.425781 77.285156 C 221.375 77.15625 221.351562 77.023438 221.355469 76.886719 C 221.355469 76.75 221.378906 76.621094 221.433594 76.5 C 221.484375 76.375 221.558594 76.265625 221.652344 76.171875 C 221.75 76.078125 221.859375 76.003906 221.984375 75.953125 C 222.105469 75.902344 222.238281 75.878906 222.371094 75.882812 Z M 222.371094 75.882812 " fill-opacity="1" fill-rule="evenodd"/><path fill="#1d083e" d="M 208.195312 75.78125 L 208.480469 75.707031 C 208.777344 75.824219 209.074219 75.824219 209.371094 75.707031 C 209.695312 75.527344 210.039062 75.394531 210.402344 75.3125 C 210.765625 75.234375 211.132812 75.207031 211.503906 75.234375 C 211.875 75.257812 212.234375 75.339844 212.582031 75.46875 C 212.929688 75.601562 213.253906 75.78125 213.546875 76.003906 C 213.707031 76.128906 213.746094 76.117188 213.769531 76.304688 L 213.707031 76.601562 C 213.621094 76.601562 213.558594 76.738281 213.460938 76.761719 C 213.363281 76.785156 213.25 76.761719 213.050781 76.625 C 211.15625 75.386719 210.351562 76.527344 209.0625 76.351562 C 208.796875 76.324219 208.550781 76.230469 208.332031 76.078125 C 208.277344 75.984375 208.234375 75.882812 208.195312 75.78125 Z M 208.195312 75.78125 " fill-opacity="1" fill-rule="evenodd"/><path fill="#1d083e" d="M 211.726562 75.558594 C 211.453125 75.511719 211.203125 75.5625 210.972656 75.71875 C 210.742188 75.878906 210.601562 76.09375 210.550781 76.363281 C 210.507812 76.496094 210.5 76.628906 210.515625 76.765625 C 210.53125 76.902344 210.574219 77.027344 210.644531 77.144531 C 210.710938 77.261719 210.804688 77.363281 210.914062 77.441406 C 211.023438 77.519531 211.148438 77.574219 211.28125 77.605469 C 211.414062 77.636719 211.550781 77.640625 211.6875 77.613281 C 211.828125 77.589844 211.953125 77.539062 212.070312 77.464844 C 212.1875 77.386719 212.285156 77.292969 212.363281 77.175781 C 212.441406 77.0625 212.492188 76.933594 212.519531 76.796875 C 212.554688 76.664062 212.5625 76.527344 212.542969 76.386719 C 212.523438 76.25 212.472656 76.121094 212.398438 76.003906 C 212.324219 75.882812 212.226562 75.785156 212.109375 75.710938 C 211.992188 75.632812 211.863281 75.582031 211.726562 75.558594 Z M 211.726562 75.558594 " fill-opacity="1" fill-rule="evenodd"/><path fill="#e1e5ff" d="M 213.785156 90.734375 C 216.335938 90.644531 216.507812 90.621094 219.84375 90.324219 C 219.964844 90.664062 219.984375 91.007812 219.902344 91.359375 C 219.820312 91.710938 219.648438 92.011719 219.382812 92.257812 C 217.960938 93.84375 213.003906 93.648438 213.585938 90.917969 " fill-opacity="1" fill-rule="evenodd"/><path fill="#1d083e" d="M 226.324219 72.546875 C 226.210938 72.632812 226.125 72.757812 226.015625 72.84375 C 225.871094 72.855469 225.726562 72.855469 225.582031 72.84375 C 225.042969 72.851562 224.515625 72.785156 223.996094 72.644531 C 223.691406 72.574219 223.394531 72.488281 223.101562 72.386719 C 222.785156 72.21875 222.453125 72.164062 222.101562 72.21875 C 221.75 72.277344 221.453125 72.4375 221.207031 72.695312 C 220.785156 73.054688 220.710938 72.917969 220.203125 72.695312 L 220.003906 72.199219 C 220.011719 71.960938 220.105469 71.761719 220.289062 71.605469 C 220.5 71.371094 220.742188 71.175781 221.015625 71.019531 C 221.289062 70.867188 221.582031 70.761719 221.890625 70.703125 C 222.199219 70.644531 222.507812 70.636719 222.820312 70.679688 C 223.132812 70.726562 223.429688 70.816406 223.710938 70.960938 C 224.449219 71.433594 225.222656 71.84375 226.027344 72.199219 C 226.25 72.285156 226.175781 72.371094 226.324219 72.546875 Z M 226.324219 72.546875 " fill-opacity="1" fill-rule="evenodd"/><path fill="#1d083e" d="M 208.070312 71.308594 C 208.378906 71.070312 208.378906 71.046875 208.46875 71.035156 C 209.398438 70.910156 210.128906 70.390625 210.882812 70.265625 C 211.171875 70.1875 211.46875 70.15625 211.765625 70.171875 C 212.066406 70.191406 212.355469 70.253906 212.632812 70.367188 C 212.914062 70.476562 213.167969 70.632812 213.394531 70.828125 C 213.625 71.019531 213.816406 71.246094 213.96875 71.503906 C 214.277344 71.988281 214.15625 72.050781 213.84375 72.546875 L 213.3125 72.671875 C 212.914062 72.597656 212.976562 72.484375 212.691406 72.199219 C 212.046875 71.566406 211.453125 71.800781 210.847656 71.863281 C 210.011719 71.996094 209.183594 71.953125 208.367188 71.742188 C 208.207031 71.492188 208.21875 71.480469 208.070312 71.308594 Z M 208.070312 71.308594 " fill-opacity="1" fill-rule="evenodd"/><path fill="#f89c87" d="M 216.074219 171.910156 C 219.359375 171.625 224.042969 171.425781 230.722656 171.328125 L 232.644531 182.707031 C 229.628906 182.667969 226.628906 182.472656 223.636719 182.125 C 221.871094 181.921875 220.113281 181.945312 218.355469 182.199219 C 214.128906 183.03125 213.546875 189.128906 211.167969 185.484375 C 210.699219 185.882812 209.1875 188.296875 207.191406 185.992188 C 205.109375 186.910156 205.132812 186.933594 204.933594 186.984375 C 203.496094 187.355469 196.261719 186.390625 196.261719 186.304688 C 196.261719 186.214844 205.070312 174.871094 209.632812 173.039062 C 211.726562 172.359375 213.875 171.984375 216.074219 171.910156 Z M 216.074219 171.910156 " fill-opacity="1" fill-rule="evenodd"/><path fill="#dd695a" d="M 223.636719 182.113281 L 216.074219 171.898438 C 219.359375 171.613281 224.042969 171.414062 230.722656 171.316406 L 232.644531 182.695312 C 229.632812 182.652344 226.628906 182.460938 223.636719 182.113281 Z M 223.636719 182.113281 " fill-opacity="1" fill-rule="evenodd"/><path fill="#5f9ded" d="M 226.472656 187.59375 L 222.667969 167.234375 L 273.003906 158.308594 L 261.605469 140.347656 L 260.550781 105.957031 C 260.550781 105.957031 288.183594 132.078125 294.480469 150.882812 C 294.480469 150.882812 311.183594 174.265625 282.769531 183.339844 Z M 226.472656 187.59375 " fill-opacity="1" fill-rule="evenodd"/><path fill="#5f9ded" d="M 190.96875 109.042969 L 122.492188 175.988281 L 138.898438 187.578125 C 138.898438 187.578125 182.566406 157.9375 189.867188 143.125 Z M 190.96875 109.042969 " fill-opacity="1" fill-rule="evenodd"/><path fill="#20428b" d="M 207.796875 332.042969 C 207.796875 332.042969 209.867188 351.320312 210.699219 358.984375 C 210.785156 359.832031 210.5625 360.585938 210.027344 361.25 C 209.492188 361.921875 208.800781 362.296875 207.945312 362.378906 L 163.894531 366.832031 C 163.648438 366.855469 163.410156 366.835938 163.175781 366.773438 C 162.9375 366.707031 162.722656 366.605469 162.523438 366.464844 C 162.324219 366.320312 162.15625 366.148438 162.023438 365.945312 C 161.886719 365.738281 161.792969 365.519531 161.738281 365.28125 C 160.945312 361.476562 160.734375 352.25 175.429688 346.996094 C 175.429688 346.996094 185.589844 343.351562 184.527344 327.964844 L 207.316406 325.957031 Z M 207.796875 332.042969 " fill-opacity="1" fill-rule="evenodd"/><path fill="#e2e9fc" d="M 162.976562 362.566406 C 162.585938 362.613281 162.21875 362.730469 161.875 362.925781 C 161.535156 363.117188 161.242188 363.367188 160.996094 363.675781 C 160.753906 363.988281 160.582031 364.332031 160.476562 364.710938 C 160.367188 365.089844 160.339844 365.472656 160.386719 365.863281 C 160.433594 366.253906 160.554688 366.621094 160.746094 366.964844 C 160.941406 367.3125 161.191406 367.605469 161.503906 367.847656 C 161.8125 368.089844 162.15625 368.265625 162.539062 368.371094 C 162.917969 368.476562 163.304688 368.503906 163.695312 368.453125 L 209.445312 362.988281 C 209.835938 362.941406 210.203125 362.820312 210.546875 362.628906 C 210.890625 362.4375 211.179688 362.183594 211.425781 361.875 C 211.667969 361.566406 211.84375 361.222656 211.949219 360.84375 C 212.054688 360.464844 212.082031 360.078125 212.035156 359.691406 C 211.988281 359.296875 211.867188 358.929688 211.671875 358.589844 C 211.480469 358.246094 211.226562 357.953125 210.917969 357.710938 C 210.605469 357.464844 210.261719 357.292969 209.882812 357.1875 C 209.503906 357.082031 209.117188 357.050781 208.726562 357.097656 Z M 162.976562 362.566406 " fill-opacity="1" fill-rule="evenodd"/><path fill="#e2e9fc" d="M 186.199219 345.570312 C 186.027344 345.570312 185.867188 345.53125 185.714844 345.445312 L 184.835938 344.960938 C 183.539062 344.164062 182.144531 343.601562 180.660156 343.277344 C 180.398438 343.195312 180.199219 343.035156 180.066406 342.792969 C 179.929688 342.554688 179.898438 342.300781 179.964844 342.035156 C 180 341.90625 180.0625 341.792969 180.144531 341.6875 C 180.226562 341.582031 180.324219 341.496094 180.441406 341.433594 C 180.558594 341.367188 180.683594 341.328125 180.8125 341.3125 C 180.945312 341.296875 181.078125 341.304688 181.203125 341.339844 C 182.839844 341.707031 184.371094 342.328125 185.800781 343.203125 L 186.683594 343.683594 C 186.800781 343.75 186.898438 343.835938 186.984375 343.941406 C 187.066406 344.046875 187.125 344.164062 187.164062 344.292969 C 187.199219 344.421875 187.210938 344.550781 187.199219 344.683594 C 187.183594 344.816406 187.144531 344.941406 187.078125 345.0625 C 186.882812 345.398438 186.589844 345.566406 186.199219 345.570312 Z M 186.199219 345.570312 " fill-opacity="1" fill-rule="nonzero"/><path fill="#e2e9fc" d="M 183.894531 347.898438 C 183.699219 347.894531 183.515625 347.839844 183.347656 347.738281 C 182.976562 347.503906 182.679688 347.28125 182.394531 347.082031 C 181.195312 346.199219 179.859375 345.636719 178.390625 345.382812 C 178.261719 345.351562 178.140625 345.292969 178.027344 345.214844 C 177.917969 345.132812 177.828125 345.035156 177.757812 344.917969 C 177.6875 344.804688 177.640625 344.679688 177.621094 344.542969 C 177.597656 344.410156 177.605469 344.277344 177.636719 344.144531 C 177.667969 344.011719 177.722656 343.890625 177.804688 343.78125 C 177.886719 343.671875 177.984375 343.582031 178.101562 343.511719 C 178.21875 343.441406 178.34375 343.398438 178.476562 343.378906 C 178.609375 343.359375 178.742188 343.367188 178.875 343.398438 C 180.597656 343.707031 182.160156 344.375 183.570312 345.40625 C 183.820312 345.59375 184.105469 345.792969 184.4375 346.003906 C 184.554688 346.074219 184.648438 346.164062 184.726562 346.273438 C 184.804688 346.386719 184.859375 346.503906 184.890625 346.636719 C 184.921875 346.769531 184.925781 346.898438 184.902344 347.03125 C 184.878906 347.167969 184.832031 347.289062 184.761719 347.402344 C 184.5625 347.726562 184.273438 347.894531 183.894531 347.898438 Z M 183.894531 347.898438 " fill-opacity="1" fill-rule="nonzero"/><path fill="#e2e9fc" d="M 180.96875 349.996094 C 180.75 349.996094 180.550781 349.929688 180.375 349.796875 L 179.457031 349.113281 C 178.296875 348.179688 176.984375 347.585938 175.515625 347.328125 C 175.25 347.253906 175.046875 347.097656 174.910156 346.855469 C 174.773438 346.613281 174.738281 346.359375 174.8125 346.089844 C 174.890625 345.824219 175.046875 345.625 175.289062 345.488281 C 175.527344 345.351562 175.78125 345.316406 176.050781 345.382812 C 177.769531 345.710938 179.316406 346.421875 180.683594 347.515625 L 181.550781 348.160156 C 181.734375 348.289062 181.859375 348.457031 181.929688 348.667969 C 182 348.878906 182 349.089844 181.933594 349.300781 C 181.863281 349.515625 181.742188 349.683594 181.5625 349.816406 C 181.378906 349.945312 181.179688 350.007812 180.957031 350.007812 Z M 180.96875 349.996094 " fill-opacity="1" fill-rule="nonzero"/><path fill="#e2e9fc" d="M 178.058594 352.140625 C 177.863281 352.128906 177.683594 352.066406 177.523438 351.953125 L 176.929688 351.507812 C 175.636719 350.429688 174.191406 349.632812 172.59375 349.113281 C 172.332031 349.035156 172.132812 348.875 172.003906 348.632812 C 171.875 348.390625 171.847656 348.136719 171.921875 347.875 C 172.003906 347.613281 172.164062 347.414062 172.40625 347.28125 C 172.644531 347.152344 172.898438 347.121094 173.164062 347.191406 C 174.988281 347.789062 176.640625 348.699219 178.121094 349.921875 C 178.28125 350.058594 178.449219 350.1875 178.628906 350.304688 C 178.855469 350.46875 178.996094 350.6875 179.046875 350.964844 C 179.097656 351.242188 179.042969 351.496094 178.886719 351.730469 C 178.679688 352.007812 178.402344 352.144531 178.058594 352.140625 Z M 178.058594 352.140625 " fill-opacity="1" fill-rule="nonzero"/><path fill="#e2e9fc" d="M 188.105469 343.101562 C 187.929688 343.097656 187.765625 343.054688 187.613281 342.964844 C 184.277344 341.105469 184.277344 341.105469 181.75 340.921875 C 181.613281 340.910156 181.488281 340.871094 181.367188 340.8125 C 181.246094 340.75 181.140625 340.667969 181.050781 340.5625 C 180.964844 340.460938 180.898438 340.34375 180.855469 340.214844 C 180.8125 340.085938 180.796875 339.953125 180.808594 339.816406 C 180.816406 339.683594 180.851562 339.554688 180.914062 339.433594 C 180.972656 339.3125 181.054688 339.210938 181.160156 339.121094 C 181.261719 339.035156 181.375 338.972656 181.503906 338.929688 C 181.632812 338.890625 181.765625 338.875 181.898438 338.886719 C 184.8125 339.109375 185.144531 339.257812 188.601562 341.191406 C 188.722656 341.257812 188.824219 341.339844 188.90625 341.445312 C 188.992188 341.550781 189.050781 341.667969 189.089844 341.796875 C 189.125 341.925781 189.136719 342.058594 189.121094 342.191406 C 189.105469 342.324219 189.066406 342.453125 189 342.570312 C 188.804688 342.921875 188.507812 343.097656 188.105469 343.101562 Z M 188.105469 343.101562 " fill-opacity="1" fill-rule="nonzero"/><path fill="#e2e9fc" d="M 190.089844 340.796875 C 188.292969 340.796875 185.863281 339.742188 183.546875 337.152344 C 183.375 336.957031 183.289062 336.730469 183.289062 336.46875 C 183.289062 336.210938 183.375 335.980469 183.546875 335.789062 C 183.558594 335.554688 183.640625 335.347656 183.789062 335.171875 C 183.9375 334.992188 184.125 334.875 184.351562 334.820312 C 185.863281 334.5 189.582031 333.941406 191.566406 335.664062 C 192.019531 336.0625 192.355469 336.546875 192.574219 337.113281 C 192.792969 337.675781 192.871094 338.261719 192.804688 338.863281 C 192.757812 339.277344 192.597656 339.644531 192.328125 339.964844 C 192.058594 340.285156 191.71875 340.5 191.316406 340.609375 C 190.917969 340.746094 190.511719 340.808594 190.089844 340.796875 Z M 185.875 336.628906 C 186.988281 337.863281 188.367188 338.574219 190.015625 338.761719 C 190.261719 338.769531 190.503906 338.730469 190.734375 338.640625 C 190.820312 338.066406 190.648438 337.582031 190.226562 337.1875 C 189.410156 336.457031 187.597656 336.371094 185.875 336.605469 Z M 185.875 336.628906 " fill-opacity="1" fill-rule="nonzero"/><path fill="#e2e9fc" d="M 178.082031 340.027344 C 177.679688 340.03125 177.296875 339.949219 176.929688 339.78125 C 176.496094 339.542969 176.152344 339.214844 175.902344 338.789062 C 175.652344 338.363281 175.527344 337.90625 175.53125 337.410156 C 175.605469 336.847656 175.789062 336.320312 176.089844 335.835938 C 176.386719 335.351562 176.769531 334.945312 177.238281 334.621094 C 178.726562 333.554688 180.832031 333.496094 183.433594 334.4375 C 183.5625 334.480469 183.675781 334.550781 183.777344 334.640625 C 183.878906 334.730469 183.957031 334.835938 184.015625 334.957031 C 184.074219 335.082031 184.105469 335.210938 184.113281 335.34375 C 184.121094 335.480469 184.101562 335.609375 184.054688 335.738281 C 183.996094 335.890625 183.910156 336.023438 183.792969 336.136719 C 183.859375 336.335938 183.863281 336.535156 183.804688 336.738281 C 183.746094 336.9375 183.636719 337.105469 183.472656 337.238281 C 181.242188 339.097656 179.46875 340.027344 178.082031 340.027344 Z M 177.574219 337.546875 C 177.574219 337.660156 177.648438 337.921875 177.820312 337.996094 C 177.996094 338.070312 178.886719 338.367188 181.761719 336.085938 C 180.675781 335.707031 179.609375 335.757812 178.566406 336.234375 C 178.042969 336.511719 177.695312 336.933594 177.523438 337.5 Z M 177.574219 337.546875 " fill-opacity="1" fill-rule="nonzero"/><path fill="#e2e9fc" d="M 199.210938 358.375 C 198.726562 356.074219 198.882812 353.816406 199.679688 351.605469 C 200.023438 350.714844 200.484375 349.886719 201.066406 349.128906 C 201.644531 348.367188 202.316406 347.703125 203.085938 347.132812 C 203.851562 346.566406 204.683594 346.117188 205.582031 345.785156 C 206.476562 345.453125 207.402344 345.253906 208.355469 345.183594 C 208.492188 345.15625 208.628906 345.15625 208.765625 345.183594 C 208.90625 345.210938 209.03125 345.265625 209.148438 345.34375 C 209.265625 345.421875 209.359375 345.519531 209.4375 345.632812 C 209.515625 345.75 209.566406 345.878906 209.59375 346.015625 C 209.621094 346.144531 209.621094 346.273438 209.59375 346.40625 C 209.566406 346.535156 209.515625 346.652344 209.441406 346.765625 C 209.367188 346.875 209.273438 346.964844 209.164062 347.035156 C 209.050781 347.109375 208.933594 347.15625 208.800781 347.179688 L 208.601562 347.179688 C 207.839844 347.234375 207.097656 347.390625 206.375 347.652344 C 205.65625 347.917969 204.984375 348.273438 204.367188 348.726562 C 203.75 349.179688 203.207031 349.710938 202.738281 350.320312 C 202.269531 350.925781 201.894531 351.585938 201.613281 352.300781 C 200.957031 354.140625 200.828125 356.015625 201.230469 357.929688 Z M 199.210938 358.375 " fill-opacity="1" fill-rule="nonzero"/><path fill="#20428b" d="M 123.65625 308.378906 L 110.175781 331.871094 C 109.75 332.617188 109.121094 333.101562 108.289062 333.320312 C 107.464844 333.542969 106.683594 333.4375 105.949219 333 L 67.707031 310.746094 C 67.5 310.621094 67.324219 310.46875 67.171875 310.28125 C 67.023438 310.09375 66.90625 309.886719 66.832031 309.660156 C 66.753906 309.433594 66.71875 309.199219 66.722656 308.960938 C 66.730469 308.71875 66.777344 308.488281 66.863281 308.265625 C 68.464844 304.71875 73.707031 297.109375 88.6875 301.535156 C 88.6875 301.535156 99.046875 304.546875 107.273438 291.480469 L 126.890625 303.257812 Z M 123.65625 308.378906 " fill-opacity="1" fill-rule="evenodd"/><path fill="#e2e9fc" d="M 69.46875 306.703125 C 69.125 306.519531 68.757812 306.410156 68.371094 306.367188 C 67.984375 306.328125 67.601562 306.363281 67.230469 306.472656 C 66.855469 306.582031 66.515625 306.761719 66.210938 307.003906 C 65.90625 307.246094 65.660156 307.539062 65.46875 307.878906 C 65.28125 308.21875 65.160156 308.582031 65.113281 308.96875 C 65.066406 309.355469 65.09375 309.738281 65.199219 310.113281 C 65.300781 310.488281 65.46875 310.832031 65.707031 311.140625 C 65.945312 311.449219 66.230469 311.703125 66.566406 311.898438 L 106.804688 334.386719 C 107.144531 334.554688 107.507812 334.65625 107.886719 334.683594 C 108.269531 334.714844 108.640625 334.671875 109.007812 334.558594 C 109.371094 334.445312 109.699219 334.269531 109.996094 334.027344 C 110.292969 333.785156 110.535156 333.5 110.71875 333.164062 C 110.90625 332.832031 111.023438 332.476562 111.070312 332.097656 C 111.117188 331.71875 111.09375 331.34375 111 330.972656 C 110.902344 330.601562 110.742188 330.265625 110.515625 329.957031 C 110.289062 329.648438 110.015625 329.394531 109.691406 329.191406 Z M 69.46875 306.703125 " fill-opacity="1" fill-rule="evenodd"/><path fill="#e2e9fc" d="M 98.8125 306.789062 C 98.382812 306.789062 98.078125 306.597656 97.894531 306.207031 L 97.496094 305.339844 C 96.90625 303.925781 96.105469 302.640625 95.09375 301.484375 C 95.011719 301.378906 94.953125 301.257812 94.917969 301.128906 C 94.882812 301 94.875 300.867188 94.890625 300.734375 C 94.910156 300.601562 94.953125 300.472656 95.019531 300.359375 C 95.085938 300.242188 95.171875 300.140625 95.28125 300.058594 C 95.386719 299.976562 95.503906 299.917969 95.636719 299.882812 C 95.765625 299.847656 95.898438 299.839844 96.03125 299.855469 C 96.164062 299.875 96.289062 299.917969 96.40625 299.984375 C 96.523438 300.050781 96.621094 300.136719 96.703125 300.246094 C 97.808594 301.523438 98.683594 302.941406 99.332031 304.496094 L 99.742188 305.351562 C 99.796875 305.476562 99.828125 305.605469 99.835938 305.738281 C 99.839844 305.875 99.820312 306.003906 99.773438 306.132812 C 99.726562 306.257812 99.65625 306.371094 99.566406 306.46875 C 99.472656 306.570312 99.367188 306.648438 99.246094 306.703125 C 99.105469 306.765625 98.960938 306.792969 98.8125 306.789062 Z M 98.8125 306.789062 " fill-opacity="1" fill-rule="nonzero"/><path fill="#e2e9fc" d="M 95.601562 307.324219 C 95.394531 307.324219 95.203125 307.265625 95.03125 307.148438 C 94.859375 307.03125 94.734375 306.875 94.660156 306.679688 C 94.5 306.269531 94.375 305.910156 94.261719 305.574219 C 93.816406 304.15625 93.074219 302.917969 92.03125 301.855469 C 91.941406 301.753906 91.871094 301.640625 91.824219 301.507812 C 91.777344 301.378906 91.761719 301.246094 91.769531 301.105469 C 91.777344 300.96875 91.8125 300.839844 91.875 300.714844 C 91.9375 300.589844 92.019531 300.484375 92.125 300.394531 C 92.230469 300.308594 92.351562 300.242188 92.480469 300.199219 C 92.613281 300.160156 92.746094 300.144531 92.886719 300.160156 C 93.023438 300.175781 93.152344 300.214844 93.273438 300.28125 C 93.394531 300.347656 93.496094 300.433594 93.582031 300.542969 C 94.796875 301.796875 95.664062 303.261719 96.183594 304.929688 C 96.296875 305.230469 96.394531 305.550781 96.542969 305.933594 C 96.59375 306.058594 96.617188 306.191406 96.617188 306.324219 C 96.613281 306.460938 96.585938 306.589844 96.535156 306.710938 C 96.480469 306.835938 96.40625 306.945312 96.308594 307.039062 C 96.210938 307.128906 96.097656 307.199219 95.972656 307.25 C 95.855469 307.296875 95.730469 307.324219 95.601562 307.324219 Z M 95.601562 307.324219 " fill-opacity="1" fill-rule="nonzero"/><path fill="#e2e9fc" d="M 92.019531 307.324219 C 91.800781 307.320312 91.605469 307.253906 91.429688 307.128906 C 91.25 307 91.125 306.835938 91.054688 306.628906 C 90.917969 306.207031 90.820312 305.847656 90.71875 305.539062 C 90.320312 304.117188 89.605469 302.875 88.574219 301.820312 C 88.46875 301.71875 88.390625 301.597656 88.335938 301.460938 C 88.28125 301.324219 88.257812 301.183594 88.265625 301.035156 C 88.273438 300.886719 88.3125 300.75 88.382812 300.621094 C 88.449219 300.488281 88.539062 300.378906 88.65625 300.289062 C 88.773438 300.199219 88.902344 300.136719 89.042969 300.101562 C 89.1875 300.066406 89.332031 300.0625 89.476562 300.089844 C 89.621094 300.121094 89.75 300.175781 89.871094 300.261719 C 89.992188 300.347656 90.089844 300.453125 90.160156 300.578125 C 91.355469 301.859375 92.179688 303.34375 92.640625 305.03125 C 92.726562 305.328125 92.824219 305.664062 92.960938 306.058594 C 93.035156 306.320312 93.011719 306.566406 92.886719 306.808594 C 92.761719 307.046875 92.574219 307.210938 92.316406 307.300781 C 92.21875 307.324219 92.121094 307.332031 92.019531 307.324219 Z M 92.019531 307.324219 " fill-opacity="1" fill-rule="nonzero"/><path fill="#e2e9fc" d="M 88.390625 307.324219 C 88.175781 307.324219 87.980469 307.257812 87.804688 307.132812 C 87.628906 307.007812 87.507812 306.84375 87.433594 306.640625 C 87.359375 306.445312 87.300781 306.207031 87.210938 305.933594 C 86.804688 304.300781 86.105469 302.804688 85.105469 301.449219 C 84.941406 301.222656 84.875 300.972656 84.914062 300.695312 C 84.953125 300.417969 85.082031 300.191406 85.304688 300.023438 C 85.410156 299.9375 85.53125 299.878906 85.660156 299.84375 C 85.792969 299.808594 85.925781 299.800781 86.058594 299.820312 C 86.191406 299.839844 86.316406 299.882812 86.433594 299.953125 C 86.550781 300.023438 86.648438 300.109375 86.730469 300.21875 C 87.890625 301.773438 88.714844 303.488281 89.207031 305.363281 C 89.257812 305.570312 89.320312 305.773438 89.394531 305.972656 C 89.46875 306.230469 89.445312 306.480469 89.324219 306.71875 C 89.199219 306.957031 89.015625 307.121094 88.761719 307.210938 C 88.644531 307.273438 88.519531 307.308594 88.390625 307.324219 Z M 88.390625 307.324219 " fill-opacity="1" fill-rule="nonzero"/><path fill="#e2e9fc" d="M 101.835938 305.933594 C 101.636719 305.933594 101.453125 305.882812 101.289062 305.773438 C 101.121094 305.664062 101 305.519531 100.917969 305.339844 C 99.320312 301.882812 99.320312 301.882812 97.359375 300.234375 C 97.257812 300.144531 97.175781 300.039062 97.113281 299.921875 C 97.054688 299.800781 97.015625 299.671875 97.007812 299.535156 C 96.996094 299.402344 97.011719 299.269531 97.054688 299.140625 C 97.097656 299.011719 97.160156 298.898438 97.25 298.792969 C 97.335938 298.691406 97.4375 298.609375 97.558594 298.546875 C 97.675781 298.484375 97.800781 298.445312 97.9375 298.433594 C 98.070312 298.421875 98.203125 298.4375 98.328125 298.476562 C 98.457031 298.519531 98.574219 298.582031 98.675781 298.671875 C 100.917969 300.578125 101.152344 300.890625 102.765625 304.484375 C 102.820312 304.605469 102.851562 304.734375 102.859375 304.871094 C 102.863281 305.003906 102.84375 305.136719 102.796875 305.261719 C 102.75 305.390625 102.679688 305.503906 102.589844 305.601562 C 102.5 305.703125 102.390625 305.78125 102.269531 305.835938 C 102.128906 305.898438 101.984375 305.933594 101.835938 305.933594 Z M 101.835938 305.933594 " fill-opacity="1" fill-rule="nonzero"/><path fill="#e2e9fc" d="M 106.011719 305.6875 C 105.753906 305.679688 105.5 305.640625 105.253906 305.5625 C 103.46875 305.003906 101.539062 302.527344 101.054688 298.210938 C 101.117188 297.996094 101.210938 297.796875 101.339844 297.617188 C 101.472656 297.433594 101.628906 297.28125 101.8125 297.152344 C 102 297.027344 102.199219 296.933594 102.414062 296.878906 C 102.632812 296.820312 102.851562 296.804688 103.074219 296.824219 C 104.488281 297.441406 107.832031 299.179688 108.414062 301.78125 C 108.542969 302.371094 108.527344 302.957031 108.363281 303.539062 C 108.203125 304.121094 107.914062 304.628906 107.496094 305.066406 C 107.097656 305.503906 106.601562 305.710938 106.011719 305.6875 Z M 103.246094 299.167969 C 103.328125 299.964844 103.550781 300.722656 103.910156 301.441406 C 104.273438 302.160156 104.75 302.789062 105.339844 303.332031 C 105.527344 303.5 105.738281 303.601562 105.984375 303.640625 C 106.402344 303.238281 106.550781 302.757812 106.433594 302.191406 C 106.183594 301.125 104.722656 299.960938 103.246094 299.167969 Z M 103.246094 299.167969 " fill-opacity="1" fill-rule="nonzero"/><path fill="#e2e9fc" d="M 99.457031 298.347656 C 96.582031 298.347656 94.859375 297.726562 94.175781 296.476562 C 93.964844 296.035156 93.878906 295.570312 93.917969 295.082031 C 93.960938 294.589844 94.125 294.148438 94.410156 293.75 C 95.253906 292.914062 96.265625 292.503906 97.449219 292.507812 C 99.28125 292.507812 101.015625 293.75 102.601562 296.03125 C 102.679688 296.140625 102.734375 296.261719 102.765625 296.394531 C 102.792969 296.527344 102.796875 296.660156 102.769531 296.792969 C 102.746094 296.925781 102.695312 297.046875 102.621094 297.160156 C 102.546875 297.273438 102.457031 297.367188 102.34375 297.441406 C 101.804688 297.601562 101.355469 297.894531 100.992188 298.324219 C 100.421875 298.324219 99.902344 298.347656 99.457031 298.347656 Z M 96.023438 295 C 95.941406 295.175781 95.941406 295.347656 96.023438 295.523438 C 96.023438 295.621094 96.667969 296.4375 100.324219 296.289062 C 99.667969 295.339844 98.777344 294.753906 97.644531 294.53125 C 97.03125 294.460938 96.484375 294.617188 96 295 Z M 96.023438 295 " fill-opacity="1" fill-rule="nonzero"/><path fill="#e2e9fc" d="M 102.15625 326.070312 C 102.015625 326.0625 101.878906 326.035156 101.75 325.980469 C 101.625 325.925781 101.515625 325.847656 101.421875 325.75 C 101.328125 325.652344 101.257812 325.539062 101.210938 325.414062 C 101.160156 325.285156 101.136719 325.15625 101.140625 325.019531 C 101.144531 324.882812 101.171875 324.753906 101.226562 324.628906 C 102.203125 322.488281 103.660156 320.75 105.601562 319.421875 C 106.40625 318.90625 107.265625 318.511719 108.179688 318.238281 C 109.09375 317.964844 110.03125 317.824219 110.984375 317.816406 C 111.941406 317.808594 112.878906 317.933594 113.796875 318.191406 C 114.71875 318.453125 115.582031 318.832031 116.394531 319.335938 C 116.648438 319.460938 116.824219 319.65625 116.921875 319.925781 C 117.015625 320.191406 117.007812 320.453125 116.890625 320.710938 C 116.835938 320.835938 116.757812 320.941406 116.660156 321.03125 C 116.5625 321.125 116.449219 321.191406 116.324219 321.238281 C 116.199219 321.285156 116.066406 321.300781 115.933594 321.296875 C 115.800781 321.289062 115.671875 321.253906 115.550781 321.195312 L 115.378906 321.097656 C 114.730469 320.6875 114.035156 320.375 113.300781 320.160156 C 112.5625 319.949219 111.808594 319.839844 111.042969 319.839844 C 110.273438 319.839844 109.523438 319.949219 108.785156 320.160156 C 108.046875 320.375 107.355469 320.6875 106.703125 321.097656 C 105.085938 322.195312 103.875 323.636719 103.074219 325.421875 C 103.003906 325.617188 102.882812 325.769531 102.714844 325.886719 C 102.546875 326.007812 102.363281 326.066406 102.15625 326.070312 Z M 102.15625 326.070312 " fill-opacity="1" fill-rule="nonzero"/><path fill="#373954" d="M 170.894531 225.503906 L 180.226562 336.71875 L 209.867188 334.597656 C 209.867188 334.597656 201.640625 255.390625 213.214844 254.015625 C 213.214844 254.015625 223.300781 244.308594 245.753906 250.199219 C 245.753906 250.199219 209.296875 196.058594 170.894531 225.503906 Z M 170.894531 225.503906 " fill-opacity="1" fill-rule="evenodd"/><path fill="#1d083e" d="M 179.804688 328.710938 C 179.664062 328.707031 179.542969 328.660156 179.445312 328.558594 C 179.347656 328.460938 179.296875 328.339844 179.296875 328.199219 C 179.296875 328.058594 179.347656 327.941406 179.445312 327.839844 C 179.542969 327.742188 179.664062 327.691406 179.804688 327.691406 L 209.160156 324.988281 C 209.300781 324.980469 209.425781 325.019531 209.53125 325.105469 C 209.640625 325.195312 209.703125 325.308594 209.71875 325.449219 C 209.730469 325.589844 209.6875 325.714844 209.597656 325.824219 C 209.503906 325.933594 209.390625 325.992188 209.246094 326.007812 L 179.890625 328.710938 Z M 179.804688 328.710938 " fill-opacity="1" fill-rule="nonzero"/><path fill="#373954" d="M 98.351562 293.898438 L 129.640625 308.910156 L 171.007812 241.210938 C 171.007812 241.210938 176.804688 222.726562 194.316406 222.429688 C 196.082031 222.40625 197.832031 222.578125 199.5625 222.945312 C 201.289062 223.3125 202.957031 223.863281 204.566406 224.597656 C 206.171875 225.335938 207.679688 226.238281 209.085938 227.308594 C 210.492188 228.378906 211.765625 229.59375 212.902344 230.945312 C 223.125 243.117188 250.078125 270.503906 264.417969 239.984375 C 264.417969 239.984375 273.089844 223 262.816406 202.035156 C 259.484375 197.433594 151.648438 186.738281 154.859375 196.058594 C 155.726562 198.402344 98.351562 293.898438 98.351562 293.898438 Z M 98.351562 293.898438 " fill-opacity="1" fill-rule="evenodd"/><path fill="#1d083e" d="M 248.988281 254.015625 C 245.554688 254.015625 241.046875 252.9375 234.960938 250.210938 C 227.316406 246.789062 223.808594 241.53125 220.425781 236.449219 C 217.042969 231.367188 213.84375 226.53125 206.707031 224.460938 C 191.070312 219.835938 179.59375 231.714844 174.078125 237.417969 L 173.472656 238.035156 C 173.375 238.136719 173.257812 238.1875 173.117188 238.191406 C 172.976562 238.191406 172.855469 238.144531 172.753906 238.046875 C 172.652344 237.949219 172.601562 237.832031 172.597656 237.691406 C 172.597656 237.550781 172.644531 237.429688 172.742188 237.328125 L 173.347656 236.710938 C 179 230.859375 190.773438 218.683594 206.992188 223.496094 C 214.488281 225.714844 217.785156 230.660156 221.269531 235.890625 C 224.578125 240.851562 227.996094 245.984375 235.382812 249.292969 C 251.019531 256.296875 255.46875 252.230469 259 247.050781 C 259.078125 246.933594 259.1875 246.859375 259.328125 246.835938 C 259.464844 246.808594 259.589844 246.832031 259.707031 246.914062 C 259.824219 246.992188 259.894531 247.101562 259.921875 247.238281 C 259.949219 247.375 259.921875 247.503906 259.84375 247.621094 C 257.5625 250.90625 254.777344 254.015625 248.988281 254.015625 Z M 248.988281 254.015625 " fill-opacity="1" fill-rule="nonzero"/><path fill="#1d083e" d="M 267.539062 186.078125 C 267.867188 186.0625 268.195312 186.078125 268.519531 186.128906 C 268.847656 186.179688 269.164062 186.261719 269.472656 186.375 C 269.78125 186.492188 270.074219 186.636719 270.355469 186.808594 C 270.632812 186.984375 270.894531 187.183594 271.132812 187.410156 C 271.371094 187.636719 271.582031 187.886719 271.773438 188.15625 C 271.960938 188.425781 272.117188 188.714844 272.25 189.015625 C 272.378906 189.320312 272.476562 189.632812 272.542969 189.953125 C 272.609375 190.277344 272.640625 190.605469 272.640625 190.933594 C 272.640625 191.261719 272.609375 191.589844 272.542969 191.910156 C 272.476562 192.234375 272.378906 192.546875 272.25 192.847656 C 272.117188 193.152344 271.960938 193.4375 271.773438 193.710938 C 271.582031 193.980469 271.371094 194.226562 271.132812 194.457031 C 270.894531 194.683594 270.632812 194.882812 270.355469 195.058594 C 270.074219 195.230469 269.78125 195.375 269.472656 195.488281 C 269.164062 195.605469 268.847656 195.6875 268.519531 195.738281 C 268.195312 195.785156 267.867188 195.804688 267.539062 195.785156 L 67.558594 195.785156 C 67.25 195.769531 66.945312 195.726562 66.648438 195.652344 C 66.347656 195.578125 66.058594 195.476562 65.777344 195.347656 C 65.496094 195.21875 65.230469 195.066406 64.980469 194.886719 C 64.726562 194.707031 64.496094 194.503906 64.285156 194.28125 C 64.070312 194.058594 63.882812 193.816406 63.714844 193.554688 C 63.546875 193.296875 63.40625 193.023438 63.292969 192.734375 C 63.179688 192.449219 63.09375 192.15625 63.035156 191.851562 C 62.976562 191.546875 62.945312 191.242188 62.945312 190.933594 C 62.945312 190.625 62.976562 190.320312 63.035156 190.015625 C 63.09375 189.710938 63.179688 189.417969 63.292969 189.128906 C 63.40625 188.84375 63.546875 188.570312 63.714844 188.308594 C 63.882812 188.050781 64.070312 187.808594 64.285156 187.585938 C 64.496094 187.359375 64.726562 187.160156 64.980469 186.980469 C 65.230469 186.800781 65.496094 186.644531 65.777344 186.515625 C 66.058594 186.386719 66.347656 186.285156 66.648438 186.214844 C 66.945312 186.140625 67.25 186.09375 67.558594 186.078125 Z M 267.539062 186.078125 " fill-opacity="1" fill-rule="evenodd"/><path fill="#e2e9fc" d="M 121.203125 120.289062 C 121.671875 120.277344 122.132812 120.332031 122.585938 120.453125 C 123.039062 120.578125 123.464844 120.761719 123.863281 121.011719 C 124.261719 121.257812 124.617188 121.558594 124.925781 121.910156 C 125.238281 122.261719 125.492188 122.652344 125.6875 123.078125 C 131.527344 135.757812 154.773438 186.203125 154.773438 186.203125 L 77.0625 186.648438 L 46.925781 129.1875 C 46.832031 129.007812 46.75 128.824219 46.675781 128.636719 C 46.605469 128.445312 46.546875 128.25 46.5 128.054688 C 46.453125 127.855469 46.421875 127.65625 46.398438 127.457031 C 46.378906 127.253906 46.371094 127.050781 46.375 126.847656 C 46.378906 126.644531 46.398438 126.445312 46.425781 126.242188 C 46.457031 126.042969 46.5 125.84375 46.554688 125.648438 C 46.609375 125.453125 46.679688 125.265625 46.757812 125.078125 C 46.835938 124.890625 46.929688 124.710938 47.03125 124.535156 C 47.132812 124.359375 47.246094 124.191406 47.371094 124.03125 C 47.496094 123.871094 47.628906 123.71875 47.773438 123.574219 C 47.914062 123.433594 48.066406 123.296875 48.226562 123.175781 C 48.386719 123.050781 48.554688 122.9375 48.730469 122.832031 C 48.902344 122.730469 49.085938 122.640625 49.269531 122.558594 C 49.457031 122.480469 49.648438 122.410156 49.84375 122.355469 C 50.039062 122.300781 50.234375 122.257812 50.4375 122.226562 C 50.636719 122.195312 50.835938 122.175781 51.039062 122.171875 Z M 121.203125 120.289062 " fill-opacity="1" fill-rule="evenodd"/><path fill="#d3d9f2" d="M 77.039062 186.613281 L 46.925781 129.1875 C 46.832031 129.007812 46.75 128.824219 46.675781 128.636719 C 46.605469 128.445312 46.546875 128.25 46.5 128.054688 C 46.453125 127.855469 46.421875 127.65625 46.398438 127.457031 C 46.378906 127.253906 46.371094 127.050781 46.375 126.847656 C 46.378906 126.644531 46.398438 126.445312 46.425781 126.242188 C 46.457031 126.042969 46.5 125.84375 46.554688 125.648438 C 46.609375 125.453125 46.679688 125.265625 46.757812 125.078125 C 46.835938 124.890625 46.929688 124.710938 47.03125 124.535156 C 47.132812 124.359375 47.246094 124.191406 47.371094 124.03125 C 47.496094 123.871094 47.628906 123.71875 47.773438 123.574219 C 47.914062 123.433594 48.066406 123.296875 48.226562 123.175781 C 48.386719 123.050781 48.554688 122.9375 48.730469 122.832031 C 48.902344 122.730469 49.085938 122.640625 49.269531 122.558594 C 49.457031 122.480469 49.648438 122.410156 49.84375 122.355469 C 50.039062 122.300781 50.234375 122.257812 50.4375 122.226562 C 50.636719 122.195312 50.835938 122.175781 51.039062 122.171875 L 121.203125 120.289062 C 121.890625 120.269531 122.550781 120.394531 123.183594 120.660156 C 123.816406 120.925781 124.367188 121.3125 124.835938 121.8125 Z M 77.039062 186.613281 " fill-opacity="1" fill-rule="evenodd"/><path fill="#e2e9fc" d="M 193.871094 178.394531 C 194.378906 178.394531 194.867188 178.492188 195.335938 178.6875 C 195.808594 178.886719 196.222656 179.164062 196.582031 179.523438 C 196.941406 179.882812 197.21875 180.296875 197.414062 180.769531 C 197.609375 181.238281 197.710938 181.726562 197.710938 182.238281 L 197.710938 186.019531 L 151.167969 186.019531 L 151.167969 178.394531 Z M 193.871094 178.394531 " fill-opacity="1" fill-rule="evenodd"/><path fill="#1d083e" d="M 100.148438 147.710938 C 91.3125 154.183594 94.472656 162.054688 100.261719 165.066406 C 100.894531 165.40625 101.5625 165.652344 102.261719 165.808594 C 102.964844 165.964844 103.671875 166.027344 104.390625 165.988281 C 105.109375 165.953125 105.808594 165.820312 106.488281 165.589844 C 107.167969 165.363281 107.808594 165.046875 108.402344 164.644531 C 111.910156 162.027344 110.609375 157.269531 110.609375 157.207031 C 102.601562 163.777344 97.089844 156.488281 99.902344 147.882812 " fill-opacity="1" fill-rule="evenodd"/><path fill="#373954" d="M 187.4375 360.074219 C 290.675781 360.074219 374.480469 363.457031 374.480469 367.636719 C 374.480469 371.8125 290.675781 375.210938 187.4375 375.210938 C 84.199219 375.210938 0.394531 371.789062 0.394531 367.636719 C 0.394531 363.484375 84.214844 360.074219 187.4375 360.074219 Z M 187.4375 360.074219 " fill-opacity="1" fill-rule="evenodd"/><path fill="#1d083e" d="M 38.449219 365.691406 L 96.359375 191.871094 L 104.4375 195.117188 L 47.609375 365.691406 Z M 38.449219 365.691406 " fill-opacity="1" fill-rule="evenodd"/><path fill="#1d083e" d="M 167.523438 365.691406 L 158.355469 365.691406 L 101.648438 195.488281 L 109.742188 192.242188 Z M 167.523438 365.691406 " fill-opacity="1" fill-rule="evenodd"/><path fill="#1d083e" d="M 181.191406 365.691406 L 238.863281 192.402344 L 246.957031 195.648438 L 190.363281 365.691406 Z M 181.191406 365.691406 " fill-opacity="1" fill-rule="evenodd"/><path fill="#1d083e" d="M 309.796875 365.691406 L 300.636719 365.691406 L 244.167969 196.035156 L 252.246094 192.773438 Z M 309.796875 365.691406 " fill-opacity="1" fill-rule="evenodd"/><path fill="#1d083e" d="M 224.09375 168.238281 C 223.953125 168.25 223.832031 168.207031 223.726562 168.113281 C 223.621094 168.019531 223.566406 167.902344 223.554688 167.761719 C 223.546875 167.621094 223.589844 167.5 223.683594 167.394531 C 223.773438 167.289062 223.890625 167.234375 224.03125 167.222656 C 226.089844 166.925781 229.222656 166.121094 232.53125 165.253906 C 235.183594 164.558594 237.921875 163.851562 240.5 163.292969 C 244.21875 162.5 246.585938 162.128906 249.175781 161.730469 C 252.222656 161.261719 255.691406 160.726562 262.210938 159.3125 C 262.347656 159.289062 262.476562 159.316406 262.59375 159.394531 C 262.710938 159.46875 262.785156 159.574219 262.816406 159.710938 C 262.84375 159.847656 262.820312 159.972656 262.742188 160.089844 C 262.664062 160.207031 262.558594 160.277344 262.421875 160.304688 C 255.878906 161.730469 252.394531 162.265625 249.324219 162.785156 C 246.84375 163.167969 244.367188 163.527344 240.761719 164.324219 C 238.207031 164.878906 235.480469 165.5625 232.84375 166.269531 C 229.496094 167.148438 226.335938 167.96875 224.167969 168.265625 Z M 224.09375 168.238281 " fill-opacity="1" fill-rule="nonzero"/><path fill="#1d083e" d="M 189.742188 144.101562 C 189.652344 144.101562 189.570312 144.074219 189.496094 144.03125 C 189.417969 143.984375 189.359375 143.921875 189.3125 143.847656 C 189.265625 143.769531 189.242188 143.6875 189.242188 143.597656 C 189.238281 143.511719 189.257812 143.425781 189.296875 143.347656 C 190.609375 140.867188 191.726562 138.300781 192.644531 135.648438 C 193.125 134.332031 193.585938 133.09375 194.128906 131.929688 C 194.195312 131.820312 194.292969 131.746094 194.414062 131.707031 C 194.539062 131.671875 194.660156 131.679688 194.777344 131.730469 C 194.890625 131.785156 194.976562 131.871094 195.027344 131.988281 C 195.082031 132.109375 195.085938 132.226562 195.046875 132.351562 C 194.527344 133.480469 194.082031 134.707031 193.597656 136.007812 C 192.660156 138.707031 191.523438 141.316406 190.1875 143.84375 C 190.089844 144.015625 189.941406 144.105469 189.742188 144.101562 Z M 189.742188 144.101562 " fill-opacity="1" fill-rule="nonzero"/><path fill="#1d083e" d="M 262.199219 141.722656 C 261.964844 141.726562 261.808594 141.617188 261.726562 141.398438 C 260.675781 138.699219 260.03125 137.222656 259.460938 135.921875 C 258.730469 134.257812 258.109375 132.820312 256.882812 129.460938 C 256.828125 129.328125 256.828125 129.195312 256.886719 129.0625 C 256.945312 128.929688 257.042969 128.839844 257.179688 128.789062 C 257.3125 128.742188 257.445312 128.75 257.578125 128.8125 C 257.707031 128.875 257.792969 128.976562 257.835938 129.113281 C 259.074219 132.4375 259.671875 133.863281 260.390625 135.511719 C 260.960938 136.824219 261.628906 138.3125 262.667969 141.027344 C 262.71875 141.160156 262.71875 141.289062 262.660156 141.414062 C 262.605469 141.542969 262.515625 141.632812 262.382812 141.683594 C 262.324219 141.710938 262.261719 141.722656 262.199219 141.722656 Z M 262.199219 141.722656 " fill-opacity="1" fill-rule="nonzero"/><path fill="#1d083e" d="M 134.027344 302.003906 C 133.945312 302.03125 133.863281 302.03125 133.78125 302.003906 L 103.679688 285.828125 C 103.550781 285.765625 103.460938 285.664062 103.417969 285.527344 C 103.371094 285.386719 103.382812 285.253906 103.453125 285.125 C 103.523438 284.996094 103.625 284.914062 103.765625 284.878906 C 103.90625 284.839844 104.039062 284.859375 104.164062 284.933594 L 134.265625 301.113281 C 134.386719 301.179688 134.46875 301.28125 134.511719 301.417969 C 134.550781 301.550781 134.539062 301.683594 134.476562 301.808594 C 134.363281 301.953125 134.214844 302.019531 134.027344 302.003906 Z M 134.027344 302.003906 " fill-opacity="1" fill-rule="nonzero"/><path fill="#1d083e" d="M 224.613281 114.125 C 222.460938 114.113281 220.535156 113.453125 218.828125 112.144531 L 218.691406 112.042969 C 218.570312 111.96875 218.496094 111.859375 218.46875 111.722656 C 218.4375 111.582031 218.460938 111.453125 218.539062 111.335938 C 218.617188 111.21875 218.726562 111.144531 218.863281 111.113281 C 219 111.085938 219.128906 111.109375 219.25 111.1875 L 219.433594 111.324219 C 219.988281 111.75 220.585938 112.101562 221.226562 112.382812 C 221.867188 112.664062 222.53125 112.863281 223.21875 112.984375 C 223.90625 113.101562 224.597656 113.136719 225.296875 113.089844 C 225.992188 113.042969 226.675781 112.914062 227.339844 112.699219 C 230.796875 111.722656 231.601562 111.066406 234.117188 108.152344 C 234.210938 108.046875 234.328125 107.988281 234.46875 107.980469 C 234.605469 107.96875 234.730469 108.011719 234.835938 108.105469 C 234.941406 108.195312 235 108.3125 235.007812 108.453125 C 235.019531 108.589844 234.976562 108.714844 234.886719 108.820312 C 232.285156 111.820312 231.304688 112.625 227.625 113.679688 C 226.640625 113.972656 225.636719 114.121094 224.613281 114.125 Z M 224.613281 114.125 " fill-opacity="1" fill-rule="nonzero"/><path fill="#1d083e" d="M 261.195312 122.867188 C 261.0625 122.867188 260.949219 122.824219 260.851562 122.734375 C 260.753906 122.648438 260.699219 122.539062 260.6875 122.40625 L 260.527344 120.671875 C 260.054688 115.9375 259.96875 115.082031 260.796875 106.847656 C 260.8125 106.707031 260.871094 106.59375 260.980469 106.503906 C 261.089844 106.414062 261.214844 106.375 261.355469 106.390625 C 261.496094 106.402344 261.609375 106.464844 261.699219 106.574219 C 261.785156 106.683594 261.820312 106.808594 261.800781 106.949219 C 260.984375 115.082031 261.070312 115.925781 261.527344 120.585938 L 261.703125 122.320312 C 261.71875 122.460938 261.679688 122.585938 261.589844 122.695312 C 261.5 122.804688 261.386719 122.867188 261.246094 122.878906 Z M 261.195312 122.867188 " fill-opacity="1" fill-rule="nonzero"/><path fill="#1d083e" d="M 192.804688 115.355469 C 192.570312 115.351562 192.414062 115.238281 192.332031 115.019531 C 192.121094 114.472656 191.960938 114.039062 191.824219 113.667969 C 191.363281 112.339844 190.734375 111.101562 189.929688 109.949219 C 189.832031 109.832031 189.796875 109.695312 189.820312 109.542969 C 189.84375 109.390625 189.921875 109.277344 190.050781 109.195312 C 190.183594 109.113281 190.320312 109.09375 190.46875 109.140625 C 190.613281 109.183594 190.71875 109.277344 190.785156 109.414062 C 191.632812 110.640625 192.296875 111.960938 192.777344 113.371094 L 193.273438 114.710938 C 193.304688 114.789062 193.316406 114.867188 193.308594 114.953125 C 193.296875 115.035156 193.269531 115.109375 193.222656 115.179688 C 193.175781 115.25 193.113281 115.304688 193.039062 115.34375 C 192.964844 115.382812 192.886719 115.402344 192.804688 115.402344 Z M 192.804688 115.355469 " fill-opacity="1" fill-rule="nonzero"/><path fill="#1d083e" d="M 226.0625 185.597656 C 225.941406 185.59375 225.828125 185.554688 225.734375 185.476562 C 225.640625 185.398438 225.578125 185.296875 225.554688 185.175781 C 224.609375 180.574219 223.984375 175.929688 223.683594 171.242188 C 223.621094 170.261719 223.546875 169.207031 223.425781 167.820312 C 223.414062 167.679688 223.453125 167.554688 223.546875 167.449219 C 223.636719 167.339844 223.753906 167.28125 223.894531 167.273438 C 224.035156 167.261719 224.15625 167.300781 224.261719 167.390625 C 224.367188 167.480469 224.425781 167.59375 224.441406 167.730469 C 224.5625 169.121094 224.636719 170.210938 224.699219 171.179688 C 225 175.824219 225.621094 180.429688 226.558594 184.988281 C 226.585938 185.128906 226.558594 185.253906 226.480469 185.371094 C 226.398438 185.488281 226.289062 185.558594 226.148438 185.582031 Z M 226.0625 185.597656 " fill-opacity="1" fill-rule="nonzero"/></svg>