<svg xmlns="http://www.w3.org/2000/svg" xmlns:xlink="http://www.w3.org/1999/xlink" width="500" zoomAndPan="magnify" viewBox="0 0 375 374.999991" height="500" preserveAspectRatio="xMidYMid meet" version="1.0"><defs><clipPath id="482bda73f9"><path d="M 230 238 L 232.660156 238 L 232.660156 243 L 230 243 Z M 230 238 " clip-rule="nonzero"/></clipPath><clipPath id="f2f487683e"><path d="M 224.410156 238 L 227 238 L 227 243 L 224.410156 243 Z M 224.410156 238 " clip-rule="nonzero"/></clipPath><clipPath id="9f36f04b88"><path d="M 227 237.644531 L 230 237.644531 L 230 243.644531 L 227 243.644531 Z M 227 237.644531 " clip-rule="nonzero"/></clipPath><clipPath id="e6d5cd78f5"><path d="M 4.015625 4.015625 L 370.765625 4.015625 L 370.765625 370.765625 L 4.015625 370.765625 Z M 4.015625 4.015625 " clip-rule="nonzero"/></clipPath><clipPath id="6797176eef"><path d="M 268 95 L 342.410156 95 L 342.410156 194 L 268 194 Z M 268 95 " clip-rule="nonzero"/></clipPath></defs><g clip-path="url(#482bda73f9)"><path fill="#000000" d="M 230.371094 242.878906 C 230.324219 242.878906 230.273438 242.859375 230.238281 242.824219 C 230.164062 242.75 230.164062 242.632812 230.238281 242.5625 L 232.199219 240.65625 L 230.238281 238.753906 C 230.164062 238.679688 230.164062 238.5625 230.238281 238.492188 C 230.3125 238.417969 230.433594 238.417969 230.507812 238.492188 L 232.601562 240.527344 C 232.640625 240.5625 232.660156 240.609375 232.660156 240.65625 C 232.660156 240.707031 232.640625 240.753906 232.601562 240.789062 L 230.507812 242.824219 C 230.46875 242.859375 230.421875 242.878906 230.371094 242.878906 Z M 230.371094 242.878906 " fill-opacity="1" fill-rule="nonzero"/></g><g clip-path="url(#f2f487683e)"><path fill="#000000" d="M 226.699219 242.878906 C 226.648438 242.878906 226.601562 242.859375 226.5625 242.824219 L 224.46875 240.789062 C 224.433594 240.753906 224.410156 240.707031 224.410156 240.65625 C 224.410156 240.609375 224.433594 240.5625 224.46875 240.527344 L 226.5625 238.492188 C 226.636719 238.417969 226.757812 238.417969 226.832031 238.492188 C 226.910156 238.5625 226.910156 238.679688 226.832031 238.753906 L 224.875 240.65625 L 226.832031 242.5625 C 226.910156 242.632812 226.910156 242.75 226.832031 242.824219 C 226.796875 242.859375 226.746094 242.878906 226.699219 242.878906 Z M 226.699219 242.878906 " fill-opacity="1" fill-rule="nonzero"/></g><g clip-path="url(#9f36f04b88)"><path fill="#000000" d="M 227.398438 243.644531 C 227.375 243.644531 227.351562 243.640625 227.328125 243.632812 C 227.226562 243.59375 227.179688 243.488281 227.21875 243.390625 L 229.496094 237.785156 C 229.535156 237.691406 229.644531 237.644531 229.746094 237.683594 C 229.84375 237.71875 229.890625 237.828125 229.851562 237.921875 L 227.574219 243.527344 C 227.546875 243.601562 227.472656 243.644531 227.398438 243.644531 Z M 227.398438 243.644531 " fill-opacity="1" fill-rule="nonzero"/></g><g clip-path="url(#e6d5cd78f5)"><path fill="#5170ff" d="M 187.496094 370.976562 C 86.582031 370.976562 4.015625 288.410156 4.015625 187.496094 C 4.015625 86.582031 86.582031 4.015625 187.496094 4.015625 C 288.410156 4.015625 370.976562 86.582031 370.976562 187.496094 C 370.976562 288.410156 288.410156 370.976562 187.496094 370.976562 Z M 187.496094 370.976562 " fill-opacity="1" fill-rule="nonzero"/></g><path fill="#ffffff" d="M 160.90625 285.863281 C 151.695312 272.957031 145.933594 263.089844 140.515625 264.003906 C 129.875 265.777344 129.761719 275.5 114.382812 273.527344 C 98.980469 271.519531 82.066406 234.394531 77.457031 221.710938 C 72.828125 209.003906 61.90625 169.699219 72.4375 158.261719 C 82.953125 146.84375 89.277344 154.203125 98.570312 148.757812 C 103.296875 145.964844 101.382812 134.710938 100.132812 118.898438 C 98.886719 103.089844 99.6875 97.539062 87.390625 94.765625 C 75.132812 92.015625 52.277344 91.566406 42.457031 115.472656 C 36.191406 130.777344 32.503906 174.957031 52.78125 230.691406 C 73.078125 286.40625 104.265625 317.871094 118.925781 325.558594 C 141.800781 337.558594 159.027344 322.527344 166.65625 312.539062 C 174.296875 302.507812 170.113281 298.765625 160.90625 285.863281 Z M 160.90625 285.863281 " fill-opacity="1" fill-rule="nonzero"/><g clip-path="url(#6797176eef)"><path fill="#ffffff" d="M 315.6875 193.320312 C 316.933594 191.644531 317.914062 189.746094 318.476562 187.605469 L 341.761719 100.738281 C 342.210938 99.082031 342.304688 97.421875 342.246094 95.804688 L 268.046875 115.460938 Z M 315.6875 193.320312 " fill-opacity="1" fill-rule="nonzero"/></g><path fill="#ffffff" d="M 238.4375 114.578125 L 339.90625 87.679688 C 337.722656 84.089844 334.230469 81.28125 329.839844 80.109375 L 176.535156 39.023438 C 172.125 37.851562 167.695312 38.539062 164.019531 40.585938 Z M 238.4375 114.578125 " fill-opacity="1" fill-rule="nonzero"/><path fill="#ffffff" d="M 259.542969 117.71875 L 235.925781 123.964844 L 218.589844 106.71875 L 135.3125 152.015625 C 137.503906 155.023438 140.636719 157.40625 144.542969 158.453125 L 297.839844 199.539062 C 301.722656 200.558594 305.628906 200.101562 309.058594 198.566406 Z M 259.542969 117.71875 " fill-opacity="1" fill-rule="nonzero"/><path fill="#ffffff" d="M 157.933594 46.421875 C 157.058594 47.804688 156.332031 49.269531 155.867188 50.949219 L 132.601562 137.8125 C 132.039062 139.9375 131.933594 142.070312 132.171875 144.136719 L 212.363281 100.539062 Z M 157.933594 46.421875 " fill-opacity="1" fill-rule="nonzero"/><path fill="#ffffff" d="M 267.132812 312.328125 C 257.046875 316.546875 248.925781 317.851562 237.078125 317.851562 C 210.125 317.851562 185.734375 298.527344 185.734375 266.492188 C 185.734375 233.527344 210.4375 204.777344 247.132812 204.777344 C 275.90625 204.777344 297.019531 224.433594 297.019531 251.890625 C 297.019531 275.289062 283.847656 290.546875 265.34375 290.546875 C 257.210938 290.546875 252.027344 286.644531 250.703125 278.699219 L 250.238281 278.699219 C 245.515625 286.328125 238.535156 290.546875 230.238281 290.546875 C 219.351562 290.546875 211.714844 282.433594 211.714844 268.929688 C 211.714844 249.269531 225.847656 231.578125 249.589844 231.578125 C 256.90625 231.578125 265.828125 233.527344 269.570312 235.796875 L 265.179688 266.1875 C 263.894531 274.300781 264.695312 278.1875 268.921875 278.347656 C 275.265625 278.679688 283.714844 270.71875 283.714844 252.042969 C 283.714844 231.882812 270.382812 215.785156 245.363281 215.785156 C 221.160156 215.785156 199.542969 234.480469 199.542969 264.710938 C 199.542969 291.996094 216.769531 306.613281 240.992188 306.613281 C 248.78125 306.613281 257.734375 304.996094 264.210938 301.910156 Z M 250.390625 246.679688 C 249.257812 246.367188 247.953125 246.195312 246.667969 246.195312 C 237.550781 246.195312 230.582031 255.460938 230.582031 266.492188 C 230.582031 272.1875 232.847656 275.433594 237.238281 275.433594 C 241.941406 275.433594 247.132812 269.738281 248.457031 260.644531 Z M 250.390625 246.679688 " fill-opacity="1" fill-rule="nonzero"/></svg>